<svg width="25" height="24" viewBox="0 0 25 24" fill="none" xmlns="http://www.w3.org/2000/svg">
<path d="M12.5 12C14.7091 12 16.5 10.2091 16.5 8C16.5 5.79086 14.7091 4 12.5 4C10.2909 4 8.5 5.79086 8.5 8C8.5 10.2091 10.2909 12 12.5 12Z" fill="#A6A6A6"/>
<path d="M20.5 19V20C20.5 20.2652 20.3946 20.5196 20.2071 20.7071C20.0196 20.8946 19.7652 21 19.5 21H5.5C5.23478 21 4.98043 20.8946 4.79289 20.7071C4.60536 20.5196 4.5 20.2652 4.5 20V19C4.5 17.4087 5.13214 15.8826 6.25736 14.7574C7.38258 13.6321 8.9087 13 10.5 13H14.5C16.0913 13 17.6174 13.6321 18.7426 14.7574C19.8679 15.8826 20.5 17.4087 20.5 19Z" fill="#A6A6A6"/>
</svg>
