<svg width="32" height="33" viewBox="0 0 32 33" fill="none" xmlns="http://www.w3.org/2000/svg">
<path d="M6.66667 5.83301C5.19387 5.83301 4 7.03301 4 8.49967V27.1663C4 28.633 5.19387 29.833 6.66667 29.833H14.6667H17.3333H25.3333C26.8067 29.833 28 28.633 28 27.1663V8.49967C28 7.03301 26.8067 5.83301 25.3333 5.83301H17.3333H14.6667H6.66667Z" fill="#BDC3C7"/>
<path d="M6.66667 4.5C5.19387 4.5 4 5.69387 4 7.16667V25.8333C4 27.3067 5.19387 28.5 6.66667 28.5H14.6667H17.3333H25.3333C26.8067 28.5 28 27.3067 28 25.8333V7.16667C28 5.69387 26.8067 4.5 25.3333 4.5H17.3333H14.6667H6.66667Z" fill="#ECF0F1"/>
<path d="M6.66667 4.5C5.19387 4.5 4 5.69387 4 7.16667V11.1667V12.5H28V11.1667V7.16667C28 5.69387 26.8067 4.5 25.3333 4.5H17.3333H14.6667H6.66667Z" fill="#6E6E6E"/>
<path d="M10 7.83301C10 8.09565 9.94827 8.35572 9.84776 8.59837C9.74725 8.84103 9.59993 9.0615 9.41421 9.24722C9.2285 9.43294 9.00802 9.58026 8.76537 9.68077C8.52272 9.78128 8.26264 9.83301 8 9.83301C7.73736 9.83301 7.47728 9.78128 7.23463 9.68077C6.99198 9.58026 6.7715 9.43294 6.58579 9.24722C6.40007 9.0615 6.25275 8.84103 6.15224 8.59837C6.05173 8.35572 6 8.09565 6 7.83301C6 7.57036 6.05173 7.31029 6.15224 7.06764C6.25275 6.82499 6.40007 6.60451 6.58579 6.41879C6.7715 6.23308 6.99198 6.08576 7.23463 5.98525C7.47728 5.88474 7.73736 5.83301 8 5.83301C8.26264 5.83301 8.52272 5.88474 8.76537 5.98525C9.00802 6.08576 9.2285 6.23308 9.41421 6.41879C9.59993 6.60451 9.74725 6.82499 9.84776 7.06764C9.94827 7.31029 10 7.57036 10 7.83301Z" fill="#6E6E6E"/>
<path d="M7.99984 1.83301C7.26344 1.83301 6.6665 2.42994 6.6665 3.16634V7.16634C6.6665 7.90274 7.26344 8.49967 7.99984 8.49967C8.73624 8.49967 9.33317 7.90274 9.33317 7.16634V3.16634C9.33317 2.42994 8.73624 1.83301 7.99984 1.83301Z" fill="#BDC3C7"/>
<path d="M26 7.83301C26 8.09565 25.9483 8.35572 25.8478 8.59837C25.7472 8.84103 25.5999 9.0615 25.4142 9.24722C25.2285 9.43294 25.008 9.58026 24.7654 9.68077C24.5227 9.78128 24.2626 9.83301 24 9.83301C23.7374 9.83301 23.4773 9.78128 23.2346 9.68077C22.992 9.58026 22.7715 9.43294 22.5858 9.24722C22.4001 9.0615 22.2528 8.84103 22.1522 8.59837C22.0517 8.35572 22 8.09565 22 7.83301C22 7.57036 22.0517 7.31029 22.1522 7.06764C22.2528 6.82499 22.4001 6.60451 22.5858 6.41879C22.7715 6.23308 22.992 6.08576 23.2346 5.98525C23.4773 5.88474 23.7374 5.83301 24 5.83301C24.2626 5.83301 24.5227 5.88474 24.7654 5.98525C25.008 6.08576 25.2285 6.23308 25.4142 6.41879C25.5999 6.60451 25.7472 6.82499 25.8478 7.06764C25.9483 7.31029 26 7.57036 26 7.83301Z" fill="#6E6E6E"/>
<path d="M23.9998 1.83301C23.2638 1.83301 22.6665 2.36634 22.6665 3.16634V7.16634C22.6665 7.83301 23.2638 8.49967 23.9998 8.49967C24.7358 8.49967 25.3332 7.83301 25.3332 7.16634V3.16634C25.3332 2.36634 24.7358 1.83301 23.9998 1.83301Z" fill="#BDC3C7"/>
<path d="M6.6665 15.166V17.8327H9.33317V15.166H6.6665ZM10.6665 15.166V17.8327H13.3332V15.166H10.6665ZM14.6665 15.166V17.8327H17.3332V15.166H14.6665ZM18.6665 15.166V17.8327H21.3332V15.166H18.6665ZM22.6665 15.166V17.8327H25.3332V15.166H22.6665Z" fill="#BDC3C7"/>
<path d="M6.6665 19.166V21.8327H9.33317V19.166H6.6665ZM10.6665 19.166V21.8327H13.3332V19.166H10.6665ZM14.6665 19.166V21.8327H17.3332V19.166H14.6665ZM18.6665 19.166V21.8327H21.3332V19.166H18.6665ZM22.6665 19.166V21.8327H25.3332V19.166H22.6665Z" fill="#BDC3C7"/>
<path d="M6.6665 23.166V25.8327H9.33317V23.166H6.6665ZM10.6665 23.166V25.8327H13.3332V23.166H10.6665ZM14.6665 23.166V25.8327H17.3332V23.166H14.6665ZM18.6665 23.166V25.8327H21.3332V23.166H18.6665ZM22.6665 23.166V25.8327H25.3332V23.166H22.6665Z" fill="#BDC3C7"/>
</svg>
