<svg width="61" height="60" viewBox="0 0 61 60" fill="none" xmlns="http://www.w3.org/2000/svg">
<g clip-path="url(#clip0_112_4915)">
<path d="M30.5 41.25C28.5629 41.25 26.6258 40.6146 24.9734 39.327L0.5 20.2969V46.875C0.5 49.9805 3.01836 52.5 6.125 52.5H54.875C57.9816 52.5 60.5 49.9816 60.5 46.875V20.2969L36.0312 39.3398C34.3789 40.6172 32.4336 41.25 30.5 41.25ZM2.40898 17.0273L27.2762 36.375C29.1734 37.8516 31.8312 37.8516 33.7285 36.375L58.5957 17.0273C59.6914 16.0898 60.5 14.6484 60.5 13.125C60.5 10.0184 57.9805 7.5 54.875 7.5H6.125C3.01836 7.5 0.5 10.0184 0.5 13.125C0.5 14.6484 1.2043 16.0898 2.40898 17.0273Z" fill="#0000FF"/>
</g>
<defs>
<clipPath id="clip0_112_4915">
<rect width="60" height="60" fill="white" transform="translate(0.5)"/>
</clipPath>
</defs>
</svg>
