<svg width="25" height="24" viewBox="0 0 25 24" fill="none" xmlns="http://www.w3.org/2000/svg">
<g clip-path="url(#clip0_112_4086)">
<path d="M21.3125 14.8492L16.9156 12.9742C16.6888 12.8725 16.4397 12.8303 16.192 12.8516C15.9443 12.8729 15.7061 12.9571 15.5 13.096L13.1469 14.6617C11.7127 13.9651 10.5516 12.8106 9.84687 11.3804L11.4031 8.99915C11.5412 8.79279 11.6255 8.55521 11.6484 8.308C11.6713 8.06078 11.6321 7.81175 11.5344 7.58353L9.65 3.18665C9.51851 2.88976 9.29586 2.64247 9.01435 2.48064C8.73284 2.31882 8.40711 2.25087 8.08437 2.28665C6.81837 2.4525 5.65566 3.07244 4.81243 4.03121C3.96919 4.98998 3.50281 6.22233 3.5 7.49915C3.5 14.9429 9.55625 20.9992 17 20.9992C18.2768 20.9963 19.5092 20.53 20.4679 19.6867C21.4267 18.8435 22.0467 17.6808 22.2125 16.4148C22.2483 16.092 22.1803 15.7663 22.0185 15.4848C21.8567 15.2033 21.6094 14.9806 21.3125 14.8492Z" fill="#A6A6A6"/>
</g>
<defs>
<clipPath id="clip0_112_4086">
<rect width="24" height="24" fill="white" transform="translate(0.5)"/>
</clipPath>
</defs>
</svg>
