<svg width="60" height="60" viewBox="0 0 60 60" fill="none" xmlns="http://www.w3.org/2000/svg">
<g clip-path="url(#clip0_112_4894)">
<path d="M52.0312 37.1248L41.0391 32.4373C40.4719 32.1831 39.8493 32.0777 39.23 32.131C38.6108 32.1843 38.0154 32.3946 37.5 32.742L31.6172 36.6561C28.0318 34.9147 25.1289 32.0283 23.3672 28.453L27.2578 22.4998C27.6029 21.9839 27.8137 21.39 27.871 20.7719C27.9283 20.1539 27.8303 19.5313 27.5859 18.9608L22.875 7.96859C22.5463 7.22635 21.9897 6.60813 21.2859 6.20356C20.5821 5.799 19.7678 5.62913 18.9609 5.71859C15.7959 6.1332 12.8892 7.68305 10.7811 10.08C8.67299 12.4769 7.50704 15.5578 7.5 18.7498C7.5 37.3592 22.6406 52.4998 41.25 52.4998C44.4421 52.4928 47.5229 51.3269 49.9199 49.2188C52.3168 47.1107 53.8666 44.2039 54.2812 41.0389C54.3707 40.2321 54.2008 39.4177 53.7963 38.714C53.3917 38.0102 52.7735 37.4536 52.0312 37.1248Z" fill="#0000FF"/>
</g>
<defs>
<clipPath id="clip0_112_4894">
<rect width="60" height="60" fill="white"/>
</clipPath>
</defs>
</svg>
