<svg width="974" height="204" viewBox="0 0 974 204" fill="none" xmlns="http://www.w3.org/2000/svg">
<g clip-path="url(#clip0_1214_2913)">
<g clip-path="url(#clip1_1214_2913)">
<g clip-path="url(#clip2_1214_2913)">
<path d="M19.0095 27.0611C17.0381 28.0976 15.2024 29.1722 13.2738 30.0708C12.4877 30.42 11.7946 30.9454 11.0714 31.2824C10.5892 31.507 10.3658 32.1343 10.2781 32.7997C10.1653 34.1181 9.71853 35.3727 9.39732 36.6026C9.31198 36.8787 9.4778 37.1052 9.39246 37.3813C8.91549 38.4474 9.15935 39.5658 9.00638 40.6329C8.86347 41.7629 8.65776 42.9052 8.7032 43.998C8.7084 44.8395 8.51519 45.6553 8.58318 46.4845C8.62099 47.1251 8.84959 47.3392 9.44727 47.027C10.3488 46.5902 11.3961 46.2542 12.1318 45.5907C12.6993 45.0901 13.3397 44.6398 13.9901 44.2524C14.8715 43.69 15.7529 43.1274 16.5716 42.5773C17.5058 41.9395 18.5127 41.3522 19.4369 40.6516C20.0772 40.2015 20.7803 39.7388 21.5036 39.402C21.9858 39.1773 22.3022 38.7261 22.7843 38.5014C23.3819 38.1893 23.819 38.492 24.2361 38.6691C24.3817 38.77 24.6003 38.9214 24.7359 38.9595C25.4567 39.0119 25.9867 39.4907 26.6121 39.7563C27.0291 39.9334 27.5089 40.0981 27.9258 40.2752C28.8225 40.617 29.8022 41.0721 30.6988 41.4139C31.3242 41.6795 31.8969 42.0203 32.6279 42.1355C33.2859 42.2003 33.9314 42.5916 34.4413 42.9448C35.1597 43.3865 35.9333 43.3637 36.4605 42.6118C36.8925 42.073 37.2515 41.4837 37.6935 41.0078C38.3036 40.3691 38.851 39.7428 39.4611 39.1041C40.0086 38.4778 40.5358 37.7257 41.0932 37.1622C41.6507 36.5988 42.1252 35.922 42.6199 35.3708C43.0619 34.8948 43.358 34.3181 43.8829 33.9554C44.6915 33.3424 45.063 32.4267 45.736 31.7756C46.2407 31.2873 46.5997 30.6981 46.9688 30.1717C47.3906 29.57 47.8752 28.9561 48.3699 28.405C48.8118 27.9291 49.108 27.3522 49.55 26.8763C50.15 26.1748 50.7602 25.5361 51.2875 24.784C51.973 23.8065 52.8242 23.0554 53.4469 22.0902C53.8586 21.4258 54.5617 20.9633 54.9735 20.2988C55.5334 19.346 56.3219 18.6074 56.9445 17.6422C57.6726 16.5265 58.4836 15.5242 59.2846 14.4591C59.4428 14.2334 59.5281 13.9574 59.6862 13.7318C60.4872 12.6666 61.5997 11.929 62.5665 11.0904C63.8797 9.9891 65.1931 8.88781 66.5164 7.84934C67.1468 7.33629 67.8398 6.81087 68.4802 6.36065C68.9422 6.01037 69.447 5.52206 69.909 5.17179C70.7803 4.54643 71.4232 3.70687 72.2945 3.0815C72.7566 2.73123 73.0729 2.28004 73.3893 1.82884C73.8638 1.15205 73.595 0.686552 72.7812 0.458043C72.1758 0.318075 71.548 0.441789 70.9628 0.427476C69.928 0.436936 68.9335 0.697704 67.9515 0.631965C67.1679 0.591939 66.3819 0.941248 65.568 0.71274C64.9628 0.572773 64.1667 0.859255 63.4559 0.869685C62.4839 0.866774 61.5522 1.11517 60.653 1.16271C58.7292 1.28254 56.813 1.85453 54.8791 1.91154C54.6179 1.8982 54.3869 2.07334 54.1257 2.06C52.9855 2.21985 51.8251 2.25406 50.7578 2.46437C49.2509 2.76129 47.7642 3.18385 46.2372 3.3551C45.8605 3.42933 45.5868 3.7425 45.1272 3.70344C44.7303 3.65202 44.2482 3.87664 43.8714 3.95087C42.563 4.27349 41.2871 4.39527 39.9787 4.71789C39.288 4.85398 38.5547 5.12809 37.7611 5.02524C37.3115 5.04901 36.6736 5.10989 36.2743 5.4478C36.0432 5.62294 35.8146 5.40875 35.5007 5.4706C34.6845 5.63143 33.8256 5.93028 32.9893 5.96545C31.6406 6.03677 30.508 6.64879 29.2423 6.83339C28.8656 6.90762 28.5089 7.1075 28.0594 7.13127C26.4068 7.32727 24.7519 7.9126 23.1194 8.23426C22.3659 8.38272 21.5598 8.60637 20.8063 8.75483C20.618 8.79194 20.3769 8.90426 20.2413 8.86617C19.553 8.61292 19.3096 9.11457 19.056 9.55339C18.4007 10.7195 17.8082 11.8731 17.0701 12.9259C16.3846 13.9035 15.8247 14.8564 15.2749 15.872C14.9159 16.4613 14.3182 16.7734 14.1677 17.4512C14.0071 18.0661 13.3466 18.3907 13.0504 18.9675C12.7968 19.4064 12.4176 19.8699 12.2997 20.3469C12.1717 20.7608 11.795 20.8351 11.5841 21.1359C11.3832 21.4995 11.2452 21.8508 11.0443 22.2145C10.6954 22.8665 10.1906 23.3548 9.97731 24.0449C9.80664 24.597 9.83682 24.7854 10.3894 25.0007C11.4217 25.3805 12.5394 25.4843 13.5516 25.7385C14.9707 26.107 16.4124 26.2119 17.7888 26.7184C18.1957 26.8326 18.5926 26.8841 19.0095 27.0611ZM72.2716 1.72502C70.9583 2.82632 69.7078 3.91524 68.51 4.92896C67.6587 5.67998 66.5688 6.15397 65.8206 7.14393C65.7678 7.21912 65.6423 7.24386 65.5167 7.2686C64.8236 7.79403 64.1205 8.25662 63.4374 8.84487C63.1537 9.09521 62.8699 9.34555 62.5963 9.65871C62.2172 10.1222 61.5691 10.1203 61.1799 10.521C60.6853 11.0722 60.1278 11.6357 59.5503 12.0736C57.544 13.7002 55.4647 15.2766 53.3854 16.8528C53.0389 17.1155 52.5467 17.2773 52.3257 17.5153C51.7256 18.2168 50.9295 18.5032 50.3093 19.0791C49.227 20.0053 47.8332 20.604 46.761 21.5929C46.5927 21.7557 46.4245 21.9185 46.2362 21.9557C45.7338 22.0546 45.3346 22.3925 44.9981 22.7181C44.1469 23.469 43.0896 23.7422 42.3111 24.5437C41.6382 25.1947 40.6864 25.3174 39.9405 25.9181C39.2575 26.5063 38.4614 26.7928 37.7683 27.3182C37.1908 27.7561 36.5303 28.0807 35.9427 28.4557C35.0085 29.0934 34.0744 29.7311 33.1301 30.3061C32.8363 30.4935 32.4596 30.5678 32.2387 30.8057C31.1037 31.8072 29.7827 32.4563 28.5648 33.3443C27.5151 34.0696 26.3926 34.7445 25.27 35.4194C24.5041 35.8943 23.7483 36.4321 22.9824 36.907C21.8699 37.6447 20.7776 38.508 19.6651 39.2457C18.6681 39.8958 17.6813 40.6088 16.6944 41.3216C15.7075 42.0346 14.5649 42.5838 13.578 43.2967C12.4655 44.0344 11.2802 44.7216 10.1677 45.4593C10.0522 45.5469 9.88399 45.7096 9.7383 45.6087C9.59261 45.5078 9.62522 45.3069 9.65782 45.1061C9.70292 44.5788 9.93637 44.0143 9.86596 43.5744C9.76536 42.9462 9.98876 42.3189 9.961 41.7411C9.93325 41.1632 10.1566 40.5359 10.2017 40.0086C10.2996 39.4061 10.4702 38.854 10.4952 38.2009C10.5001 37.4223 10.8189 36.5817 10.8865 35.7907C10.924 34.8111 11.2327 33.9078 11.343 32.9788C11.3981 32.5142 11.599 32.1506 12.0184 31.9384C12.606 31.5633 13.2866 31.3644 13.7812 30.8132C14.065 30.5629 14.5773 30.5268 14.8611 30.2764C15.7124 29.5254 16.6868 29.139 17.641 28.6269C18.5325 28.1272 19.4441 27.7532 20.3457 27.3163C21.2472 26.8794 22.1187 26.254 23.1031 25.9305C24.0775 25.5441 24.8761 24.8682 25.8404 24.419C27.2869 23.7451 28.6203 22.7694 29.9839 21.9823C30.8754 21.4826 31.8296 20.9705 32.794 20.5212C33.1606 20.3842 33.2887 19.9701 33.6654 19.8959C34.4816 19.735 35.0917 19.0964 35.9707 18.9231C36.4103 18.8366 36.8522 18.3606 37.2717 18.1484C37.8692 17.8361 38.477 17.5868 39.0747 17.2747C40.2174 16.7254 41.3499 16.1134 42.4926 15.5642C43.2685 15.1521 44.0345 14.6771 44.8206 14.3278C45.4282 14.0785 45.9631 13.7786 46.5608 13.4664C47.1585 13.1543 47.7361 12.7164 48.3965 12.3918C49.3509 11.8797 50.2524 11.4428 51.2167 10.9936C51.9927 10.5815 52.8416 10.2198 53.5548 9.82001C54.268 9.42025 55.0842 9.25942 55.7145 8.74638C56.2292 8.3209 56.9199 8.18481 57.5175 7.87261C58.0625 7.63562 58.5245 7.28534 59.1424 7.0988C59.823 6.89989 60.4633 6.44967 61.1238 6.1251C62.3191 5.50071 63.5974 4.9896 64.8028 4.42803C66.1238 3.7789 67.6206 3.41917 68.9515 2.83286C69.9988 2.49689 71.1088 2.14855 72.2716 1.72502ZM11.2532 23.9231C11.5595 23.4091 11.7402 22.9198 12.0666 22.5314C12.8676 21.4663 13.5228 20.3002 14.2509 19.1846C14.7681 18.3698 15.3481 17.5427 15.8653 16.7279C16.3298 15.9882 16.6587 15.2105 17.0704 14.5461C17.8939 13.2173 18.6546 11.9008 19.4781 10.572C19.9426 9.83235 20.4449 9.73338 21.1356 9.5973C21.8262 9.46121 22.5068 9.2623 23.2075 9.18905C23.961 9.04059 24.7043 8.8293 25.4477 8.61802C26.1282 8.4191 26.839 8.40868 27.5196 8.20977C28.2002 8.01086 28.9436 7.79957 29.6342 7.66349C31.769 7.24286 33.8936 6.75941 36.0384 6.4016C37.1787 6.24175 38.3615 5.94387 39.4916 5.72119C40.559 5.51087 41.5637 5.31293 42.631 5.10262C44.1378 4.80571 45.6222 4.77248 47.0989 4.28708C47.6538 4.11291 48.2592 4.25288 48.867 4.00351C49.2336 3.86646 49.6203 3.85505 50.0072 3.84365C50.645 3.78277 51.2528 3.53341 51.8179 3.42206C52.6341 3.26123 53.4704 3.22606 54.2238 3.07761C55.4168 2.84255 56.6299 2.73315 57.7701 2.5733C58.5235 2.42484 59.2343 2.41441 59.935 2.34115C60.5001 2.2298 61.0651 2.11847 61.6503 2.13278C62.4239 2.10997 63.1873 2.02435 63.9509 1.93872C64.5888 1.87784 65.2896 1.80457 65.9173 1.68087C67.0575 1.52101 68.1551 1.49917 69.2853 1.27649C69.7875 1.17752 70.2372 1.15375 70.7495 1.11761C69.6796 1.71725 68.5998 2.25408 67.4998 2.66524C66.3572 3.21444 65.2371 3.49994 64.1372 3.91111C63.7077 4.06053 63.2783 4.20996 62.8589 4.42222C61.4651 5.02089 60.0813 5.68239 58.5947 6.10497C56.6257 6.75215 54.6769 7.525 52.7808 8.22265C51.3142 8.77087 49.8274 9.19343 48.4437 9.85495C47.3539 10.329 46.2438 10.6773 45.2167 11.1389C43.4562 11.8746 41.6756 12.4847 39.9052 13.1576C38.1447 13.8933 36.4269 14.491 34.6565 15.1639C33.5037 15.6503 32.341 16.0739 31.1782 16.4973C30.3821 16.7838 29.679 17.2465 28.9255 17.3949C27.7954 17.6176 26.7256 18.2173 25.6884 18.6161C24.1063 19.2519 22.5242 19.8876 20.952 20.5863C19.0234 21.4847 16.9088 22.031 14.8972 22.8162C14.2894 23.0656 13.5686 23.0133 12.981 23.3883C12.3934 23.7633 11.9011 23.9251 11.2532 23.9231ZM57.735 14.8939C57.3209 15.9478 56.6052 16.7369 56.0253 17.564C55.3925 18.4664 54.6342 19.3936 53.9286 20.2454C53.1704 21.1726 52.5477 22.1378 51.7065 22.9516C51.0336 23.6027 50.4535 24.4299 49.8635 25.1942C49.2836 26.0214 48.485 26.6973 47.9051 27.5245C47.5887 27.9756 47.1995 28.3763 46.8203 28.8399C46.1574 29.5539 45.4844 30.2049 45.03 31.0074C44.7237 31.5214 44.2717 31.9345 43.8825 32.3352C43.1669 33.1243 42.7427 34.1152 41.7985 34.6901C41.7985 34.6901 41.8086 34.753 41.7557 34.8282C41.2812 35.505 40.6711 36.1436 40.1865 36.7577C39.7019 37.3716 39.0715 37.8846 38.6598 38.549C38.2054 39.3515 37.4496 39.8893 36.9323 40.7041C36.626 41.2181 35.9756 41.6055 35.6693 42.1195C35.3631 42.6335 35.1345 42.4193 34.8532 42.2803C34.0091 41.8633 33.145 41.3207 32.3112 40.9666C31.2788 40.5867 30.3946 39.9184 29.3196 39.6766C27.9005 39.308 26.6621 38.4503 25.2229 37.9562C24.9516 37.88 24.5548 37.8285 24.3588 37.4136C24.7456 37.4022 24.9766 37.227 25.2804 37.1023C25.8154 36.8025 26.3301 36.377 26.9379 36.1276C27.4829 35.8906 28.0906 35.6413 28.6053 35.2158C29.1629 34.6523 29.876 34.2525 30.5063 33.7395C31.0211 33.314 31.6916 33.0522 32.2793 32.6772C32.573 32.4898 32.7739 32.1261 33.0777 32.0014C34.2204 31.4522 35.2174 30.8021 36.267 30.0769C37.2012 29.439 38.1253 28.7386 39.0695 28.1636C39.8354 27.6887 40.5813 27.088 41.3371 26.5502C42.2713 25.9125 43.1326 25.2243 44.0668 24.5866C45.0009 23.9489 46.028 23.4872 46.9521 22.7867C47.708 22.2489 48.5367 21.7616 49.2825 21.1609C49.7445 20.8107 50.2167 20.5232 50.616 20.1853C50.8996 19.935 51.1106 19.6342 51.4671 19.4342C51.992 19.0716 52.5168 18.709 53.0417 18.3464C53.451 18.0713 53.8502 17.7333 54.2596 17.4582C54.8472 17.0832 55.3519 16.595 55.9396 16.22C56.5272 15.8449 57.0947 15.3442 57.735 14.8939ZM12.8807 24.3801C12.8707 24.3173 12.8606 24.2545 12.8506 24.1917C13.5311 23.9927 14.1715 23.5426 14.8094 23.4816C15.4473 23.4208 15.9722 23.0581 16.5272 22.884C17.5744 22.548 18.5388 22.0987 19.576 21.6999C20.6131 21.3011 21.806 21.066 22.8332 20.6045C23.7448 20.2303 24.7092 19.7812 25.6208 19.4071C26.8991 18.8959 28.2501 18.4353 29.5284 17.9242C30.3772 17.5625 31.2261 17.2008 32.0849 16.902C33.2477 16.4785 34.4633 15.9797 35.626 15.5562C36.8516 15.1203 38.1297 14.6092 39.3352 14.0476C40.4252 13.5736 41.5251 13.1624 42.5623 12.7636C42.9917 12.6143 43.2655 12.3011 43.6948 12.1516C44.6893 11.8909 45.6739 11.5672 46.701 11.1057C47.7809 10.5689 48.9738 10.3338 50.1366 9.91025C50.7442 9.66088 51.3721 9.53716 51.9597 9.16215C52.138 9.0622 52.3792 8.94989 52.4821 9.18883C52.5852 9.42777 52.2713 9.48962 52.1457 9.51437C51.4325 9.91413 50.7093 10.251 49.9232 10.6004C48.8433 11.1372 47.7107 11.7492 46.6309 12.286C45.6138 12.8105 44.6069 13.3978 43.5068 13.809C43.1402 13.946 42.8967 14.4477 42.4069 14.2201C41.8695 14.9092 41.0106 15.2081 40.2874 15.5451C39.5014 15.8944 38.7455 16.4322 37.8867 16.731C36.7866 17.1422 35.7897 17.7923 34.7726 18.3167C33.5772 18.9411 32.382 19.5655 31.1966 20.2527C30.3679 20.7401 29.4764 21.2398 28.6377 21.6643C28.3965 21.7766 28.0098 21.788 27.8416 21.9508C27.0957 22.5514 26.2469 22.913 25.4709 23.3252C24.3383 23.9372 23.2058 24.5492 22.0833 25.2241C21.4956 25.5991 20.9708 25.9617 20.353 26.1483C19.2957 26.4214 18.2859 25.7779 17.3365 25.5113C16.5227 25.2828 15.6787 24.8658 14.8021 24.6496C14.1542 24.6477 13.5488 24.5077 12.8807 24.3801Z" fill="#C8C8CD"/>
<path d="M16.6502 38.2197C17.0821 37.6809 17.7526 37.4192 18.2673 36.9937C19.0132 36.3931 19.8318 35.843 20.6605 35.3557C21.4265 34.8806 22.0994 34.2296 22.8653 33.7547C23.6413 33.3425 24.3143 32.6915 25.1003 32.3421C25.5825 32.1175 25.9616 31.6539 26.4337 31.3665C27.378 30.7916 28.302 30.091 29.1735 29.4657C30.0448 28.8402 30.9061 28.1521 31.8503 27.5772C32.3224 27.2897 32.6915 26.7633 33.3295 26.7025C33.455 26.6777 33.6559 26.314 33.8241 26.1514C34.2234 25.8134 34.6955 25.5259 35.1149 25.3137C35.7126 25.0015 36.0716 24.4123 36.7421 24.1506C37.4127 23.8889 38.0631 23.5015 38.5779 23.076C39.3136 22.4125 40.3708 22.1394 41.0237 21.3627C41.2975 21.0495 41.6114 20.9876 41.9051 20.8001C42.5455 20.3499 43.216 20.0881 43.8563 19.6379C44.444 19.2629 45.0215 18.8251 45.6719 18.4377C46.6263 17.9255 47.4976 17.3002 48.4519 16.7881C49.2279 16.376 49.9938 15.9011 50.707 15.5013C52.3745 14.5894 54.0419 13.6776 55.6994 12.703C56.5808 12.1404 57.618 11.7416 58.4893 11.1162C59.1926 10.6536 59.8957 10.191 60.536 9.74082C60.6515 9.65325 60.767 9.56568 60.6112 9.40194C60.5283 9.28866 60.4128 9.37623 60.3601 9.45143C59.9081 9.86453 59.3632 10.1015 58.8811 10.3261C57.6857 10.9506 56.5833 11.7511 55.2321 12.2117C54.4988 12.4858 53.8685 12.9988 53.1553 13.3986C52.5049 13.786 51.7716 14.0601 51.1313 14.5103C50.3127 15.0605 49.411 15.4974 48.5196 15.9971C47.5753 16.5719 46.6513 17.2725 45.6241 17.7342C45.142 17.9588 44.6799 18.309 44.145 18.6089C43.6101 18.9087 43.0651 19.1457 42.6131 19.5588C41.9828 20.0719 41.2696 20.4716 40.6192 20.859C39.6123 21.4463 38.6254 22.1593 37.6284 22.8094C36.5159 23.547 35.4764 24.3351 34.2911 25.0224C33.4623 25.5097 32.7793 26.098 32.0235 26.6357C31.152 27.2611 30.1777 27.6475 29.4721 28.4995C29.1984 28.8127 28.7062 28.9744 28.2868 29.1867C27.5209 29.6616 26.7751 30.2623 26.0092 30.7372C24.6656 31.65 23.2594 32.5752 21.9361 33.6137C21.1902 34.2143 20.2686 34.5255 19.5956 35.1766C18.5761 36.0904 17.3606 36.5891 16.3311 37.4401C15.8163 37.8656 15.2713 38.1026 14.8193 38.5157C14.6511 38.6785 14.6612 38.7412 14.7441 38.8545C14.827 38.9679 14.8998 39.0183 15.0153 38.9307C15.6231 38.6814 16.0952 38.3939 16.6502 38.2197Z" fill="#C8C8CD"/>
<path d="M18.0427 31.1395C17.7388 31.2641 17.8217 31.3774 17.9147 31.5535C18.0906 31.8429 18.299 31.9315 18.5828 31.6811C18.751 31.5183 18.9294 31.4184 18.7636 31.1918C18.545 31.0405 18.3164 30.8263 18.0427 31.1395Z" fill="#C8C8CD"/>
<path d="M41.7266 19.2792C41.6864 19.0278 41.8973 18.727 41.5633 18.6632C41.4277 18.6251 41.1237 18.7498 41.1439 18.8755C41.1841 19.1268 41.498 19.0649 41.7266 19.2792Z" fill="#C8C8CD"/>
<path d="M59.453 4.18662C59.2671 3.83439 58.9004 3.97145 58.7121 4.00856C57.0168 4.34259 55.3341 4.35011 53.7017 4.67176C52.5716 4.89445 51.4313 5.0543 50.2911 5.21416C49.2865 5.4121 48.2719 5.54722 47.2673 5.74516C46.7022 5.8565 46.0417 6.18106 45.5193 6.15438C44.4745 6.10101 43.5001 6.48743 42.4855 6.62255C41.4081 6.77003 40.2879 7.05555 39.2206 7.26586C38.4044 7.42669 37.5455 7.72553 36.7091 7.76071C36.3751 7.69692 35.9984 7.77114 35.6418 7.97102C35.2852 8.1709 34.8356 8.19467 34.4489 8.20607C33.497 8.32882 32.5854 8.70287 31.6336 8.82562C30.5461 8.91028 29.5189 9.3719 28.3888 9.59458C27.3214 9.80489 26.2113 10.1533 25.0812 10.3759C24.3905 10.512 23.6572 10.7861 22.9465 10.7965C22.8109 10.7584 22.6226 10.7956 22.5271 11.0088C22.4317 11.222 22.3263 11.3725 22.7131 11.361C23.685 11.364 24.647 11.304 25.5686 10.9927C25.998 10.8434 26.4376 10.7567 26.8142 10.6826C28.1529 10.5484 29.3784 10.1125 30.6241 9.80223C31.4931 9.5662 32.3922 9.51866 33.3239 9.27026C34.2456 8.95904 35.2176 8.96195 36.1493 8.71355C37.0911 8.52798 38.0329 8.34241 38.9646 8.09401C39.7708 7.87036 40.5971 7.77236 41.4761 7.59916C42.345 7.36314 43.2969 7.24039 44.1759 7.06719C45.1805 6.86925 46.1951 6.73414 47.1997 6.5362C48.3298 6.31351 49.47 6.15365 50.5801 5.80531C51.1351 5.63114 51.783 5.63309 52.4109 5.50938C53.6038 5.27432 54.8169 5.16492 56.0827 4.98032C57.0346 4.85758 58.019 4.53398 58.9809 4.47406C59.0964 4.3865 59.2646 4.22373 59.453 4.18662Z" fill="#C8C8CD"/>
<path d="M21.1528 11.7327C21.1955 11.5947 21.4467 11.5452 21.2282 11.3938C21.0825 11.2929 20.9593 10.9283 20.6127 11.1911C20.4972 11.2786 20.2562 11.3909 20.4848 11.6051C20.7033 11.7565 20.9645 11.7698 21.1528 11.7327Z" fill="#C8C8CD"/>
<path d="M33.9231 38.8997C33.8503 38.8492 33.9557 38.6988 33.7473 38.6103C32.4537 38.2171 31.1703 37.8867 29.8566 37.3678C29.5125 37.2412 29.1056 37.1269 28.7614 37.0003C28.563 36.9746 28.3747 37.0117 28.322 37.0869C28.2165 37.2373 28.425 37.3259 28.6335 37.4144C29.3317 37.7304 30.0827 37.9714 30.8136 38.0866C31.6802 38.2399 32.4187 38.8072 33.3278 38.8225C33.5363 38.9111 33.7348 38.9368 33.9231 38.8997Z" fill="#C8C8CD"/>
<path d="M39.4949 32.0336C39.5199 31.3806 39.1556 31.1283 38.7813 30.8132C38.6256 30.6495 38.3543 30.5733 38.1232 30.7485C38.0078 30.836 37.9023 30.9864 37.7867 31.074C37.9425 31.2377 38.0983 31.4015 38.3067 31.49C38.7765 31.5919 39.1733 31.6433 39.4949 32.0336Z" fill="#C8C8CD"/>
<path d="M35.2076 35.6008C35.3508 36.0911 35.843 35.9293 36.0213 35.8293C36.3252 35.7046 35.951 35.3895 36.0362 35.1135C35.7022 35.0496 35.4434 34.647 35.1497 34.8345C34.8031 35.0972 34.979 35.3866 35.2076 35.6008Z" fill="#C8C8CD"/>
</g>
</g>
</g>
<g clip-path="url(#clip3_1214_2913)">
<g clip-path="url(#clip4_1214_2913)">
<g clip-path="url(#clip5_1214_2913)">
<path d="M957.507 168.628C959.646 169.194 961.661 169.829 963.73 170.269C964.569 170.432 965.356 170.789 966.131 170.954C966.648 171.064 966.999 171.627 967.225 172.258C967.614 173.522 968.315 174.647 968.888 175.777C969.03 176.028 968.916 176.287 969.058 176.537C969.748 177.472 969.747 178.621 970.122 179.63C970.5 180.702 970.943 181.773 971.13 182.852C971.303 183.676 971.664 184.43 971.773 185.256C971.872 185.891 971.695 186.153 971.046 185.983C970.076 185.76 968.985 185.67 968.128 185.188C967.469 184.827 966.75 184.532 966.035 184.301C965.057 183.951 964.08 183.601 963.166 183.249C962.121 182.837 961.016 182.492 959.968 182.016C959.249 181.722 958.466 181.429 957.691 181.264C957.173 181.153 956.77 180.784 956.253 180.674C955.605 180.504 955.243 180.899 954.874 181.167C954.754 181.299 954.573 181.497 954.449 181.565C953.758 181.78 953.343 182.368 952.79 182.77C952.422 183.038 951.99 183.308 951.621 183.576C950.82 184.114 949.962 184.781 949.161 185.319C948.609 185.721 948.123 186.184 947.436 186.463C946.809 186.675 946.263 187.205 945.841 187.666C945.235 188.261 944.477 188.414 943.804 187.799C943.269 187.37 942.795 186.875 942.264 186.51C941.534 186.024 940.868 185.536 940.139 185.05C939.473 184.561 938.801 183.946 938.138 183.521C937.476 183.097 936.871 182.543 936.272 182.116C935.741 181.751 935.331 181.254 934.743 181.018C933.825 180.603 933.27 179.791 932.476 179.307C931.882 178.945 931.407 178.45 930.936 178.019C930.398 177.526 929.796 177.036 929.198 176.609C928.667 176.244 928.256 175.747 927.725 175.382C926.992 174.832 926.263 174.346 925.59 173.731C924.715 172.93 923.727 172.389 922.916 171.586C922.375 171.03 921.592 170.738 921.05 170.181C920.303 169.376 919.379 168.833 918.568 168.031C917.623 167.105 916.621 166.309 915.616 165.449C915.414 165.264 915.272 165.014 915.07 164.829C914.065 163.969 912.825 163.5 911.706 162.9C910.194 162.121 908.682 161.342 907.173 160.627C906.451 160.268 905.665 159.912 904.946 159.617C904.421 159.379 903.826 159.016 903.302 158.779C902.321 158.365 901.518 157.69 900.537 157.276C900.012 157.039 899.609 156.669 899.205 156.3C898.6 155.746 898.763 155.229 899.507 154.821C900.067 154.547 900.705 154.525 901.272 154.378C902.281 154.153 903.305 154.182 904.248 153.895C905.002 153.678 905.842 153.841 906.586 153.432C907.146 153.158 907.982 153.257 908.676 153.106C909.622 152.883 910.582 152.914 911.468 152.756C913.367 152.437 915.354 152.561 917.249 152.178C917.501 152.105 917.763 152.224 918.015 152.152C919.159 152.049 920.296 151.819 921.38 151.783C922.911 151.731 924.448 151.806 925.971 151.627C926.354 151.614 926.687 151.858 927.126 151.716C927.502 151.575 928.019 151.686 928.401 151.673C929.744 151.691 931.012 151.52 932.355 151.539C933.056 151.515 933.828 151.617 934.58 151.336C935.022 151.257 935.657 151.172 936.117 151.412C936.379 151.53 936.556 151.269 936.875 151.258C937.704 151.23 938.604 151.327 939.426 151.172C940.754 150.935 941.987 151.277 943.259 151.17C943.641 151.157 944.031 151.272 944.474 151.193C946.125 151.009 947.86 151.206 949.518 151.15C950.283 151.124 951.116 151.159 951.881 151.134C952.072 151.127 952.331 151.182 952.455 151.114C953.072 150.71 953.415 151.146 953.755 151.517C954.64 152.509 955.461 153.502 956.403 154.364C957.277 155.165 958.024 155.969 958.775 156.838C959.249 157.333 959.897 157.502 960.188 158.131C960.474 158.696 961.186 158.863 961.597 159.36C961.937 159.732 962.404 160.099 962.62 160.539C962.832 160.914 963.215 160.901 963.484 161.148C963.756 161.458 963.965 161.77 964.238 162.08C964.716 162.638 965.311 163.001 965.664 163.628C965.948 164.129 965.958 164.32 965.465 164.656C964.541 165.262 963.474 165.617 962.542 166.096C961.238 166.778 959.856 167.208 958.623 168.016C958.251 168.22 957.875 168.361 957.507 168.628ZM900.272 155.944C901.784 156.723 903.232 157.504 904.613 158.224C905.601 158.765 906.763 158.981 907.701 159.779C907.769 159.841 907.896 159.836 908.024 159.832C908.81 160.189 909.593 160.481 910.383 160.902C910.712 161.082 911.041 161.262 911.374 161.506C911.841 161.874 912.472 161.725 912.936 162.028C913.534 162.455 914.197 162.879 914.852 163.176C917.15 164.312 919.509 165.381 921.867 166.45C922.261 166.629 922.774 166.675 923.04 166.858C923.773 167.408 924.609 167.507 925.335 167.929C926.585 168.589 928.069 168.858 929.322 169.582C929.521 169.703 929.719 169.824 929.91 169.818C930.42 169.8 930.881 170.04 931.277 170.282C932.265 170.823 933.353 170.85 934.281 171.457C935.074 171.941 936.027 171.845 936.88 172.263C937.67 172.683 938.506 172.783 939.292 173.139C939.947 173.436 940.659 173.604 941.311 173.837C942.356 174.249 943.401 174.66 944.442 175.008C944.768 175.125 945.15 175.112 945.416 175.294C946.733 176.016 948.157 176.351 949.531 176.943C950.707 177.414 951.943 177.819 953.179 178.224C954.026 178.514 954.876 178.869 955.722 179.159C956.962 179.628 958.208 180.224 959.448 180.693C960.557 181.103 961.669 181.576 962.781 182.049C963.893 182.522 965.122 182.8 966.234 183.273C967.473 183.742 968.773 184.145 970.013 184.613C970.144 184.673 970.342 184.794 970.463 184.662C970.583 184.53 970.509 184.341 970.435 184.152C970.279 183.647 969.932 183.148 969.908 182.702C969.873 182.064 969.522 181.502 969.427 180.93C969.332 180.359 968.981 179.796 968.826 179.291C968.603 178.724 968.32 178.222 968.157 177.589C967.988 176.829 967.499 176.079 967.266 175.321C967.022 174.372 966.53 173.558 966.226 172.675C966.074 172.233 965.801 171.923 965.348 171.811C964.696 171.577 963.991 171.537 963.393 171.111C963.063 170.93 962.557 171.011 962.228 170.831C961.24 170.29 960.209 170.133 959.171 169.849C958.197 169.563 957.23 169.404 956.259 169.181C955.289 168.959 954.308 168.545 953.281 168.452C952.25 168.295 951.329 167.816 950.295 167.596C948.744 167.265 947.238 166.614 945.744 166.153C944.77 165.867 943.732 165.583 942.698 165.363C942.312 165.312 942.099 164.936 941.717 164.949C940.888 164.977 940.158 164.491 939.266 164.521C938.819 164.536 938.288 164.171 937.835 164.059C937.187 163.889 936.542 163.783 935.894 163.614C934.665 163.336 933.432 162.995 932.203 162.717C931.36 162.49 930.513 162.2 929.674 162.036C929.029 161.931 928.445 161.759 927.797 161.589C927.149 161.42 926.493 161.123 925.782 160.955C924.744 160.671 923.773 160.448 922.739 160.228C921.896 160.001 920.993 159.84 920.214 159.611C919.434 159.382 918.605 159.41 917.883 159.052C917.292 158.752 916.59 158.776 915.942 158.606C915.361 158.498 914.837 158.261 914.196 158.219C913.491 158.179 912.772 157.884 912.06 157.716C910.764 157.377 909.411 157.168 908.118 156.892C906.694 156.557 905.16 156.545 903.74 156.274C902.649 156.183 901.494 156.095 900.272 155.944ZM964.396 163.798C963.989 163.365 963.709 162.928 963.309 162.622C962.304 161.762 961.419 160.771 960.473 159.845C959.797 159.166 959.057 158.488 958.381 157.809C957.772 157.191 957.287 156.505 956.746 155.949C955.662 154.836 954.643 153.722 953.559 152.609C952.95 151.991 952.44 152.008 951.739 152.032C951.037 152.056 950.333 152.016 949.635 152.103C948.869 152.129 948.101 152.091 947.332 152.054C946.627 152.014 945.933 152.165 945.228 152.125C944.523 152.085 943.754 152.047 943.053 152.071C940.885 152.144 938.713 152.154 936.549 152.291C935.404 152.393 934.189 152.371 933.042 152.409C931.958 152.446 930.937 152.481 929.853 152.517C928.323 152.569 926.87 152.874 925.329 152.734C924.752 152.69 924.192 152.964 923.547 152.858C923.161 152.808 922.782 152.884 922.403 152.961C921.769 153.046 921.124 152.94 920.55 152.96C919.722 152.988 918.9 153.143 918.134 153.169C916.923 153.21 915.718 153.379 914.574 153.481C913.809 153.507 913.114 153.658 912.417 153.746C911.843 153.765 911.269 153.785 910.702 153.932C909.944 154.085 909.182 154.175 908.42 154.264C907.786 154.349 907.088 154.437 906.451 154.458C905.306 154.561 904.233 154.789 903.085 154.828C902.575 154.845 902.132 154.924 901.626 155.005C902.794 155.348 903.96 155.628 905.118 155.78C906.347 156.058 907.498 156.083 908.657 156.235C909.106 156.284 909.556 156.333 910.01 156.445C911.494 156.714 912.981 157.047 914.519 157.122C916.573 157.308 918.635 157.622 920.629 157.873C922.173 158.076 923.711 158.152 925.198 158.485C926.36 158.701 927.515 158.79 928.613 159.008C930.483 159.327 932.347 159.52 934.213 159.776C936.084 160.096 937.883 160.29 939.75 160.546C940.975 160.76 942.197 160.91 943.419 161.06C944.255 161.16 945.038 161.453 945.803 161.427C946.951 161.388 948.12 161.731 949.214 161.886C950.89 162.149 952.565 162.411 954.244 162.737C956.313 163.178 958.488 163.232 960.613 163.543C961.258 163.649 961.949 163.434 962.6 163.668C963.252 163.901 963.765 163.947 964.396 163.798ZM917.217 165.522C917.843 166.459 918.707 167.068 919.447 167.745C920.254 168.484 921.189 169.219 922.057 169.892C922.991 170.626 923.802 171.429 924.794 172.034C925.587 172.518 926.327 173.195 927.063 173.808C927.803 174.486 928.724 174.965 929.464 175.643C929.868 176.012 930.332 176.315 930.799 176.683C931.596 177.23 932.389 177.714 933.001 178.396C933.408 178.829 933.936 179.13 934.4 179.434C935.264 180.043 935.887 180.916 936.928 181.264C936.928 181.264 936.932 181.327 936.999 181.389C937.604 181.943 938.334 182.429 938.936 182.92C939.538 183.41 940.26 183.769 940.802 184.325C941.414 185.007 942.264 185.361 942.941 186.04C943.348 186.473 944.063 186.705 944.47 187.138C944.877 187.571 945.055 187.309 945.299 187.11C946.033 186.51 946.759 185.783 947.497 185.248C948.422 184.642 949.141 183.787 950.137 183.307C951.441 182.624 952.465 181.504 953.762 180.694C954.01 180.558 954.386 180.418 954.489 179.967C954.11 180.044 953.848 179.925 953.525 179.872C952.941 179.7 952.35 179.401 951.705 179.295C951.124 179.187 950.479 179.081 949.888 178.782C949.226 178.358 948.447 178.129 947.724 177.77C947.133 177.471 946.424 177.367 945.773 177.134C945.447 177.017 945.174 176.707 944.852 176.654C943.623 176.377 942.514 175.967 941.339 175.496C940.294 175.085 939.245 174.609 938.204 174.261C937.358 173.971 936.504 173.553 935.654 173.198C934.609 172.787 933.625 172.309 932.58 171.898C931.535 171.486 930.437 171.268 929.389 170.793C928.539 170.439 927.629 170.15 926.775 169.732C926.251 169.494 925.731 169.321 925.27 169.081C924.941 168.9 924.672 168.654 924.282 168.539C923.694 168.304 923.106 168.069 922.518 167.833C922.061 167.657 921.601 167.417 921.144 167.241C920.493 167.008 919.898 166.645 919.246 166.412C918.594 166.178 917.936 165.817 917.217 165.522ZM962.908 164.615C962.904 164.551 962.901 164.487 962.897 164.424C962.192 164.384 961.473 164.089 960.839 164.174C960.205 164.259 959.617 164.024 959.04 163.98C957.949 163.889 956.915 163.668 955.82 163.514C954.726 163.359 953.514 163.4 952.416 163.182C951.449 163.023 950.415 162.803 949.448 162.644C948.095 162.435 946.681 162.291 945.328 162.081C944.425 161.92 943.522 161.759 942.622 161.662C941.4 161.512 940.111 161.3 938.888 161.15C937.603 161.002 936.25 160.792 934.957 160.517C933.795 160.301 932.637 160.148 931.542 159.994C931.092 159.945 930.759 159.701 930.31 159.653C929.286 159.623 928.258 159.53 927.161 159.312C925.995 159.033 924.784 159.073 923.562 158.923C922.917 158.817 922.279 158.839 921.628 158.606C921.433 158.548 921.174 158.493 921.125 158.75C921.075 159.007 921.394 158.997 921.521 158.992C922.3 159.221 923.076 159.387 923.915 159.55C925.081 159.83 926.313 160.171 927.479 160.451C928.58 160.733 929.685 161.078 930.844 161.231C931.23 161.281 931.573 161.717 932.002 161.383C932.671 161.935 933.571 162.032 934.346 162.198C935.186 162.361 936.036 162.715 936.936 162.812C938.094 162.965 939.202 163.374 940.304 163.656C941.6 163.995 942.897 164.334 944.196 164.737C945.107 165.026 946.081 165.312 946.987 165.537C947.246 165.592 947.625 165.515 947.823 165.636C948.677 166.054 949.58 166.215 950.423 166.442C951.656 166.783 952.888 167.125 954.124 167.53C954.776 167.763 955.364 167.999 956.005 168.041C957.093 168.068 957.94 167.209 958.808 166.733C959.552 166.325 960.286 165.725 961.094 165.315C961.724 165.166 962.284 164.891 962.908 164.615Z" fill="#C8C8CD"/>
<path d="M962.166 179.005C961.632 178.577 960.923 178.473 960.332 178.174C959.478 177.756 958.565 177.403 957.654 177.115C956.808 176.824 956.015 176.341 955.168 176.05C954.325 175.823 953.532 175.339 952.692 175.176C952.175 175.066 951.708 174.699 951.187 174.525C950.146 174.177 949.098 173.702 948.117 173.288C947.136 172.874 946.151 172.397 945.11 172.049C944.589 171.875 944.118 171.444 943.484 171.529C943.357 171.533 943.084 171.223 942.886 171.103C942.425 170.863 941.905 170.689 941.451 170.576C940.803 170.407 940.329 169.912 939.62 169.808C938.912 169.705 938.197 169.474 937.605 169.174C936.748 168.693 935.661 168.666 934.86 168.054C934.528 167.81 934.209 167.821 933.883 167.704C933.164 167.409 932.456 167.305 931.737 167.011C931.085 166.777 930.43 166.48 929.714 166.249C928.676 165.965 927.696 165.551 926.658 165.267C925.815 165.04 924.968 164.75 924.189 164.521C922.372 164.008 920.555 163.494 918.735 162.918C917.757 162.568 916.663 162.413 915.682 161.999C914.899 161.707 914.116 161.414 913.397 161.119C913.266 161.06 913.135 161 913.252 160.805C913.309 160.675 913.44 160.734 913.507 160.796C914.035 161.097 914.616 161.205 915.133 161.316C916.429 161.655 917.672 162.187 919.086 162.331C919.858 162.433 920.58 162.791 921.36 163.02C922.075 163.251 922.847 163.353 923.566 163.648C924.48 164 925.45 164.223 926.424 164.509C927.466 164.857 928.514 165.332 929.612 165.55C930.129 165.66 930.653 165.898 931.238 166.07C931.822 166.242 932.403 166.35 932.931 166.651C933.653 167.01 934.432 167.239 935.148 167.47C936.253 167.815 937.365 168.289 938.473 168.698C939.713 169.167 940.892 169.702 942.192 170.105C943.102 170.393 943.892 170.813 944.742 171.167C945.723 171.581 946.754 171.738 947.621 172.411C947.954 172.655 948.468 172.701 948.921 172.814C949.768 173.104 950.621 173.522 951.468 173.813C952.969 174.401 954.535 174.986 956.043 175.701C956.897 176.119 957.86 176.214 958.653 176.698C959.84 177.36 961.129 177.572 962.312 178.17C962.903 178.47 963.484 178.578 964.012 178.879C964.21 179 964.214 179.064 964.157 179.193C964.1 179.323 964.04 179.389 963.909 179.329C963.264 179.224 962.744 179.05 962.166 179.005Z" fill="#C8C8CD"/>
<path d="M959.312 172.398C959.634 172.451 959.577 172.581 959.524 172.774C959.414 173.097 959.23 173.231 958.9 173.05C958.702 172.929 958.507 172.872 958.621 172.613C958.801 172.415 958.979 172.154 959.312 172.398Z" fill="#C8C8CD"/>
<path d="M933.735 166.177C933.721 165.922 933.452 165.676 933.764 165.538C933.888 165.47 934.21 165.523 934.217 165.65C934.231 165.905 933.913 165.916 933.735 166.177Z" fill="#C8C8CD"/>
<path d="M913.277 155.442C913.383 155.055 913.77 155.106 913.961 155.099C915.683 155.041 917.323 154.666 918.981 154.61C920.129 154.572 921.273 154.469 922.417 154.366C923.437 154.332 924.454 154.234 925.474 154.199C926.048 154.18 926.76 154.347 927.263 154.202C928.27 153.913 929.3 154.07 930.317 153.971C931.398 153.871 932.549 153.896 933.633 153.859C934.462 153.831 935.362 153.928 936.184 153.773C936.495 153.635 936.878 153.622 937.267 153.736C937.657 153.851 938.1 153.772 938.479 153.695C939.432 153.599 940.399 153.758 941.352 153.662C942.429 153.498 943.527 153.716 944.675 153.677C945.759 153.64 946.914 153.729 948.061 153.69C948.763 153.666 949.535 153.768 950.229 153.617C950.353 153.549 950.545 153.542 950.683 153.729C950.821 153.916 950.955 154.039 950.576 154.116C949.63 154.339 948.681 154.499 947.717 154.404C947.267 154.356 946.821 154.371 946.439 154.384C945.106 154.556 943.821 154.408 942.542 154.388C941.646 154.354 940.76 154.512 939.8 154.481C938.836 154.385 937.89 154.609 936.93 154.578C935.974 154.61 935.017 154.642 934.057 154.611C933.225 154.575 932.4 154.667 931.507 154.697C930.611 154.664 929.658 154.76 928.765 154.79C927.745 154.825 926.728 154.923 925.708 154.957C924.56 154.996 923.416 155.099 922.261 155.01C921.683 154.966 921.053 155.115 920.415 155.136C919.204 155.177 917.999 155.346 916.727 155.453C915.774 155.549 914.747 155.456 913.798 155.616C913.667 155.556 913.468 155.435 913.277 155.442Z" fill="#C8C8CD"/>
<path d="M952.174 154.125C952.103 154 951.848 154.009 952.028 153.811C952.149 153.679 952.192 153.295 952.585 153.473C952.716 153.532 952.974 153.587 952.797 153.849C952.616 154.046 952.365 154.119 952.174 154.125Z" fill="#C8C8CD"/>
<path d="M945.489 183.593C945.55 183.527 945.415 183.404 945.599 183.27C946.776 182.592 947.956 181.978 949.125 181.172C949.434 180.97 949.806 180.766 950.114 180.564C950.302 180.494 950.493 180.487 950.56 180.549C950.695 180.672 950.511 180.806 950.326 180.94C949.713 181.407 949.033 181.813 948.346 182.092C947.534 182.439 946.935 183.161 946.053 183.383C945.869 183.517 945.681 183.587 945.489 183.593Z" fill="#C8C8CD"/>
<path d="M938.61 178.143C938.447 177.51 938.748 177.181 939.046 176.788C939.163 176.592 939.411 176.456 939.673 176.575C939.804 176.634 939.939 176.757 940.07 176.817C939.953 177.012 939.836 177.208 939.652 177.342C939.216 177.548 938.84 177.688 938.61 178.143Z" fill="#C8C8CD"/>
<path d="M943.539 180.659C943.504 181.17 942.99 181.124 942.795 181.067C942.473 181.014 942.771 180.621 942.629 180.37C942.941 180.232 943.108 179.779 943.433 179.896C943.827 180.074 943.717 180.397 943.539 180.659Z" fill="#C8C8CD"/>
</g>
</g>
</g>
<defs>
<clipPath id="clip0_1214_2913">
<rect width="80" height="64" fill="white" transform="matrix(1 0 -0.0387073 0.999251 2.47705 0)"/>
</clipPath>
<clipPath id="clip1_1214_2913">
<rect width="80" height="48" fill="white" transform="matrix(1 0 -0.0387073 0.999251 2.47705 0)"/>
</clipPath>
<clipPath id="clip2_1214_2913">
<rect width="65" height="48" fill="white" transform="matrix(1 0 -0.0387073 0.999251 9.47705 0)"/>
</clipPath>
<clipPath id="clip3_1214_2913">
<rect width="69.3959" height="49.8151" fill="white" transform="matrix(-0.97388 0.227062 0.249256 0.968438 961.061 140)"/>
</clipPath>
<clipPath id="clip4_1214_2913">
<rect width="65" height="48" fill="white" transform="matrix(-0.97388 0.227062 0.249256 0.968438 961.061 140)"/>
</clipPath>
<clipPath id="clip5_1214_2913">
<rect width="65" height="48" fill="white" transform="matrix(-0.97388 0.227062 0.249256 0.968438 961.061 140)"/>
</clipPath>
</defs>
</svg>
