<svg width="83" height="64" viewBox="0 0 83 64" fill="none" xmlns="http://www.w3.org/2000/svg">
<g clip-path="url(#clip0_101_4953)">
<g clip-path="url(#clip1_101_4953)">
<g clip-path="url(#clip2_101_4953)">
<path d="M19.2711 27.0611C17.2997 28.0976 15.464 29.1722 13.5354 30.0708C12.7493 30.42 12.0562 30.9454 11.333 31.2824C10.8508 31.507 10.6274 32.1343 10.5397 32.7997C10.4269 34.1181 9.98013 35.3727 9.65891 36.6026C9.57358 36.8787 9.73939 37.1052 9.65406 37.3813C9.17709 38.4474 9.42095 39.5658 9.26797 40.6329C9.12506 41.7629 8.91935 42.9052 8.9648 43.998C8.97 44.8395 8.77678 45.6553 8.84477 46.4845C8.88258 47.1251 9.11119 47.3392 9.70887 47.027C10.6104 46.5902 11.6577 46.2542 12.3934 45.5907C12.9609 45.0901 13.6013 44.6398 14.2517 44.2524C15.1331 43.69 16.0145 43.1274 16.8332 42.5773C17.7674 41.9395 18.7743 41.3522 19.6985 40.6516C20.3388 40.2015 21.0419 39.7388 21.7652 39.402C22.2474 39.1773 22.5637 38.7261 23.0458 38.5014C23.6435 38.1893 24.0806 38.492 24.4977 38.6691C24.6433 38.77 24.8619 38.9214 24.9975 38.9595C25.7183 39.0119 26.2483 39.4907 26.8737 39.7563C27.2907 39.9334 27.7705 40.0981 28.1874 40.2752C29.0841 40.617 30.0638 41.0721 30.9604 41.4139C31.5858 41.6795 32.1585 42.0203 32.8895 42.1355C33.5475 42.2003 34.193 42.5916 34.7029 42.9448C35.4213 43.3865 36.1949 43.3637 36.7221 42.6118C37.1541 42.073 37.5131 41.4837 37.9551 41.0078C38.5652 40.3691 39.1126 39.7428 39.7227 39.1041C40.2702 38.4778 40.7974 37.7257 41.3548 37.1622C41.9123 36.5988 42.3868 35.922 42.8815 35.3708C43.3235 34.8948 43.6196 34.3181 44.1444 33.9554C44.9531 33.3424 45.3246 32.4267 45.9976 31.7756C46.5023 31.2873 46.8613 30.6981 47.2304 30.1717C47.6522 29.57 48.1368 28.9561 48.6314 28.405C49.0734 27.9291 49.3696 27.3522 49.8116 26.8763C50.4116 26.1748 51.0218 25.5361 51.5491 24.784C52.2346 23.8065 53.0858 23.0554 53.7085 22.0902C54.1202 21.4258 54.8233 20.9633 55.2351 20.2988C55.795 19.346 56.5835 18.6074 57.2061 17.6422C57.9342 16.5265 58.7452 15.5242 59.5462 14.4591C59.7044 14.2334 59.7897 13.9574 59.9478 13.7318C60.7488 12.6666 61.8613 11.929 62.8281 11.0904C64.1413 9.9891 65.4547 8.88781 66.778 7.84934C67.4084 7.33629 68.1014 6.81087 68.7418 6.36065C69.2038 6.01037 69.7085 5.52206 70.1706 5.17179C71.0419 4.54643 71.6848 3.70687 72.5561 3.0815C73.0182 2.73123 73.3345 2.28004 73.6509 1.82884C74.1254 1.15205 73.8566 0.686552 73.0428 0.458043C72.4374 0.318075 71.8096 0.441789 71.2244 0.427476C70.1896 0.436936 69.1951 0.697704 68.2131 0.631965C67.4295 0.591939 66.6435 0.941248 65.8296 0.71274C65.2244 0.572773 64.4283 0.859255 63.7175 0.869685C62.7455 0.866774 61.8138 1.11517 60.9146 1.16271C58.9908 1.28254 57.0746 1.85453 55.1407 1.91154C54.8795 1.8982 54.6485 2.07334 54.3873 2.06C53.2471 2.21985 52.0867 2.25406 51.0194 2.46437C49.5125 2.76129 48.0258 3.18385 46.4988 3.3551C46.1221 3.42933 45.8484 3.7425 45.3888 3.70344C44.9919 3.65202 44.5098 3.87664 44.133 3.95087C42.8246 4.27349 41.5487 4.39527 40.2403 4.71789C39.5496 4.85398 38.8163 5.12809 38.0227 5.02524C37.5731 5.04901 36.9352 5.10989 36.5359 5.4478C36.3048 5.62294 36.0762 5.40875 35.7623 5.4706C34.9461 5.63143 34.0872 5.93028 33.2509 5.96545C31.9022 6.03677 30.7696 6.64879 29.5039 6.83339C29.1272 6.90762 28.7705 7.1075 28.321 7.13127C26.6684 7.32727 25.0134 7.9126 23.381 8.23426C22.6275 8.38272 21.8214 8.60637 21.0679 8.75483C20.8796 8.79194 20.6385 8.90426 20.5029 8.86617C19.8146 8.61292 19.5712 9.11457 19.3176 9.55339C18.6623 10.7195 18.0698 11.8731 17.3317 12.9259C16.6462 13.9035 16.0863 14.8564 15.5365 15.872C15.1775 16.4613 14.5798 16.7734 14.4293 17.4512C14.2687 18.0661 13.6082 18.3907 13.312 18.9675C13.0584 19.4064 12.6792 19.8699 12.5613 20.3469C12.4333 20.7608 12.0566 20.8351 11.8457 21.1359C11.6448 21.4995 11.5068 21.8508 11.3059 22.2145C10.957 22.8665 10.4522 23.3548 10.2389 24.0449C10.0682 24.597 10.0984 24.7854 10.651 25.0007C11.6833 25.3805 12.801 25.4843 13.8132 25.7385C15.2323 26.107 16.674 26.2119 18.0504 26.7184C18.4573 26.8326 18.8542 26.8841 19.2711 27.0611ZM72.5332 1.72502C71.2199 2.82632 69.9694 3.91524 68.7716 4.92896C67.9203 5.67998 66.8304 6.15397 66.0822 7.14393C66.0294 7.21912 65.9039 7.24386 65.7783 7.2686C65.0852 7.79403 64.3821 8.25662 63.699 8.84487C63.4153 9.09521 63.1315 9.34555 62.8579 9.65871C62.4788 10.1222 61.8307 10.1203 61.4415 10.521C60.9469 11.0722 60.3894 11.6357 59.8119 12.0736C57.8056 13.7002 55.7263 15.2766 53.647 16.8528C53.3005 17.1155 52.8083 17.2773 52.5873 17.5153C51.9872 18.2168 51.1911 18.5032 50.5709 19.0791C49.4886 20.0053 48.0948 20.604 47.0226 21.5929C46.8543 21.7557 46.6861 21.9185 46.4978 21.9557C45.9954 22.0546 45.5961 22.3925 45.2597 22.7181C44.4084 23.469 43.3512 23.7422 42.5727 24.5437C41.8998 25.1947 40.9479 25.3174 40.2021 25.9181C39.5191 26.5063 38.723 26.7928 38.0299 27.3182C37.4524 27.7561 36.7919 28.0807 36.2043 28.4557C35.2701 29.0934 34.336 29.7311 33.3917 30.3061C33.0979 30.4935 32.7212 30.5678 32.5003 30.8057C31.3653 31.8072 30.0443 32.4563 28.8264 33.3443C27.7767 34.0696 26.6542 34.7445 25.5316 35.4194C24.7657 35.8943 24.0099 36.4321 23.244 36.907C22.1315 37.6447 21.0392 38.508 19.9267 39.2457C18.9297 39.8958 17.9429 40.6088 16.956 41.3216C15.9691 42.0346 14.8265 42.5838 13.8396 43.2967C12.7271 44.0344 11.5418 44.7216 10.4293 45.4593C10.3138 45.5469 10.1456 45.7096 9.9999 45.6087C9.85421 45.5078 9.88682 45.3069 9.91942 45.1061C9.96451 44.5788 10.198 44.0143 10.1276 43.5744C10.027 42.9462 10.2504 42.3189 10.2226 41.7411C10.1949 41.1632 10.4182 40.5359 10.4633 40.0086C10.5612 39.4061 10.7318 38.854 10.7568 38.2009C10.7617 37.4223 11.0805 36.5817 11.1481 35.7907C11.1856 34.8111 11.4943 33.9078 11.6046 32.9788C11.6597 32.5142 11.8606 32.1506 12.28 31.9384C12.8676 31.5633 13.5482 31.3644 14.0428 30.8132C14.3266 30.5629 14.8389 30.5268 15.1227 30.2764C15.974 29.5254 16.9484 29.139 17.9026 28.6269C18.7941 28.1272 19.7057 27.7532 20.6073 27.3163C21.5088 26.8794 22.3803 26.254 23.3647 25.9305C24.3391 25.5441 25.1377 24.8682 26.1019 24.419C27.5485 23.7451 28.8818 22.7694 30.2455 21.9823C31.137 21.4826 32.0912 20.9705 33.0556 20.5212C33.4222 20.3842 33.5503 19.9701 33.927 19.8959C34.7432 19.735 35.3533 19.0964 36.2323 18.9231C36.6719 18.8366 37.1138 18.3606 37.5332 18.1484C38.1308 17.8361 38.7386 17.5868 39.3363 17.2747C40.479 16.7254 41.6115 16.1134 42.7542 15.5642C43.5301 15.1521 44.2961 14.6771 45.0822 14.3278C45.6898 14.0785 46.2247 13.7786 46.8224 13.4664C47.4201 13.1543 47.9977 12.7164 48.6581 12.3918C49.6125 11.8797 50.514 11.4428 51.4783 10.9936C52.2543 10.5815 53.1032 10.2198 53.8164 9.82001C54.5295 9.42025 55.3458 9.25942 55.9761 8.74638C56.4908 8.3209 57.1815 8.18481 57.7791 7.87261C58.3241 7.63562 58.7861 7.28534 59.404 7.0988C60.0846 6.89989 60.7249 6.44967 61.3854 6.1251C62.5807 5.50071 63.859 4.9896 65.0644 4.42803C66.3854 3.7789 67.8822 3.41917 69.2131 2.83286C70.2604 2.49689 71.3704 2.14855 72.5332 1.72502ZM11.5148 23.9231C11.8211 23.4091 12.0018 22.9198 12.3282 22.5314C13.1291 21.4663 13.7844 20.3002 14.5125 19.1846C15.0297 18.3698 15.6097 17.5427 16.1269 16.7279C16.5914 15.9882 16.9203 15.2105 17.332 14.5461C18.1555 13.2173 18.9162 11.9008 19.7397 10.572C20.2042 9.83235 20.7065 9.73338 21.3972 9.5973C22.0878 9.46121 22.7684 9.2623 23.4691 9.18905C24.2226 9.04059 24.9659 8.82931 25.7093 8.61802C26.3898 8.4191 27.1006 8.40868 27.7812 8.20977C28.4618 8.01086 29.2052 7.79957 29.8958 7.66349C32.0306 7.24286 34.1552 6.75941 36.3 6.4016C37.4403 6.24176 38.6231 5.94387 39.7532 5.72119C40.8206 5.51087 41.8253 5.31293 42.8926 5.10262C44.3994 4.80571 45.8838 4.77248 47.3605 4.28708C47.9154 4.11291 48.5208 4.25288 49.1286 4.00351C49.4952 3.86646 49.8819 3.85505 50.2688 3.84365C50.9066 3.78277 51.5144 3.53341 52.0795 3.42206C52.8957 3.26123 53.732 3.22606 54.4854 3.07761C55.6784 2.84255 56.8915 2.73315 58.0317 2.5733C58.7851 2.42484 59.4959 2.4144 60.1966 2.34115C60.7617 2.2298 61.3267 2.11847 61.9119 2.13278C62.6855 2.10997 63.4489 2.02435 64.2125 1.93872C64.8504 1.87784 65.5512 1.80457 66.1789 1.68087C67.3191 1.52101 68.4167 1.49917 69.5469 1.27649C70.0491 1.17752 70.4988 1.15375 71.0111 1.11761C69.9412 1.71725 68.8614 2.25408 67.7614 2.66524C66.6188 3.21444 65.4987 3.49994 64.3988 3.91111C63.9693 4.06053 63.5399 4.20996 63.1205 4.42222C61.7267 5.02089 60.3429 5.68239 58.8563 6.10497C56.8873 6.75215 54.9385 7.525 53.0424 8.22265C51.5758 8.77087 50.089 9.19343 48.7053 9.85495C47.6154 10.329 46.5054 10.6773 45.4783 11.1389C43.7178 11.8746 41.9372 12.4847 40.1668 13.1576C38.4063 13.8933 36.6885 14.491 34.9181 15.1639C33.7653 15.6503 32.6026 16.0739 31.4398 16.4973C30.6437 16.7838 29.9406 17.2465 29.1871 17.3949C28.057 17.6176 26.9872 18.2173 25.95 18.6161C24.3679 19.2519 22.7858 19.8876 21.2136 20.5863C19.285 21.4847 17.1704 22.031 15.1588 22.8162C14.551 23.0656 13.8302 23.0133 13.2426 23.3883C12.655 23.7633 12.1627 23.9251 11.5148 23.9231ZM57.9966 14.8939C57.5825 15.9478 56.8668 16.7369 56.2869 17.564C55.6541 18.4664 54.8958 19.3936 54.1902 20.2454C53.432 21.1726 52.8093 22.1378 51.9681 22.9516C51.2952 23.6027 50.7151 24.4299 50.1251 25.1942C49.5452 26.0214 48.7466 26.6973 48.1667 27.5245C47.8503 27.9756 47.4611 28.3763 47.0819 28.8399C46.419 29.5539 45.746 30.2049 45.2916 31.0074C44.9853 31.5214 44.5333 31.9345 44.1441 32.3352C43.4285 33.1243 43.0043 34.1152 42.0601 34.6901C42.0601 34.6901 42.0702 34.753 42.0173 34.8282C41.5428 35.505 40.9327 36.1436 40.4481 36.7577C39.9635 37.3716 39.3331 37.8846 38.9214 38.549C38.467 39.3515 37.7112 39.8893 37.1939 40.7041C36.8876 41.2181 36.2372 41.6055 35.9309 42.1195C35.6247 42.6335 35.3961 42.4193 35.1148 42.2803C34.2707 41.8633 33.4066 41.3207 32.5728 40.9666C31.5404 40.5867 30.6562 39.9184 29.5812 39.6766C28.1621 39.308 26.9237 38.4503 25.4845 37.9562C25.2132 37.88 24.8164 37.8285 24.6204 37.4136C25.0072 37.4022 25.2382 37.227 25.542 37.1023C26.077 36.8025 26.5917 36.377 27.1995 36.1276C27.7445 35.8906 28.3522 35.6413 28.8669 35.2158C29.4244 34.6523 30.1376 34.2525 30.7679 33.7395C31.2827 33.314 31.9532 33.0522 32.5409 32.6772C32.8346 32.4898 33.0355 32.1261 33.3393 32.0014C34.482 31.4522 35.479 30.8021 36.5286 30.0769C37.4628 29.439 38.3869 28.7386 39.3311 28.1636C40.097 27.6887 40.8429 27.088 41.5987 26.5502C42.5329 25.9125 43.3942 25.2243 44.3284 24.5866C45.2625 23.9489 46.2896 23.4872 47.2137 22.7867C47.9696 22.2489 48.7983 21.7616 49.5441 21.1609C50.0061 20.8107 50.4783 20.5232 50.8775 20.1853C51.1612 19.935 51.3722 19.6342 51.7287 19.4342C52.2536 19.0716 52.7784 18.709 53.3033 18.3464C53.7126 18.0713 54.1118 17.7333 54.5212 17.4582C55.1088 17.0832 55.6135 16.595 56.2012 16.22C56.7888 15.8449 57.3563 15.3442 57.9966 14.8939ZM13.1423 24.3801C13.1323 24.3173 13.1222 24.2545 13.1122 24.1917C13.7927 23.9927 14.4331 23.5426 15.071 23.4816C15.7089 23.4208 16.2338 23.0581 16.7888 22.884C17.836 22.548 18.8004 22.0987 19.8376 21.6999C20.8747 21.3011 22.0676 21.066 23.0948 20.6045C24.0064 20.2303 24.9708 19.7812 25.8824 19.4071C27.1607 18.8959 28.5117 18.4353 29.79 17.9242C30.6388 17.5625 31.4877 17.2008 32.3465 16.902C33.5093 16.4785 34.7249 15.9797 35.8876 15.5562C37.1131 15.1203 38.3913 14.6092 39.5968 14.0476C40.6868 13.5736 41.7867 13.1624 42.8239 12.7636C43.2533 12.6143 43.5271 12.3011 43.9564 12.1516C44.9509 11.8909 45.9355 11.5672 46.9626 11.1057C48.0425 10.5689 49.2354 10.3338 50.3982 9.91025C51.0058 9.66088 51.6337 9.53716 52.2213 9.16215C52.3996 9.0622 52.6408 8.94989 52.7437 9.18883C52.8468 9.42777 52.5329 9.48962 52.4073 9.51437C51.6941 9.91413 50.9709 10.251 50.1848 10.6004C49.1049 11.1372 47.9723 11.7492 46.8925 12.286C45.8754 12.8105 44.8685 13.3978 43.7684 13.809C43.4018 13.946 43.1583 14.4477 42.6685 14.2201C42.1311 14.9092 41.2722 15.2081 40.549 15.5451C39.763 15.8944 39.0071 16.4322 38.1483 16.731C37.0482 17.1422 36.0513 17.7923 35.0342 18.3167C33.8388 18.9411 32.6436 19.5655 31.4582 20.2527C30.6295 20.7401 29.738 21.2398 28.8993 21.6643C28.6581 21.7766 28.2714 21.788 28.1032 21.9508C27.3573 22.5514 26.5085 22.913 25.7325 23.3252C24.5999 23.9372 23.4674 24.5492 22.3449 25.2241C21.7572 25.5991 21.2324 25.9617 20.6146 26.1483C19.5573 26.4214 18.5475 25.7779 17.5981 25.5113C16.7843 25.2828 15.9403 24.8658 15.0637 24.6496C14.4158 24.6477 13.8104 24.5077 13.1423 24.3801Z" fill="#C8C8CD"/>
<path d="M16.9118 38.2197C17.3437 37.6809 18.0142 37.4192 18.5289 36.9937C19.2748 36.3931 20.0934 35.843 20.9221 35.3557C21.6881 34.8806 22.361 34.2296 23.1269 33.7547C23.9029 33.3425 24.5759 32.6915 25.3619 32.3421C25.8441 32.1175 26.2232 31.6539 26.6953 31.3665C27.6396 30.7916 28.5636 30.091 29.435 29.4657C30.3064 28.8402 31.1677 28.1521 32.1119 27.5772C32.584 27.2897 32.9531 26.7633 33.5911 26.7025C33.7166 26.6777 33.9175 26.314 34.0857 26.1514C34.485 25.8134 34.9571 25.5259 35.3765 25.3137C35.9742 25.0015 36.3332 24.4123 37.0037 24.1506C37.6743 23.8889 38.3247 23.5015 38.8395 23.076C39.5752 22.4125 40.6324 22.1394 41.2853 21.3627C41.5591 21.0495 41.873 20.9876 42.1667 20.8001C42.8071 20.3499 43.4776 20.0881 44.1179 19.6379C44.7056 19.2629 45.2831 18.8251 45.9335 18.4377C46.8879 17.9255 47.7592 17.3002 48.7135 16.7881C49.4895 16.376 50.2554 15.9011 50.9686 15.5013C52.6361 14.5894 54.3035 13.6776 55.961 12.703C56.8424 12.1404 57.8796 11.7416 58.7509 11.1162C59.4542 10.6536 60.1573 10.191 60.7976 9.74082C60.9131 9.65325 61.0286 9.56568 60.8728 9.40194C60.7899 9.28866 60.6744 9.37623 60.6217 9.45143C60.1697 9.86453 59.6247 10.1015 59.1426 10.3261C57.9473 10.9506 56.8449 11.7511 55.4937 12.2117C54.7604 12.4858 54.1301 12.9988 53.4169 13.3986C52.7665 13.786 52.0332 14.0601 51.3929 14.5103C50.5743 15.0605 49.6726 15.4974 48.7812 15.9971C47.8369 16.572 46.9129 17.2725 45.8857 17.7342C45.4036 17.9588 44.9415 18.309 44.4066 18.6089C43.8717 18.9087 43.3267 19.1457 42.8747 19.5588C42.2444 20.0719 41.5312 20.4716 40.8808 20.859C39.8739 21.4463 38.887 22.1593 37.89 22.8094C36.7775 23.547 35.738 24.3351 34.5527 25.0224C33.7239 25.5097 33.0409 26.098 32.2851 26.6357C31.4136 27.2611 30.4393 27.6475 29.7337 28.4995C29.46 28.8127 28.9678 28.9744 28.5484 29.1867C27.7825 29.6616 27.0367 30.2623 26.2708 30.7372C24.9272 31.65 23.521 32.5752 22.1977 33.6137C21.4518 34.2143 20.5302 34.5255 19.8572 35.1766C18.8377 36.0904 17.6222 36.5891 16.5927 37.4401C16.0779 37.8656 15.5329 38.1026 15.0809 38.5157C14.9127 38.6785 14.9228 38.7412 15.0057 38.8545C15.0886 38.9679 15.1614 39.0183 15.2769 38.9307C15.8847 38.6814 16.3568 38.3939 16.9118 38.2197Z" fill="#C8C8CD"/>
<path d="M18.3043 31.1395C18.0004 31.2641 18.0833 31.3774 18.1763 31.5535C18.3522 31.8429 18.5606 31.9315 18.8444 31.6811C19.0126 31.5183 19.191 31.4184 19.0252 31.1918C18.8066 31.0405 18.578 30.8263 18.3043 31.1395Z" fill="#C8C8CD"/>
<path d="M41.9882 19.2792C41.948 19.0278 42.1589 18.727 41.8249 18.6632C41.6893 18.6251 41.3853 18.7498 41.4055 18.8755C41.4457 19.1268 41.7596 19.0649 41.9882 19.2792Z" fill="#C8C8CD"/>
<path d="M59.7143 4.18662C59.5284 3.83439 59.1617 3.97145 58.9734 4.00856C57.2781 4.34259 55.5954 4.35011 53.963 4.67176C52.8328 4.89445 51.6926 5.0543 50.5524 5.21416C49.5478 5.4121 48.5332 5.54722 47.5286 5.74516C46.9635 5.8565 46.303 6.18106 45.7806 6.15438C44.7358 6.10101 43.7614 6.48743 42.7468 6.62255C41.6694 6.77003 40.5492 7.05555 39.4819 7.26586C38.6657 7.42669 37.8068 7.72553 36.9704 7.76071C36.6364 7.69692 36.2597 7.77114 35.9031 7.97102C35.5465 8.1709 35.0969 8.19467 34.7102 8.20607C33.7583 8.32882 32.8467 8.70287 31.8949 8.82562C30.8074 8.91028 29.7802 9.3719 28.6501 9.59458C27.5827 9.80489 26.4726 10.1533 25.3425 10.3759C24.6518 10.512 23.9185 10.7861 23.2078 10.7965C23.0722 10.7584 22.8839 10.7956 22.7884 11.0088C22.693 11.222 22.5876 11.3725 22.9744 11.361C23.9463 11.364 24.9083 11.304 25.8299 10.9927C26.2593 10.8434 26.6989 10.7567 27.0755 10.6826C28.4142 10.5484 29.6397 10.1125 30.8854 9.80223C31.7544 9.5662 32.6535 9.51866 33.5852 9.27026C34.5069 8.95904 35.4789 8.96195 36.4106 8.71355C37.3524 8.52798 38.2942 8.34241 39.2259 8.09401C40.0321 7.87036 40.8584 7.77236 41.7374 7.59916C42.6063 7.36314 43.5582 7.24039 44.4372 7.06719C45.4417 6.86925 46.4564 6.73414 47.4609 6.5362C48.5911 6.31351 49.7313 6.15365 50.8414 5.80531C51.3964 5.63114 52.0443 5.63309 52.6722 5.50938C53.8651 5.27432 55.0782 5.16492 56.344 4.98032C57.2959 4.85758 58.2803 4.53398 59.2422 4.47406C59.3577 4.3865 59.5259 4.22373 59.7143 4.18662Z" fill="#C8C8CD"/>
<path d="M21.4144 11.7327C21.4571 11.5947 21.7083 11.5452 21.4898 11.3938C21.3441 11.2929 21.2209 10.9283 20.8743 11.1911C20.7588 11.2786 20.5178 11.3909 20.7464 11.6051C20.9649 11.7565 21.2261 11.7698 21.4144 11.7327Z" fill="#C8C8CD"/>
<path d="M34.1847 38.8997C34.1119 38.8492 34.2173 38.6988 34.0089 38.6103C32.7153 38.2171 31.4319 37.8867 30.1182 37.3678C29.7741 37.2412 29.3672 37.1269 29.023 37.0003C28.8246 36.9746 28.6363 37.0117 28.5836 37.0869C28.4781 37.2373 28.6866 37.3259 28.8951 37.4144C29.5933 37.7304 30.3443 37.9714 31.0752 38.0866C31.9418 38.2399 32.6803 38.8072 33.5894 38.8225C33.7979 38.9111 33.9964 38.9368 34.1847 38.8997Z" fill="#C8C8CD"/>
<path d="M39.7565 32.0336C39.7815 31.3806 39.4172 31.1283 39.0429 30.8132C38.8872 30.6495 38.6159 30.5733 38.3848 30.7485C38.2694 30.836 38.1639 30.9864 38.0483 31.074C38.2041 31.2377 38.3598 31.4015 38.5683 31.49C39.0381 31.5919 39.4349 31.6433 39.7565 32.0336Z" fill="#C8C8CD"/>
<path d="M35.4695 35.6008C35.6127 36.0911 36.105 35.9293 36.2833 35.8293C36.5872 35.7046 36.2129 35.3895 36.2982 35.1135C35.9642 35.0496 35.7054 34.647 35.4116 34.8345C35.065 35.0972 35.2409 35.3866 35.4695 35.6008Z" fill="#C8C8CD"/>
</g>
</g>
</g>
<defs>
<clipPath id="clip0_101_4953">
<rect width="80" height="64" fill="white" transform="matrix(1 0 -0.0387073 0.999251 2.73865 0)"/>
</clipPath>
<clipPath id="clip1_101_4953">
<rect width="80" height="48" fill="white" transform="matrix(1 0 -0.0387073 0.999251 2.73865 0)"/>
</clipPath>
<clipPath id="clip2_101_4953">
<rect width="65" height="48" fill="white" transform="matrix(1 0 -0.0387073 0.999251 9.73865 0)"/>
</clipPath>
</defs>
</svg>
