<svg width="22" height="20" viewBox="0 0 22 20" fill="none" xmlns="http://www.w3.org/2000/svg">
<path d="M10.83 6.49414L14 9.65414V9.49414C14 8.69849 13.6839 7.93543 13.1213 7.37282C12.5587 6.81021 11.7956 6.49414 11 6.49414H10.83ZM6.53 7.29414L8.08 8.84414C8.03 9.05414 8 9.26414 8 9.49414C8 10.2898 8.31607 11.0529 8.87868 11.6155C9.44129 12.1781 10.2044 12.4941 11 12.4941C11.22 12.4941 11.44 12.4641 11.65 12.4141L13.2 13.9641C12.53 14.2941 11.79 14.4941 11 14.4941C9.67392 14.4941 8.40215 13.9674 7.46447 13.0297C6.52678 12.092 6 10.8202 6 9.49414C6 8.70414 6.2 7.96414 6.53 7.29414ZM1 1.76414L3.28 4.04414L3.73 4.49414C2.08 5.79414 0.78 7.49414 0 9.49414C1.73 13.8841 6 16.9941 11 16.9941C12.55 16.9941 14.03 16.6941 15.38 16.1541L15.81 16.5741L18.73 19.4941L20 18.2241L2.27 0.494141M11 4.49414C12.3261 4.49414 13.5979 5.02092 14.5355 5.95861C15.4732 6.89629 16 8.16806 16 9.49414C16 10.1341 15.87 10.7541 15.64 11.3141L18.57 14.2441C20.07 12.9941 21.27 11.3541 22 9.49414C20.27 5.10414 16 1.99414 11 1.99414C9.6 1.99414 8.26 2.24414 7 2.69414L9.17 4.84414C9.74 4.62414 10.35 4.49414 11 4.49414Z" fill="#535353"/>
</svg>
