<svg width="81" height="64" viewBox="0 0 81 64" fill="none" xmlns="http://www.w3.org/2000/svg">
<g clip-path="url(#clip0_101_4965)">
<g clip-path="url(#clip1_101_4965)">
<g clip-path="url(#clip2_101_4965)">
<path d="M64.768 28.6284C66.9073 29.1944 68.9226 29.8285 70.9911 30.2693C71.8306 30.4324 72.6168 30.7888 73.3925 30.9541C73.9096 31.0643 74.26 31.6271 74.4863 32.2579C74.8753 33.5217 75.576 34.6471 76.1492 35.777C76.2908 36.0276 76.1772 36.2868 76.3188 36.5374C77.009 37.4717 77.0083 38.6209 77.3832 39.6297C77.7616 40.7023 78.2038 41.7728 78.3909 42.8518C78.564 43.6759 78.9249 44.4299 79.0343 45.2562C79.1331 45.8913 78.9558 46.1526 78.3076 45.983C77.3371 45.7605 76.2461 45.6697 75.3891 45.1879C74.7304 44.8272 74.0115 44.5323 73.296 44.3011C72.3185 43.9511 71.341 43.6011 70.4273 43.249C69.3825 42.8374 68.2775 42.4917 67.2291 42.0164C66.5102 41.7215 65.7275 41.4287 64.9518 41.2635C64.4347 41.1533 64.031 40.7839 63.514 40.6737C62.8658 40.5041 62.5042 40.8994 62.1356 41.1673C62.015 41.2991 61.8343 41.4967 61.7103 41.5648C61.0194 41.7796 60.6046 42.3683 60.0517 42.77C59.6832 43.0379 59.2508 43.3079 58.8822 43.5758C58.0813 44.1136 57.2236 44.7812 56.4227 45.319C55.8699 45.7207 55.3843 46.1841 54.6968 46.4627C54.0697 46.6755 53.5239 47.2047 53.1021 47.666C52.496 48.261 51.7378 48.4144 51.0651 47.7987C50.5304 47.3699 50.056 46.8752 49.5248 46.51C48.7954 46.024 48.1297 45.5358 47.4003 45.0497C46.7345 44.5615 46.0618 43.9457 45.3997 43.5212C44.7375 43.0968 44.1321 42.5426 43.5336 42.1159C43.0024 41.7508 42.5919 41.254 42.0039 41.0184C41.0867 40.6026 40.531 39.7914 39.7377 39.3075C39.1428 38.9445 38.6684 38.4499 38.1975 38.0189C37.6594 37.5263 37.0574 37.0359 36.459 36.6093C35.9279 36.2442 35.5172 35.7473 34.9861 35.3822C34.2532 34.8324 33.5237 34.3463 32.851 33.7306C31.9764 32.9302 30.9885 32.389 30.1777 31.5865C29.636 31.0302 28.8534 30.7375 28.3117 30.1811C27.5647 29.3765 26.6404 28.8332 25.8297 28.0306C24.8844 27.1049 23.8823 26.3088 22.8768 25.449C22.6749 25.2643 22.5334 25.0137 22.3317 24.829C21.3261 23.9691 20.0865 23.5003 18.9674 22.8998C17.4553 22.1209 15.9431 21.3421 14.4345 20.627C13.7119 20.2684 12.9257 19.912 12.2068 19.617C11.6826 19.3794 11.0877 19.0165 10.5636 18.7788C9.58261 18.3651 8.77882 17.69 7.79786 17.2763C7.2737 17.0386 6.87006 16.6692 6.46642 16.2998C5.86101 15.7457 6.0243 15.2294 6.76841 14.8211C7.32835 14.5468 7.96593 14.5252 8.53286 14.3784C9.5426 14.1527 10.5663 14.1819 11.5088 13.8946C12.2634 13.6775 13.1029 13.8407 13.8471 13.4324C14.4069 13.1581 15.2429 13.2575 15.9373 13.1063C16.8833 12.8827 17.8433 12.9141 18.729 12.7564C20.628 12.4368 22.6152 12.5611 24.5107 12.1777C24.7622 12.1054 25.0242 12.2242 25.2759 12.1518C26.4201 12.0493 27.5574 11.8193 28.6414 11.7826C30.1718 11.7308 31.7091 11.8065 33.2325 11.6272C33.615 11.6143 33.9479 11.8584 34.3872 11.7158C34.7629 11.5754 35.2799 11.6856 35.6626 11.6727C37.0051 11.6911 38.2735 11.5205 39.616 11.5389C40.3175 11.5152 41.0897 11.6167 41.8408 11.3359C42.2837 11.2571 42.9178 11.1718 43.3782 11.4116C43.6403 11.5304 43.8176 11.269 44.1364 11.2583C44.9653 11.2302 45.8651 11.3275 46.687 11.1719C48.0156 10.9355 49.2482 11.2768 50.5199 11.1699C50.9025 11.157 51.2921 11.2715 51.7349 11.1927C53.3859 11.0091 55.1215 11.2058 56.7795 11.1497C57.5447 11.1238 58.3771 11.1595 59.1423 11.1336C59.3336 11.1271 59.5921 11.1822 59.7161 11.1142C60.3328 10.7102 60.6761 11.1455 61.016 11.5171C61.901 12.5087 62.7223 13.5024 63.6641 14.3644C64.5386 15.1647 65.2856 15.9695 66.0361 16.8379C66.5105 17.3327 67.1586 17.5022 67.4488 18.1309C67.7353 18.6957 68.4473 18.8633 68.8579 19.36C69.1978 19.7317 69.6652 20.0989 69.881 20.5386C70.0933 20.9144 70.4759 20.9014 70.745 21.1477C71.0176 21.4577 71.2264 21.7699 71.499 22.08C71.9769 22.6384 72.5718 23.0013 72.9257 23.6278C73.2088 24.1289 73.2193 24.3201 72.7267 24.656C71.8017 25.2619 70.7353 25.6172 69.8033 26.0956C68.4993 26.7783 67.1175 27.2081 65.8842 28.016C65.5121 28.2201 65.1365 28.3605 64.768 28.6284ZM7.53292 15.9445C9.04514 16.7233 10.4935 17.5043 11.8746 18.2237C12.8627 18.7649 14.0245 18.9809 14.9627 19.7792C15.0301 19.8407 15.1576 19.8364 15.2851 19.8321C16.0713 20.1886 16.854 20.4813 17.6438 20.9015C17.9731 21.0819 18.3024 21.2623 18.6352 21.5064C19.1026 21.8736 19.7333 21.7246 20.1972 22.0281C20.7956 22.4548 21.4578 22.8793 22.113 23.1764C24.4113 24.3117 26.77 25.3811 29.1286 26.4505C29.5218 26.6287 30.0353 26.6752 30.301 26.8578C31.0339 27.4075 31.8699 27.5069 32.5958 27.9293C33.8459 28.5893 35.33 28.8583 36.5836 29.582C36.782 29.703 36.9802 29.824 37.1715 29.8176C37.6817 29.8003 38.1421 30.0401 38.5387 30.2821C39.5267 30.8232 40.6142 30.8503 41.542 31.4574C42.3352 31.9412 43.2882 31.8451 44.1417 32.2632C44.9314 32.6834 45.7674 32.7828 46.5535 33.1392C47.2087 33.4363 47.9207 33.6038 48.5723 33.8371C49.6172 34.2486 50.6619 34.6602 51.7032 35.0081C52.029 35.1247 52.4116 35.1118 52.6772 35.2943C53.9945 36.0159 55.4184 36.3508 56.7925 36.9427C57.9683 37.4137 59.2044 37.8188 60.4406 38.2239C61.287 38.5145 62.137 38.8688 62.9834 39.1594C64.223 39.6282 65.4696 40.2245 66.7092 40.6933C67.8178 41.1027 68.9298 41.5758 70.0418 42.0489C71.1539 42.5221 72.383 42.7997 73.495 43.2729C74.7346 43.7417 76.0344 44.1446 77.274 44.6135C77.4051 44.6728 77.6034 44.7938 77.7239 44.662C77.8444 44.5303 77.7701 44.3412 77.6958 44.1522C77.5403 43.6468 77.1934 43.1478 77.1689 42.7016C77.1338 42.0644 76.7835 41.5016 76.6882 40.9303C76.5928 40.3588 76.2425 39.796 76.0869 39.2906C75.8641 38.7235 75.581 38.2224 75.4184 37.5893C75.2488 36.829 74.7604 36.0793 74.527 35.3211C74.2831 34.3716 73.7912 33.5583 73.4871 32.6748C73.3351 32.2331 73.0625 31.923 72.6091 31.8107C71.9574 31.5774 71.2525 31.5374 70.6541 31.1106C70.3247 30.9303 69.8181 31.0113 69.4888 30.8309C68.5007 30.2897 67.47 30.133 66.4322 29.849C65.4582 29.5627 64.4913 29.4039 63.5207 29.1814C62.5502 28.9587 61.5691 28.545 60.5419 28.4521C59.5112 28.2955 58.5904 27.8158 57.5562 27.5955C56.0048 27.2649 54.4996 26.6135 53.0049 26.1534C52.0309 25.8671 50.9932 25.583 49.9589 25.3626C49.5728 25.3118 49.3605 24.9359 48.9779 24.9489C48.1489 24.9769 47.4195 24.4909 46.5268 24.521C46.0804 24.5362 45.5493 24.1711 45.0958 24.0587C44.4477 23.889 43.8031 23.7832 43.1549 23.6137C41.9258 23.3359 40.6933 22.9946 39.4642 22.717C38.6212 22.4901 37.7747 22.1995 36.9352 22.0364C36.2907 21.9305 35.7062 21.7587 35.0581 21.5892C34.4099 21.4196 33.7547 21.1225 33.0428 20.9551C32.0049 20.6709 31.0345 20.4484 30.0002 20.228C29.1573 20.0012 28.254 19.8402 27.4748 19.6112C26.6956 19.3822 25.8666 19.4102 25.1442 19.0516C24.5528 18.7524 23.8513 18.7761 23.2032 18.6065C22.6223 18.4985 22.0982 18.2608 21.457 18.2187C20.752 18.1787 20.0331 17.8838 19.3212 17.7163C18.0249 17.3771 16.6718 17.1675 15.3789 16.8921C13.955 16.5572 12.4211 16.5452 11.0009 16.274C9.90978 16.1833 8.75503 16.0947 7.53292 15.9445ZM71.6574 23.7983C71.2502 23.3652 70.9707 22.9278 70.5705 22.622C69.565 21.7623 68.6799 20.7707 67.7347 19.845C67.0585 19.1656 66.3185 18.4884 65.6423 17.809C65.0333 17.1911 64.5484 16.5052 64.0068 15.9489C62.9234 14.8364 61.9039 13.7216 60.8205 12.6091C60.2116 11.9912 59.7015 12.0085 59 12.0322C58.2987 12.0559 57.5937 12.016 56.8958 12.1034C56.1306 12.1293 55.3619 12.0915 54.5932 12.0537C53.8883 12.0136 53.1939 12.1648 52.489 12.1248C51.784 12.0849 51.0153 12.047 50.314 12.0707C48.1459 12.1441 45.9744 12.1537 43.8099 12.2908C42.6655 12.3934 41.4505 12.3707 40.3028 12.4095C39.2188 12.4462 38.1985 12.4807 37.1145 12.5174C35.5842 12.5692 34.1315 12.8737 32.5906 12.7343C32.0133 12.69 31.4533 12.9643 30.8087 12.8585C30.4226 12.8077 30.0436 12.8843 29.6644 12.961C29.0303 13.0463 28.3856 12.9404 27.8117 12.9599C26.9827 12.9879 26.1609 13.1434 25.3957 13.1693C24.1841 13.2103 22.9796 13.3788 21.8353 13.4813C21.0701 13.5072 20.3757 13.6584 19.6778 13.7459C19.1039 13.7653 18.5301 13.7847 17.9631 13.9316C17.2049 14.0849 16.4433 14.1745 15.6816 14.2642C15.0474 14.3495 14.3495 14.4369 13.7119 14.4585C12.5676 14.5611 11.4941 14.7889 10.3463 14.8278C9.83622 14.845 9.39331 14.9239 8.88674 15.0048C10.0556 15.3483 11.2208 15.6282 12.3792 15.7805C13.6082 16.0581 14.7595 16.083 15.9178 16.2354C16.3677 16.284 16.8175 16.3326 17.2709 16.445C18.755 16.714 20.2427 17.0467 21.78 17.1224C23.8345 17.3082 25.8961 17.6215 27.8903 17.8733C29.4347 18.0764 30.9721 18.1521 32.4597 18.4848C33.6215 18.7009 34.7763 18.7895 35.8743 19.0077C37.7446 19.3275 39.6078 19.5198 41.4745 19.776C43.3447 20.0956 45.1442 20.2902 47.0109 20.5462C48.2365 20.7601 49.4585 20.9104 50.6806 21.0605C51.5165 21.1599 52.2992 21.4527 53.0644 21.4267C54.2122 21.3879 55.381 21.7315 56.4755 21.886C58.1509 22.1485 59.8263 22.411 61.5054 22.7373C63.5738 23.178 65.7489 23.2321 67.8742 23.5433C68.5188 23.6492 69.2098 23.4343 69.8614 23.6676C70.5131 23.901 71.0267 23.9474 71.6574 23.7983ZM24.4779 25.5225C25.1044 26.459 25.9684 27.0682 26.7083 27.7455C27.5156 28.4843 28.4504 29.2188 29.3179 29.8917C30.2526 30.6263 31.0634 31.4288 32.055 32.0337C32.8482 32.5176 33.5882 33.1949 34.3246 33.8084C35.0645 34.4857 35.9853 34.9653 36.7253 35.6426C37.1289 36.012 37.5928 36.3155 38.0602 36.6827C38.8569 37.2304 39.6502 37.7143 40.2626 38.3959C40.6697 38.829 41.1974 39.1304 41.6613 39.4339C42.5252 40.0431 43.1482 40.9159 44.1894 41.2637C44.1894 41.2637 44.1929 41.3275 44.2603 41.3891C44.8657 41.9432 45.5951 42.4292 46.1971 42.9197C46.799 43.4101 47.5215 43.7686 48.0631 44.3249C48.6756 45.0065 49.5255 45.3609 50.2018 46.0402C50.6089 46.4734 51.3243 46.7046 51.7315 47.1377C52.1385 47.5709 52.3158 47.3094 52.5603 47.1096C53.294 46.5102 54.0207 45.7833 54.7578 45.2477C55.6828 44.6417 56.4024 43.7874 57.3981 43.3068C58.7021 42.6242 59.7265 41.5041 61.0236 40.6941C61.2716 40.558 61.6472 40.4176 61.7502 39.9673C61.3711 40.044 61.109 39.9251 60.7867 39.8721C60.2023 39.7004 59.6109 39.4012 58.9662 39.2953C58.3853 39.1872 57.7406 39.0814 57.1493 38.7822C56.487 38.3577 55.7078 38.1287 54.9854 37.7701C54.394 37.4708 53.6855 37.3671 53.0339 37.1337C52.7081 37.0171 52.4355 36.7071 52.1132 36.6541C50.8841 36.3765 49.7755 35.9671 48.5997 35.4962C47.5549 35.0845 46.5066 34.6093 45.4654 34.2614C44.6189 33.9708 43.7654 33.5528 42.9154 33.1985C41.8706 32.7869 40.8861 32.3095 39.8413 31.8979C38.7966 31.4864 37.6985 31.2681 36.6503 30.7929C35.8002 30.4386 34.89 30.1502 34.0366 29.7321C33.5124 29.4945 32.9918 29.3205 32.5313 29.0807C32.2021 28.9003 31.9329 28.6541 31.5434 28.5395C30.9555 28.304 30.3675 28.0686 29.7796 27.8331C29.3227 27.657 28.8624 27.4172 28.4055 27.2411C27.7538 27.0078 27.1589 26.6449 26.5073 26.4116C25.8556 26.1782 25.1969 25.8174 24.4779 25.5225ZM70.1691 24.6149C70.1655 24.5511 70.1621 24.4875 70.1585 24.4237C69.4536 24.3837 68.7347 24.0888 68.1005 24.1741C67.4664 24.2594 66.8785 24.0239 66.3011 23.9796C65.2101 23.8889 64.1758 23.6685 63.0812 23.514C61.9868 23.3595 60.7752 23.4004 59.6772 23.1822C58.7102 23.0234 57.6759 22.8031 56.7089 22.6442C55.3557 22.4346 53.9425 22.2909 52.5893 22.0813C51.6861 21.9203 50.7829 21.7593 49.8832 21.6621C48.6611 21.5119 47.3717 21.3002 46.1497 21.1499C44.8639 21.002 43.5108 20.7923 42.218 20.5169C41.0561 20.3008 39.8979 20.1485 38.8033 19.994C38.3535 19.9454 38.0206 19.7013 37.5708 19.6526C36.5471 19.6234 35.5197 19.5305 34.4218 19.3123C33.2564 19.0325 32.0449 19.0734 30.8228 18.9233C30.1782 18.8174 29.5405 18.839 28.8888 18.6056C28.6941 18.5484 28.4354 18.4933 28.3858 18.7504C28.336 19.0074 28.6548 18.9966 28.7823 18.9923C29.5615 19.2213 30.3372 19.3866 31.1767 19.5498C32.342 19.8295 33.5746 20.1709 34.7398 20.4507C35.8414 20.7327 36.9464 21.0784 38.1048 21.2307C38.4908 21.2814 38.8342 21.7168 39.263 21.383C39.9323 21.935 40.832 22.0322 41.6077 22.1975C42.4472 22.3607 43.2971 22.715 44.1968 22.8122C45.3552 22.9645 46.4636 23.374 47.5652 23.6559C48.8616 23.9951 50.1579 24.3344 51.4577 24.7373C52.368 25.0257 53.342 25.312 54.2487 25.5367C54.5073 25.5917 54.8864 25.5151 55.0847 25.6361C55.9382 26.0541 56.8414 26.2151 57.6844 26.442C58.917 26.7832 60.1495 27.1246 61.3856 27.5298C62.0372 27.7631 62.6252 27.9986 63.2663 28.0407C64.3538 28.0677 65.201 27.2091 66.0692 26.7328C66.8133 26.3245 67.547 25.7251 68.3549 25.3147C68.9856 25.1657 69.5454 24.8914 70.1691 24.6149Z" fill="#C8C8CD"/>
<path d="M69.4273 39.0054C68.8926 38.5765 68.1842 38.4729 67.5928 38.1736C66.7392 37.7556 65.8256 37.4035 64.9153 37.1151C64.0688 36.8244 63.2756 36.3405 62.4292 36.05C61.5862 35.8231 60.7929 35.3392 59.9535 35.176C59.4363 35.0659 58.969 34.6986 58.4483 34.5246C57.407 34.1769 56.3588 33.7015 55.3777 33.2879C54.3967 32.8741 53.4122 32.3966 52.371 32.0488C51.8503 31.8749 51.3794 31.4439 50.7452 31.5292C50.6177 31.5335 50.3451 31.2235 50.1468 31.1026C49.6864 30.8627 49.1658 30.6888 48.7124 30.5765C48.0643 30.4069 47.5899 29.9121 46.8814 29.8084C46.173 29.7048 45.4576 29.4736 44.8661 29.1744C44.0092 28.6925 42.9217 28.6655 42.1214 28.0542C41.7885 27.8101 41.4697 27.8208 41.1439 27.7041C40.425 27.4093 39.7166 27.3055 38.9976 27.0107C38.346 26.7773 37.6908 26.4803 36.9753 26.2491C35.9375 25.9649 34.9566 25.5512 33.9187 25.2671C33.0758 25.0403 32.2293 24.7497 31.4501 24.5206C29.6331 24.0076 27.8162 23.4944 25.9957 22.9176C25.0182 22.5676 23.9236 22.4131 22.9427 21.9994C22.1598 21.7066 21.3772 21.4139 20.6582 21.119C20.5272 21.0596 20.3962 21.0001 20.5132 20.8046C20.57 20.675 20.701 20.7345 20.7683 20.796C21.2959 21.0974 21.8768 21.2054 22.3939 21.3156C23.6903 21.6549 24.9334 22.1874 26.3467 22.3311C27.1189 22.4326 27.8414 22.7912 28.6206 23.0203C29.336 23.2515 30.1082 23.353 30.8271 23.6479C31.7408 24.0001 32.7114 24.2226 33.6854 24.5089C34.7267 24.8567 35.7749 25.332 36.873 25.5502C37.3901 25.6604 37.9142 25.898 38.4987 26.0699C39.0831 26.2416 39.664 26.3496 40.1917 26.651C40.9141 27.0097 41.6933 27.2386 42.4087 27.4698C43.5137 27.8155 44.6258 28.2886 45.7344 28.698C46.974 29.1668 48.1532 29.7015 49.4531 30.1045C50.3634 30.3929 51.1531 30.8132 52.003 31.1674C52.9841 31.5812 54.0148 31.7378 54.8823 32.4108C55.2151 32.6549 55.7288 32.7013 56.1822 32.8137C57.0286 33.1042 57.8821 33.5223 58.7285 33.8129C60.2303 34.4005 61.7957 34.986 63.3043 35.7011C64.1578 36.1191 65.1213 36.2142 65.9145 36.6981C67.1008 37.3603 68.3902 37.5721 69.573 38.1705C70.1644 38.4697 70.7453 38.5778 71.273 38.8791C71.4713 39.0001 71.4748 39.0638 71.418 39.1934C71.3613 39.3231 71.301 39.3889 71.17 39.3295C70.5253 39.2237 70.0047 39.0497 69.4273 39.0054Z" fill="#C8C8CD"/>
<path d="M66.5724 32.398C66.8947 32.4509 66.838 32.5805 66.7847 32.7738C66.6747 33.0968 66.4905 33.2308 66.1611 33.0503C65.9628 32.9293 65.7679 32.8721 65.8815 32.6129C66.0623 32.4152 66.2396 32.1539 66.5724 32.398Z" fill="#C8C8CD"/>
<path d="M40.9963 26.1774C40.9823 25.9225 40.7132 25.6761 41.025 25.538C41.149 25.4699 41.4714 25.5229 41.4784 25.6503C41.4924 25.9052 41.1736 25.916 40.9963 26.1774Z" fill="#C8C8CD"/>
<path d="M20.5381 15.4418C20.6446 15.0552 21.0307 15.1059 21.222 15.0995C22.9437 15.0412 24.584 14.6665 26.2419 14.6104C27.3897 14.5716 28.534 14.469 29.6783 14.3664C30.6985 14.3319 31.7152 14.2337 32.7355 14.1991C33.3094 14.1797 34.0213 14.3471 34.5244 14.2024C35.5307 13.913 36.5614 14.0697 37.5781 13.9714C38.6586 13.871 39.81 13.8959 40.894 13.8592C41.7229 13.8312 42.6226 13.9284 43.4446 13.7729C43.7564 13.6347 44.139 13.6217 44.5286 13.7362C44.9182 13.8507 45.3611 13.7719 45.7401 13.6952C46.6931 13.5991 47.6601 13.758 48.6131 13.6619C49.69 13.4977 50.7881 13.716 51.9359 13.6771C53.0199 13.6404 54.1747 13.7291 55.3225 13.6902C56.0239 13.6665 56.7961 13.768 57.4905 13.6168C57.6145 13.5488 57.8058 13.5424 57.9439 13.7292C58.0819 13.916 58.2164 14.0393 57.8373 14.1158C56.8914 14.3395 55.9419 14.4993 54.9784 14.4041C54.5286 14.3555 54.0822 14.3706 53.6997 14.3836C52.3675 14.5563 51.0818 14.4083 49.8029 14.3878C48.9067 14.3542 48.0209 14.5119 47.061 14.4805C46.0975 14.3854 45.1515 14.609 44.1915 14.5776C43.2351 14.61 42.2786 14.6424 41.3186 14.611C40.4861 14.5753 39.6607 14.6671 38.768 14.6973C37.8717 14.6638 36.9188 14.7599 36.026 14.7901C35.0058 14.8246 33.9891 14.9229 32.9688 14.9574C31.8211 14.9962 30.6768 15.0988 29.522 15.0102C28.9446 14.9659 28.314 15.1149 27.6763 15.1365C26.4648 15.1775 25.2603 15.3459 23.9884 15.4528C23.0354 15.5489 22.0082 15.4559 21.0587 15.6158C20.9277 15.5564 20.7294 15.4354 20.5381 15.4418Z" fill="#C8C8CD"/>
<path d="M59.4345 14.1253C59.3638 14 59.1087 14.0087 59.2895 13.811C59.41 13.6792 59.4527 13.2947 59.8459 13.473C59.9769 13.5324 60.2354 13.5875 60.0581 13.8488C59.8774 14.0465 59.6258 14.1189 59.4345 14.1253Z" fill="#C8C8CD"/>
<path d="M52.7505 43.5933C52.8108 43.5275 52.6762 43.4043 52.8605 43.2704C54.0371 42.5921 55.217 41.9777 56.3865 41.1719C56.6948 40.97 57.0669 40.7658 57.3753 40.5638C57.5631 40.4936 57.7543 40.4871 57.8216 40.5487C57.9561 40.6719 57.7718 40.8058 57.5875 40.9397C56.9744 41.4074 56.2941 41.8135 55.6066 42.0921C54.7952 42.4388 54.1961 43.1614 53.3139 43.3827C53.1296 43.5167 52.9418 43.5869 52.7505 43.5933Z" fill="#C8C8CD"/>
<path d="M45.8708 38.1431C45.7082 37.5101 46.0095 37.1807 46.3073 36.7876C46.4243 36.592 46.6724 36.456 46.9345 36.5748C47.0655 36.6342 47.2 36.7573 47.3311 36.8168C47.2141 37.0122 47.0971 37.2077 46.9128 37.3417C46.4769 37.5479 46.1013 37.6883 45.8708 38.1431Z" fill="#C8C8CD"/>
<path d="M50.8 40.6586C50.7644 41.1705 50.2507 41.1241 50.0559 41.0668C49.7335 41.0139 50.0313 40.6207 49.8898 40.3701C50.2016 40.2318 50.3684 39.7793 50.6942 39.896C51.0873 40.0742 50.9773 40.3971 50.8 40.6586Z" fill="#C8C8CD"/>
</g>
</g>
</g>
<defs>
<clipPath id="clip0_101_4965">
<rect width="69.3959" height="49.8151" fill="white" transform="matrix(-0.97388 0.227062 0.249256 0.968438 68.3217 0)"/>
</clipPath>
<clipPath id="clip1_101_4965">
<rect width="65" height="48" fill="white" transform="matrix(-0.97388 0.227062 0.249256 0.968438 68.3217 0)"/>
</clipPath>
<clipPath id="clip2_101_4965">
<rect width="65" height="48" fill="white" transform="matrix(-0.97388 0.227062 0.249256 0.968438 68.3217 0)"/>
</clipPath>
</defs>
</svg>
