<svg width="24" height="24" viewBox="0 0 24 24" fill="none" xmlns="http://www.w3.org/2000/svg">
<path d="M12 1C9.61305 1 7.32387 1.94821 5.63604 3.63604C3.94821 5.32387 3 7.61305 3 10C3 18 12 23 12 23C12 23 21 18 21 10C21 7.61305 20.0518 5.32387 18.364 3.63604C16.6761 1.94821 14.3869 1 12 1ZM12 14C11.2089 14 10.4355 13.7654 9.77772 13.3259C9.11992 12.8864 8.60723 12.2616 8.30448 11.5307C8.00173 10.7998 7.92252 9.99556 8.07686 9.21964C8.2312 8.44371 8.61216 7.73098 9.17157 7.17157C9.73098 6.61216 10.4437 6.2312 11.2196 6.07686C11.9956 5.92252 12.7998 6.00173 13.5307 6.30448C14.2616 6.60723 14.8864 7.11992 15.3259 7.77772C15.7654 8.43552 16 9.20887 16 10C16 11.0609 15.5786 12.0783 14.8284 12.8284C14.0783 13.5786 13.0609 14 12 14Z" fill="#88888E"/>
</svg>
