<svg width="24" height="24" viewBox="0 0 24 24" fill="none" xmlns="http://www.w3.org/2000/svg">
<path d="M15.65 21.4102C15.22 21.4102 14.79 21.3202 14.44 21.1502L9.19001 18.5202C8.89001 18.3702 8.30001 18.3802 8.01001 18.5502L5.65001 19.9002C4.63001 20.4802 3.58001 20.5602 2.79001 20.0902C1.99001 19.6302 1.54001 18.6902 1.54001 17.5102V7.79016C1.54001 6.88016 2.14001 5.85016 2.93001 5.40016L7.26001 2.92016C7.99001 2.50016 9.10001 2.47016 9.85001 2.85016L15.1 5.48016C15.4 5.63016 15.98 5.61016 16.28 5.45016L18.63 4.11016C19.65 3.53016 20.7 3.45016 21.49 3.92016C22.29 4.38016 22.74 5.32016 22.74 6.50016V16.2302C22.74 17.1402 22.14 18.1702 21.35 18.6202L17.02 21.1002C16.64 21.3002 16.14 21.4102 15.65 21.4102ZM8.64001 16.9202C9.07001 16.9202 9.50001 17.0102 9.85001 17.1802L15.1 19.8102C15.4 19.9602 15.98 19.9402 16.28 19.7802L20.61 17.3002C20.93 17.1202 21.24 16.5802 21.24 16.2202V6.49016C21.24 5.86016 21.06 5.39016 20.73 5.21016C20.41 5.03016 19.91 5.10016 19.37 5.41016L17.02 6.75016C16.29 7.17016 15.18 7.20016 14.43 6.82016L9.18001 4.19016C8.88001 4.04016 8.30001 4.06016 8.00001 4.22016L3.67001 6.70016C3.35001 6.88016 3.04001 7.42016 3.04001 7.79016V17.5202C3.04001 18.1502 3.22001 18.6202 3.54001 18.8002C3.86001 18.9902 4.36001 18.9102 4.91001 18.6002L7.26001 17.2602C7.65001 17.0302 8.15001 16.9202 8.64001 16.9202Z" fill="#8A8A8A"/>
<path d="M8.56 17.75C8.15 17.75 7.81 17.41 7.81 17V4C7.81 3.59 8.15 3.25 8.56 3.25C8.97 3.25 9.31 3.59 9.31 4V17C9.31 17.41 8.97 17.75 8.56 17.75Z" fill="#8A8A8A"/>
<path d="M15.73 20.7491C15.32 20.7491 14.98 20.4091 14.98 19.9991V6.61914C14.98 6.20914 15.32 5.86914 15.73 5.86914C16.14 5.86914 16.48 6.20914 16.48 6.61914V19.9991C16.48 20.4091 16.14 20.7491 15.73 20.7491Z" fill="#8A8A8A"/>
</svg>
