<svg width="18" height="20" viewBox="0 0 18 20" fill="none" xmlns="http://www.w3.org/2000/svg">
<path fill-rule="evenodd" clip-rule="evenodd" d="M15.412 4.25L14.611 17.867C14.5812 18.3764 14.3577 18.8551 13.9865 19.2051C13.6153 19.5552 13.1243 19.7501 12.614 19.75H5.386C4.87575 19.7501 4.38475 19.5552 4.0135 19.2051C3.64226 18.8551 3.41885 18.3764 3.389 17.867L2.59 4.25H0.5V3.25C0.5 3.11739 0.552679 2.99021 0.646447 2.89645C0.740215 2.80268 0.867392 2.75 1 2.75H17C17.1326 2.75 17.2598 2.80268 17.3536 2.89645C17.4473 2.99021 17.5 3.11739 17.5 3.25V4.25H15.412ZM7 0.25H11C11.1326 0.25 11.2598 0.302679 11.3536 0.396447C11.4473 0.490215 11.5 0.617392 11.5 0.75V1.75H6.5V0.75C6.5 0.617392 6.55268 0.490215 6.64645 0.396447C6.74021 0.302679 6.86739 0.25 7 0.25ZM6 6.75L6.5 15.75H8L7.6 6.75H6ZM10.5 6.75L10 15.75H11.5L12 6.75H10.5Z" fill="#F8F8F8"/>
</svg>
