<svg width="608" height="609" viewBox="0 0 608 609" fill="none" xmlns="http://www.w3.org/2000/svg">
<path d="M329.731 461.061H203.084V558.742H329.731V461.061Z" fill="#EBEBEB"/>
<path d="M298.005 558.06C297.835 558.06 297.689 536.282 297.689 509.42C297.689 482.559 297.835 460.78 298.005 460.78C298.175 460.78 298.321 482.559 298.321 509.42C298.321 536.282 298.175 558.06 298.005 558.06Z" fill="#E0E0E0"/>
<path d="M318.993 536.513H309.29V547.493H318.993V536.513Z" fill="#FAFAFA"/>
<path d="M256.114 461.315H241.729V482.158H256.114V461.315Z" fill="#E0E0E0"/>
<path d="M256.114 537.607H241.729V558.45H256.114V537.607Z" fill="#E0E0E0"/>
<path d="M559.542 436.569H399.845V559.738H559.542V436.569Z" fill="#EBEBEB"/>
<path d="M519.524 558.863C519.354 558.863 519.208 531.418 519.208 497.552C519.208 463.686 519.354 436.241 519.524 436.241C519.694 436.241 519.84 463.686 519.84 497.552C519.84 531.418 519.706 558.863 519.524 558.863Z" fill="#E0E0E0"/>
<path d="M545.996 531.697H533.751V545.535H545.996V531.697Z" fill="#FAFAFA"/>
<path d="M466.701 436.886H448.558V463.164H466.701V436.886Z" fill="#E0E0E0"/>
<path d="M466.701 533.084H448.558V559.362H466.701V533.084Z" fill="#E0E0E0"/>
<path d="M99.0553 440.194C105.524 436.862 113.137 436.424 120.311 437.616C124.166 438.248 128.178 439.403 130.805 442.297C133.432 445.192 133.918 450.287 130.915 452.779C129.115 454.263 126.622 454.482 124.287 454.457C118.669 454.384 112.443 453.4 107.956 456.78C105.391 458.713 103.688 461.912 100.66 462.86C97.6326 463.808 94.2886 462.021 92.7078 459.321C91.2453 456.506 90.9231 453.236 91.8079 450.189C92.166 448.078 93.0061 446.078 94.2631 444.344C95.5201 442.611 97.16 441.19 99.0553 440.194Z" fill="#EBEBEB"/>
<path d="M84.2444 411.606C88.1964 417.248 95.8815 415.388 99.4444 411.934C103.007 408.481 104.515 403.495 105.877 398.74C109.014 387.857 112.164 376.439 109.841 365.361C109.282 362.002 107.805 358.862 105.573 356.29C104.443 355.026 103.003 354.08 101.394 353.545C99.7863 353.01 98.0661 352.904 96.4044 353.238C92.5254 354.259 90.1177 358.102 88.3788 361.665C83.252 372.316 80.5682 383.977 80.5234 395.798C80.5234 401.306 81.1436 407.07 84.2444 411.606Z" fill="#EBEBEB"/>
<path d="M73.3978 419.704C77.6903 414.609 78.505 407.191 76.5959 400.807C74.6867 394.423 70.3699 389 65.3965 384.561C59.547 379.358 52.7405 375.344 45.3568 372.742C42.4951 371.586 39.417 371.063 36.3341 371.21C34.7962 371.297 33.3031 371.76 31.9848 372.557C30.6665 373.354 29.5631 374.461 28.7706 375.782C26.6548 379.807 28.6855 384.683 30.8743 388.671C34.7288 395.689 39.128 402.394 44.0314 408.723C47.9834 413.806 52.5434 418.828 58.514 421.127C64.4845 423.425 70.7834 423.157 73.9693 418.986" fill="#EBEBEB"/>
<path d="M83.9769 496.75C84.1881 495.914 84.3103 495.058 84.3417 494.196C84.5241 492.323 84.743 489.976 85.0226 487.192C85.3712 483.746 85.8948 480.321 86.5913 476.929C87.505 472.781 88.7535 468.715 90.3244 464.769C91.8652 460.849 93.9486 457.165 96.5139 453.825C98.6109 451.108 101.28 448.887 104.333 447.319C106.409 446.296 108.633 445.606 110.923 445.276C111.786 445.243 112.642 445.116 113.477 444.899C112.616 444.804 111.748 444.804 110.887 444.899C108.508 445.079 106.181 445.684 104.017 446.687C100.793 448.207 97.967 450.455 95.7599 453.253C93.0752 456.638 90.9112 460.404 89.3394 464.428C87.7704 468.421 86.5498 472.543 85.6915 476.746C85.0299 480.182 84.5711 483.654 84.3174 487.143C84.0985 490.122 84.0134 492.53 83.9769 494.196C83.8873 495.045 83.8873 495.901 83.9769 496.75Z" fill="#E0E0E0"/>
<path d="M84.4633 491.375C84.5355 490.974 84.56 490.566 84.5363 490.159C84.5363 489.259 84.5363 488.128 84.5363 486.754C84.5363 483.799 84.5363 479.519 84.6822 474.242C84.9497 463.687 85.8982 452.354 87.6128 436.314C89.2787 421.248 91.504 403.726 93.863 392.332C94.3616 389.742 94.8723 387.407 95.3587 385.364C95.8451 383.321 96.1977 381.546 96.5747 380.123C96.9516 378.7 97.1584 377.691 97.3772 376.816C97.4962 376.42 97.5656 376.012 97.584 375.6C97.4008 375.954 97.2619 376.33 97.1705 376.718C96.903 377.582 96.5747 378.652 96.1734 379.977C95.7721 381.303 95.2857 383.151 94.775 385.182C94.2643 387.212 93.6806 389.547 93.1334 392.137C90.2122 405.613 88.0162 419.235 86.5548 432.946C84.8038 448.997 84.0134 463.614 83.9404 474.193C83.9404 479.482 83.9404 483.775 84.1228 486.73C84.208 488.104 84.2809 489.235 84.3295 490.122C84.3236 490.544 84.3685 490.964 84.4633 491.375Z" fill="#E0E0E0"/>
<path d="M84.5363 463.188C84.6289 462.002 84.6289 460.81 84.5363 459.625C84.4025 457.339 84.0863 454.043 83.4419 449.994C82.6465 445.26 81.5828 440.575 80.2559 435.961C78.7224 430.283 76.759 424.731 74.3827 419.351C70.3142 409.438 64.4755 400.348 57.1519 392.526C55.8813 391.183 54.5246 389.923 53.0905 388.756C52.4703 388.221 51.8745 387.698 51.3638 387.285L49.8559 386.203C48.9096 385.48 47.905 384.838 46.8524 384.281C46.6822 384.512 51.0963 387.115 56.6655 393.036C63.7497 400.932 69.4331 409.979 73.4707 419.788C75.806 425.133 77.7764 430.63 79.3683 436.241C80.7054 440.812 81.8134 445.446 82.6879 450.128C83.4175 454.128 83.9039 457.424 84.0985 459.661C84.1505 460.846 84.2969 462.026 84.5363 463.188Z" fill="#E0E0E0"/>
<path d="M55.4009 508.618L58.222 547.323H107.944L110.765 508.618H55.4009Z" fill="#EBEBEB"/>
<path d="M116.688 493.369H50.5979V508.618H116.688V493.369Z" fill="#EBEBEB"/>
<path d="M50.5979 545.84V550.059H53.7109H115.605V545.84H50.5979Z" fill="#E0E0E0"/>
<path d="M56.7507 557.039L53.7107 549.597H113.234L109.683 557.039H56.7507Z" fill="#E0E0E0"/>
<path d="M109.841 521.264C109.779 521.394 109.702 521.517 109.61 521.629C109.416 521.884 109.16 522.212 108.868 522.613L105.974 526.261L105.841 526.432L105.719 526.261L98.6054 516.424H99.0067L92.0026 526.334L91.7837 526.651L91.5405 526.359L83.2352 516.473H83.7094L83.2595 517.056L75.8298 526.359L75.5744 526.675L75.3555 526.347L68.3392 516.436H68.7526L60.119 526.261L59.9731 526.444L59.8515 526.237L57.152 521.762C56.8602 521.276 56.6413 520.875 56.4589 520.546C56.3672 520.411 56.2936 520.263 56.24 520.109C56.3538 520.225 56.4519 520.356 56.5318 520.498L57.2979 521.653L60.1312 526.116H59.8637L68.3757 516.169L68.5824 515.913L68.777 516.181L75.8541 526.055H75.392L82.7974 516.728C82.9555 516.534 83.1136 516.339 83.2474 516.157L83.4906 515.853L83.7338 516.144L92.0147 526.055H91.5526L98.6298 516.193L98.8365 515.901L99.031 516.193C101.84 520.194 104.223 523.586 105.999 526.14H105.743L108.759 522.492C109.087 522.115 109.355 521.811 109.562 521.556C109.648 521.452 109.741 521.354 109.841 521.264Z" fill="#F5F5F5"/>
<path d="M111.459 508.363C111.459 508.533 98.9946 508.679 83.6365 508.679C68.2784 508.679 55.8145 508.533 55.8145 508.363C55.8145 508.192 68.2663 508.059 83.6365 508.059C99.0068 508.059 111.459 508.192 111.459 508.363Z" fill="#F5F5F5"/>
<path d="M460.161 69.5699L449.971 69.625L450.246 120.331L460.435 120.276L460.161 69.5699Z" fill="#E0E0E0"/>
<path d="M388.079 69.7049L361.692 69.8477L361.843 97.8396L388.23 97.6968L388.079 69.7049Z" fill="#EBEBEB"/>
<path d="M414.343 69.5623L387.956 69.7051L388.108 97.697L414.495 97.5542L414.343 69.5623Z" fill="#F5F5F5"/>
<path d="M361.724 77.5943C379.266 77.7403 396.817 77.6592 414.376 77.3511C414.451 77.3511 414.522 77.3217 414.574 77.2692C414.627 77.2168 414.656 77.1456 414.656 77.0715C414.656 76.9973 414.627 76.9262 414.574 76.8737C414.522 76.8213 414.451 76.7918 414.376 76.7918C396.842 76.6945 379.258 76.7918 361.724 77.1201C361.67 77.1324 361.622 77.1625 361.587 77.2056C361.553 77.2486 361.534 77.3021 361.534 77.3572C361.534 77.4123 361.553 77.4658 361.587 77.5089C361.622 77.552 361.67 77.5821 361.724 77.5943Z" fill="#E0E0E0"/>
<path d="M393.189 97.2308L345.243 97.4902L345.366 120.302L393.313 120.043L393.189 97.2308Z" fill="#EBEBEB"/>
<path d="M440.903 96.973L392.957 97.2324L393.08 120.044L441.026 119.785L440.903 96.973Z" fill="#F5F5F5"/>
<path d="M345.271 103.861C377.118 104.213 409.075 103.861 440.934 103.386C441.008 103.386 441.079 103.357 441.132 103.304C441.184 103.252 441.213 103.181 441.213 103.107C441.213 103.032 441.184 102.961 441.132 102.909C441.079 102.856 441.008 102.827 440.934 102.827C409.087 102.657 377.118 102.669 345.271 103.374C345.207 103.374 345.145 103.4 345.099 103.445C345.053 103.491 345.028 103.553 345.028 103.617C345.028 103.682 345.053 103.744 345.099 103.789C345.145 103.835 345.207 103.861 345.271 103.861Z" fill="#E0E0E0"/>
<path d="M513.091 120.324H327.335V128.496H513.091V120.324Z" fill="#E0E0E0"/>
<path d="M365.286 124.252H357.747V152.135H365.286V124.252Z" fill="#E0E0E0"/>
<path d="M477.851 124.252H470.312V152.135H477.851V124.252Z" fill="#E0E0E0"/>
<path d="M470.103 50.6558L459.913 50.7109L460.29 120.448L470.48 120.392L470.103 50.6558Z" fill="#EBEBEB"/>
<path d="M486.017 63.6429L470.185 63.7285L470.491 120.247L486.323 120.162L486.017 63.6429Z" fill="#F5F5F5"/>
<path d="M485.914 74.5538C480.651 74.9255 475.368 74.9255 470.106 74.5538C475.369 74.1982 480.65 74.1982 485.914 74.5538Z" fill="#E0E0E0"/>
<path d="M485.914 72.2437C483.284 72.5098 480.639 72.5992 477.997 72.5112C475.356 72.5987 472.711 72.5093 470.081 72.2437C475.344 71.8719 480.627 71.8719 485.889 72.2437H485.914Z" fill="#E0E0E0"/>
<path d="M485.914 111.679C480.651 112.051 475.368 112.051 470.106 111.679C475.369 111.323 480.65 111.323 485.914 111.679Z" fill="#E0E0E0"/>
<path d="M485.914 109.308C480.65 109.664 475.369 109.664 470.106 109.308C475.368 108.936 480.651 108.936 485.914 109.308Z" fill="#E0E0E0"/>
<path d="M478.253 104.128C478.107 104.128 477.985 98.4245 477.985 91.396C477.985 84.3675 478.107 78.6523 478.253 78.6523C478.399 78.6523 478.533 84.3554 478.533 91.396C478.533 98.4367 478.411 104.128 478.253 104.128Z" fill="#E0E0E0"/>
<path d="M503.327 77.5449H486.096V120.202H503.327V77.5449Z" fill="#EBEBEB"/>
<path d="M464.852 65.5193C466.471 65.5193 467.783 64.2073 467.783 62.5888C467.783 60.9703 466.471 59.6582 464.852 59.6582C463.234 59.6582 461.922 60.9703 461.922 62.5888C461.922 64.2073 463.234 65.5193 464.852 65.5193Z" fill="#E0E0E0"/>
<path d="M465.764 70.6504H463.953V112.14H465.764V70.6504Z" fill="#E0E0E0"/>
<path d="M565.027 559.07C565.027 559.252 448.145 559.386 304.012 559.386C159.88 559.386 42.9734 559.252 42.9734 559.07C42.9734 558.888 159.831 558.754 304.012 558.754C448.193 558.754 565.027 558.9 565.027 559.07Z" fill="#263238"/>
<path d="M181.439 112.797C187.174 119.815 190.279 128.614 190.219 137.676C190.158 142.808 189.21 148.462 192.201 152.633C194.463 155.795 198.597 157.388 200.433 160.817C202.646 164.939 200.762 170.156 202.124 174.63C204.045 180.978 211.487 183.641 215.901 188.59C217.782 190.779 219.099 193.395 219.735 196.21C220.371 199.026 220.307 201.954 219.549 204.739C218.745 207.512 217.29 210.053 215.306 212.151C213.323 214.249 210.867 215.843 208.143 216.801C205.234 217.948 201.99 217.895 199.12 216.655C196.141 215.172 194.256 212.12 192.797 209.141C189.866 203.279 164.124 171.603 162.664 165.206" fill="#263238"/>
<path d="M162.713 105.332C152.182 103.63 142.041 110.622 137.627 120.325C133.213 130.029 133.067 140.997 132.763 151.698C132.459 162.399 131.681 173.489 126.245 182.658C122.792 188.482 117.441 193.602 116.602 200.302C115.848 206.309 118.961 212.364 117.928 218.335C117.028 223.539 113.064 228.063 113.222 233.328C113.416 239.676 119.946 244.455 126.281 244.625C132.617 244.795 138.551 241.475 143.524 237.536C151.627 231.102 158.111 222.86 162.457 213.471" fill="#263238"/>
<path d="M145.385 130.43C145.054 127.781 145.259 125.092 145.987 122.524C146.715 119.956 147.952 117.56 149.623 115.479C151.295 113.398 153.368 111.673 155.719 110.409C158.07 109.144 160.651 108.364 163.309 108.116C173.924 107.095 183.373 115.011 184.966 125.566C186.364 134.819 187.556 144.158 187.519 147.551C187.385 157.778 181.439 161.754 179.007 162.958C178.132 163.272 177.228 163.496 176.308 163.626V163.699L178.569 175.446C179.603 183.143 175.311 190.038 167.625 191.12C159.94 192.202 153.897 186.329 152.717 178.632L145.385 130.43Z" fill="#FFBE9D"/>
<path d="M182.874 130.04C182.704 130.283 181.354 129.566 179.628 129.821C177.901 130.076 176.746 131.122 176.527 130.94C176.308 130.757 176.527 130.453 177.062 129.967C177.727 129.319 178.577 128.894 179.494 128.751C180.394 128.612 181.314 128.766 182.12 129.189C182.728 129.578 182.959 129.943 182.874 130.04Z" fill="#263238"/>
<path d="M167.48 133.786C167.309 134.029 165.96 133.299 164.221 133.554C162.482 133.81 161.351 134.868 161.132 134.685C160.913 134.503 161.132 134.187 161.667 133.713C162.332 133.065 163.182 132.64 164.099 132.497C165 132.368 165.919 132.526 166.726 132.946C167.322 133.323 167.565 133.676 167.48 133.786Z" fill="#263238"/>
<path d="M173.791 143.063C174.661 142.644 175.58 142.338 176.527 142.151C176.965 142.041 177.366 141.895 177.402 141.579C177.363 141.135 177.194 140.712 176.916 140.363L175.104 137.129C172.587 132.605 170.702 128.86 170.885 128.75C171.067 128.641 173.317 132.253 175.749 136.776C176.369 137.895 176.965 138.965 177.5 139.974C177.853 140.469 178.025 141.07 177.986 141.677C177.946 141.842 177.868 141.997 177.758 142.128C177.649 142.258 177.51 142.362 177.354 142.43C177.117 142.534 176.867 142.608 176.612 142.649C175.694 142.91 174.745 143.049 173.791 143.063Z" fill="#263238"/>
<path d="M176.211 163.638C176.211 163.638 169.608 165.158 160.512 161.352C160.512 161.352 164.44 169.803 176.831 166.799L176.211 163.638Z" fill="#EB996E"/>
<path d="M166.592 129.25C166.495 129.749 164.731 129.773 162.737 130.32C160.743 130.867 159.174 131.646 158.846 131.269C158.7 131.086 158.919 130.6 159.515 130.053C160.317 129.366 161.265 128.872 162.287 128.606C163.309 128.341 164.377 128.311 165.412 128.52C166.215 128.703 166.592 129.019 166.592 129.25Z" fill="#263238"/>
<path d="M181.452 126.21C181.208 126.648 179.956 126.417 178.521 126.6C177.086 126.782 175.907 127.256 175.566 126.879C175.42 126.697 175.566 126.283 176.028 125.834C176.666 125.268 177.466 124.919 178.314 124.836C179.152 124.736 180 124.892 180.746 125.286C181.33 125.615 181.561 125.992 181.452 126.21Z" fill="#263238"/>
<path d="M163.722 136.023C163.749 136.211 163.813 136.392 163.91 136.556C164.007 136.719 164.136 136.861 164.289 136.974C164.441 137.087 164.615 137.169 164.8 137.215C164.984 137.26 165.176 137.268 165.364 137.239C165.546 137.218 165.723 137.161 165.883 137.071C166.044 136.981 166.184 136.86 166.298 136.715C166.411 136.571 166.494 136.405 166.542 136.227C166.591 136.05 166.604 135.865 166.58 135.683C166.523 135.304 166.318 134.963 166.01 134.735C165.703 134.508 165.317 134.411 164.938 134.467C164.755 134.486 164.577 134.542 164.416 134.632C164.255 134.721 164.114 134.842 164 134.987C163.887 135.132 163.804 135.299 163.756 135.477C163.708 135.655 163.697 135.841 163.722 136.023Z" fill="#263238"/>
<path d="M179.056 132.703C179.113 133.081 179.318 133.422 179.626 133.65C179.933 133.878 180.319 133.975 180.698 133.919C180.88 133.898 181.057 133.841 181.217 133.751C181.377 133.661 181.518 133.54 181.631 133.395C181.744 133.25 181.828 133.084 181.876 132.907C181.925 132.73 181.937 132.545 181.914 132.362C181.856 131.984 181.652 131.643 181.344 131.415C181.036 131.187 180.651 131.091 180.272 131.146C180.089 131.166 179.911 131.222 179.75 131.311C179.589 131.401 179.447 131.522 179.334 131.667C179.221 131.812 179.137 131.979 179.09 132.157C179.042 132.334 179.03 132.52 179.056 132.703Z" fill="#263238"/>
<path d="M176.514 146.421C176.037 146.272 175.523 146.296 175.061 146.487C174.599 146.678 174.218 147.024 173.985 147.467C173.763 147.873 173.672 148.338 173.727 148.798C173.781 149.258 173.978 149.69 174.289 150.032C174.621 150.358 175.057 150.555 175.52 150.588C175.984 150.622 176.444 150.489 176.818 150.215C177.287 149.788 177.571 149.194 177.609 148.561C177.691 147.98 177.552 147.39 177.22 146.907C177.049 146.671 176.805 146.498 176.526 146.414C176.247 146.331 175.948 146.342 175.675 146.445" fill="#EB996E"/>
<path d="M183.616 117.236C182.661 113.383 180.28 110.037 176.952 107.873C174.229 105.905 170.993 104.769 167.638 104.602C164.261 104.456 160.964 105.654 158.469 107.934C156.698 109.689 155.685 112.068 155.648 114.561L155.842 112.858C155.331 114.244 155.331 115.766 155.842 117.151C156.122 117.893 156.463 118.646 156.754 119.388C157.625 121.532 159.24 123.289 161.302 124.337C162.236 124.838 163.282 125.094 164.342 125.079C164.873 125.068 165.395 124.942 165.871 124.709C166.348 124.476 166.768 124.142 167.103 123.729C167.858 122.411 168.092 120.858 167.759 119.376C168.557 120.841 169.696 122.092 171.079 123.024C171.785 123.475 172.625 123.67 173.458 123.575C174.291 123.479 175.065 123.1 175.651 122.501C176.648 121.285 176.259 119.364 175.651 117.856C176.592 119.278 177.91 120.411 179.457 121.127C179.864 121.361 180.316 121.507 180.782 121.558C181.249 121.608 181.721 121.561 182.169 121.419C182.527 121.242 182.84 120.985 183.084 120.669C183.328 120.353 183.498 119.986 183.579 119.595C183.76 118.82 183.772 118.016 183.616 117.236Z" fill="#263238"/>
<path d="M174.824 120.471C174.715 120.471 174.739 119.024 174.265 116.823C173.718 113.898 172.248 111.226 170.07 109.199C168.873 108.11 167.429 107.33 165.862 106.925C164.58 106.61 163.244 106.577 161.947 106.828C160.752 107.107 159.61 107.579 158.566 108.226C158.566 108.226 158.773 107.922 159.308 107.533C160.076 106.996 160.938 106.608 161.85 106.39C163.213 106.071 164.632 106.071 165.996 106.39C167.677 106.809 169.224 107.646 170.495 108.822C172.776 110.933 174.265 113.761 174.715 116.835C174.86 117.744 174.933 118.663 174.934 119.583C174.949 119.883 174.912 120.184 174.824 120.471Z" fill="#455A64"/>
<path d="M286.818 262.245L240.063 243.701C240.063 243.701 216.12 212.292 216.618 211.684L199.801 230.094L224.243 263.157L280.896 276.436L290.624 273.736C288.484 263.412 286.818 262.245 286.818 262.245Z" fill="#FFBE9D"/>
<path d="M184.917 172.637L178.545 170.205L151.039 173.695V178.559L150.249 178.656C144.32 179.917 138.633 182.126 133.407 185.198C128.513 188.186 124.623 192.57 122.24 197.786C119.856 203.002 119.087 208.811 120.031 214.467C121.15 221.423 123.314 229.874 127.498 234.763C135.487 244.114 142.783 232.562 142.783 232.562C142.783 232.562 147.793 243.992 147.501 249.403C147.258 253.939 145.263 263.375 144.619 266.318C144.592 266.435 144.59 266.557 144.612 266.676C144.634 266.794 144.68 266.907 144.748 267.007C144.815 267.107 144.901 267.192 145.003 267.258C145.104 267.323 145.217 267.368 145.336 267.388L203.364 278.125L203.643 263.934L201.795 205.566L199.181 182.9C199.181 182.9 199.266 172.078 184.917 172.637Z" fill="#4242FF"/>
<path d="M198.293 179.131L220.424 211.1L202.61 232.793L198.293 179.131Z" fill="#4242FF"/>
<path d="M203.072 246.4C202.993 245.713 202.964 245.023 202.987 244.332C202.987 242.897 202.987 241.013 202.914 238.714C202.806 232.546 202.364 226.388 201.589 220.268C200.677 213.093 199.278 206.685 198.22 202.028L196.931 196.556C196.744 195.894 196.606 195.219 196.518 194.537C196.794 195.169 197.014 195.824 197.174 196.495C197.551 197.711 198.062 199.62 198.646 201.93C200.216 207.93 201.41 214.022 202.221 220.17C203.003 226.316 203.384 232.507 203.364 238.702C203.364 241.134 203.303 243.007 203.23 244.332C203.236 245.025 203.184 245.716 203.072 246.4Z" fill="#263238"/>
<path d="M148.595 197.795C148.595 197.892 146.917 197.88 144.23 198.014C140.723 198.204 137.236 198.655 133.796 199.364C130.358 200.085 126.976 201.057 123.679 202.27C121.15 203.206 119.63 203.899 119.581 203.802C119.893 203.558 120.237 203.357 120.603 203.206C121.272 202.841 122.269 202.379 123.521 201.856C130.083 199.147 137.095 197.695 144.193 197.576C145.555 197.576 146.625 197.576 147.416 197.649C147.814 197.636 148.212 197.686 148.595 197.795Z" fill="#FAFAFA"/>
<path d="M199.85 212.424C198.96 212.748 198.032 212.952 197.089 213.032C192.593 213.689 188.037 213.844 183.507 213.495C182.56 213.478 181.62 213.339 180.71 213.081C181.648 212.998 182.592 212.998 183.531 213.081C185.258 213.081 187.653 213.081 190.292 213.081C192.931 213.081 195.314 212.814 197.041 212.655C197.968 212.493 198.908 212.416 199.85 212.424Z" fill="#FAFAFA"/>
<path d="M210.003 197.966C208.663 199.515 207.057 200.812 205.261 201.797C203.565 202.943 201.673 203.767 199.679 204.229C199.606 204.058 202.111 203.013 204.932 201.213C207.754 199.413 209.882 197.82 210.003 197.966Z" fill="#FAFAFA"/>
<path d="M201.065 183.144C197.229 186.595 192.341 188.651 187.191 188.98C187.191 188.786 190.535 188.275 194.377 186.633C198.22 184.992 200.944 182.985 201.065 183.144Z" fill="#FAFAFA"/>
<path d="M202.269 237.183C201.912 237.423 201.528 237.623 201.126 237.779C200.36 238.144 199.254 238.594 197.843 239.116C194.178 240.433 190.395 241.394 186.547 241.986C182.698 242.58 178.8 242.796 174.909 242.631C173.414 242.57 172.21 242.46 171.383 242.351C170.95 242.322 170.522 242.245 170.106 242.12C170.106 242.01 171.955 242.12 174.97 242.193C182.702 242.265 190.393 241.082 197.746 238.691C200.518 237.779 202.233 237.086 202.269 237.183Z" fill="#FAFAFA"/>
<path d="M202.719 253.658C202.719 253.658 202.549 253.78 202.196 253.962L200.64 254.643C199.302 255.275 197.32 256.102 194.84 257.075C192.359 258.048 189.355 258.984 185.975 259.908C178.626 261.887 171.082 263.058 163.479 263.398C159.977 263.532 156.827 263.52 154.177 263.398C151.526 263.277 149.398 263.082 147.926 262.875L146.236 262.644C146.037 262.63 145.841 262.589 145.652 262.523C145.85 262.491 146.051 262.491 146.248 262.523L147.951 262.632C149.422 262.754 151.599 262.875 154.189 262.948C156.779 263.021 159.977 262.948 163.455 262.827C166.932 262.705 170.751 262.267 174.727 261.611C178.703 260.954 182.449 260.164 185.829 259.313C189.209 258.461 192.201 257.501 194.681 256.613C197.162 255.725 199.181 254.984 200.543 254.424L202.123 253.804C202.316 253.735 202.516 253.686 202.719 253.658Z" fill="#FAFAFA"/>
<path d="M96.064 512.168L89.4854 541.875L77.4835 563.872C77.2794 564.248 77.1545 564.661 77.1166 565.087C77.0786 565.513 77.1285 565.942 77.263 566.348C77.3974 566.753 77.6137 567.127 77.8985 567.446C78.1832 567.765 78.5303 568.022 78.9184 568.201C79.3688 568.408 79.8623 568.504 80.3573 568.48C80.8524 568.457 81.3347 568.316 81.7638 568.067C87.3331 564.857 107.774 552.904 108.127 550.703C108.552 548.162 117.149 519.829 117.149 519.829L96.064 512.168Z" fill="#4242FF"/>
<g opacity="0.6">
<path d="M78.9185 568.202L108.625 548.746L108.309 549.962C108.049 551.047 107.411 552.004 106.509 552.662C104.077 554.4 97.3044 559.07 81.8612 568.093C81.4178 568.352 80.917 568.498 80.4036 568.517C79.8901 568.536 79.3799 568.428 78.9185 568.202Z" fill="white"/>
</g>
<g opacity="0.6">
<path d="M104.892 537.692C104.463 537.871 104.115 538.202 103.916 538.622C103.716 539.042 103.678 539.52 103.81 539.966C103.972 540.4 104.295 540.755 104.711 540.959C105.127 541.162 105.605 541.199 106.047 541.061C106.507 540.871 106.879 540.516 107.09 540.066C107.302 539.616 107.337 539.104 107.19 538.629C106.975 538.198 106.603 537.866 106.151 537.701C105.699 537.536 105.201 537.55 104.758 537.741" fill="white"/>
</g>
<path d="M88.8409 556.941C88.3503 555.847 87.6619 554.854 86.8102 554.01C85.8293 553.327 84.7275 552.836 83.5635 552.563C83.5635 552.478 83.9891 552.345 84.7065 552.417C85.6401 552.538 86.5187 552.926 87.2358 553.536C87.9584 554.123 88.4915 554.909 88.768 555.798C88.9747 556.491 88.9139 556.941 88.8409 556.941Z" fill="#263238"/>
<path d="M85.7644 560.383C85.5942 560.48 84.8767 559.289 83.454 558.474C82.5465 558.052 81.6122 557.691 80.6572 557.392C81.1822 557.22 81.7405 557.175 82.2861 557.262C82.8317 557.349 83.3488 557.564 83.7945 557.89C85.4118 558.827 85.9347 560.347 85.7644 560.383Z" fill="#263238"/>
<path d="M93.9967 552.831C92.9626 551.683 91.8405 550.618 90.6405 549.645C89.3184 548.839 87.9362 548.136 86.5061 547.541C88.1507 547.508 89.7538 548.06 91.0296 549.098C92.4363 549.944 93.4899 551.27 93.9967 552.831Z" fill="#263238"/>
<path d="M96.7571 543.967C96.6355 544.125 95.1641 543.043 93.1091 542.447C91.054 541.851 89.1936 541.949 89.1814 541.742C90.5348 541.391 91.9578 541.413 93.2999 541.805C94.642 542.197 95.8533 542.944 96.8057 543.967H96.7571Z" fill="#263238"/>
<path d="M98.9094 535.297C97.7232 534.564 96.4427 533.995 95.1033 533.607C93.7234 533.419 92.3245 533.419 90.9446 533.607C90.9446 533.534 91.3215 533.242 92.0998 533.011C93.1228 532.733 94.1965 532.698 95.2353 532.91C96.2741 533.121 97.2492 533.572 98.0825 534.227C98.7027 534.811 98.958 535.248 98.9094 535.297Z" fill="#263238"/>
<path d="M95.5532 531.965C95.5541 531.579 95.637 531.197 95.7964 530.846C96.1409 529.842 96.6871 528.919 97.4015 528.134C97.8688 527.512 98.5263 527.06 99.2741 526.845C99.5287 526.804 99.79 526.839 100.024 526.948C100.258 527.056 100.455 527.232 100.587 527.453C100.811 527.906 100.859 528.426 100.721 528.912C100.409 529.888 99.7682 530.724 98.9075 531.279C98.0468 531.833 97.0201 532.072 96.0031 531.952C95.0002 531.81 94.0621 531.373 93.3069 530.698C92.5517 530.023 92.0132 529.139 91.7593 528.159C91.7009 527.909 91.6956 527.651 91.7438 527.399C91.792 527.148 91.8925 526.909 92.0389 526.699C92.207 526.503 92.4331 526.366 92.6845 526.307C92.9359 526.248 93.1996 526.27 93.4373 526.371C94.1247 526.714 94.7112 527.229 95.1397 527.867C95.7842 528.71 96.2741 529.661 96.5868 530.676C96.7349 531.038 96.8053 531.427 96.7935 531.819C96.3033 530.508 95.6187 529.278 94.7628 528.171C94.3642 527.651 93.8473 527.234 93.2549 526.955C93.1247 526.898 92.9796 526.885 92.8415 526.918C92.7034 526.951 92.5797 527.028 92.4889 527.137C92.4039 527.28 92.3492 527.44 92.3283 527.605C92.3074 527.77 92.3207 527.938 92.3673 528.098C92.6209 528.923 93.1024 529.66 93.7564 530.223C94.4104 530.787 95.2103 531.155 96.0639 531.284C96.924 531.384 97.7925 531.189 98.5279 530.732C99.2633 530.275 99.8221 529.582 100.113 528.767C100.231 528.436 100.231 528.075 100.113 527.745C100.044 527.62 99.9379 527.521 99.8092 527.459C99.6805 527.398 99.5359 527.379 99.3957 527.405C98.762 527.579 98.1973 527.944 97.7785 528.45C96.8456 529.489 96.0935 530.677 95.5532 531.965Z" fill="#263238"/>
<g opacity="0.3">
<path d="M95.2613 515.39L93.8386 522.2L115.35 525.775L117.149 519.829L96.0274 512.168L95.2613 515.39Z" fill="black"/>
</g>
<path d="M192.128 523.161L190.353 546.897C190.353 546.897 213.894 556.625 213.992 561.1L167.784 559.313L169 522.2L192.128 523.161Z" fill="#4242FF"/>
<g opacity="0.6">
<path d="M176.186 544.343C175.738 544.464 175.349 544.744 175.094 545.132C174.838 545.52 174.734 545.988 174.8 546.447C174.902 546.899 175.173 547.295 175.557 547.555C175.941 547.815 176.409 547.919 176.867 547.846C177.344 547.719 177.757 547.42 178.027 547.007C178.296 546.594 178.403 546.095 178.326 545.608C178.173 545.146 177.847 544.762 177.416 544.535C176.985 544.309 176.484 544.257 176.016 544.392" fill="white"/>
</g>
<g opacity="0.6">
<path d="M167.808 559.313L168.075 555.567L212.277 558.644C212.277 558.644 214.308 559.617 214.016 561.076L167.808 559.313Z" fill="white"/>
</g>
<path d="M191.131 546.691C191.131 546.922 189.988 546.982 188.857 547.663C187.726 548.344 187.094 549.268 186.887 549.171C186.68 549.074 187.069 547.785 188.456 546.982C189.842 546.18 191.192 546.484 191.131 546.691Z" fill="#263238"/>
<path d="M195.897 548.916C195.897 549.147 194.949 549.488 194.146 550.412C193.344 551.336 193.088 552.333 192.857 552.321C192.626 552.309 192.541 551.02 193.563 549.889C194.584 548.758 195.897 548.673 195.897 548.916Z" fill="#263238"/>
<path d="M198.427 554.79C198.22 554.79 197.953 553.683 198.573 552.479C199.193 551.275 200.275 550.813 200.36 551.008C200.445 551.202 199.777 551.835 199.278 552.832C198.779 553.829 198.646 554.777 198.427 554.79Z" fill="#263238"/>
<path d="M190.912 541.243C190.815 541.438 189.793 541.085 188.48 541.122C187.167 541.158 186.194 541.523 186.048 541.328C185.902 541.134 186.924 540.368 188.48 540.343C190.036 540.319 191.058 541.073 190.912 541.243Z" fill="#263238"/>
<g opacity="0.3">
<path d="M191.8 527.867L191.484 532.099L168.805 531.005L168.963 526.116L191.8 527.867Z" fill="black"/>
</g>
<path d="M191.216 536.44C190.452 536.625 189.651 536.591 188.906 536.343C188.063 536.168 187.245 535.886 186.474 535.504C186.023 535.282 185.589 535.03 185.172 534.75C184.919 534.594 184.689 534.401 184.491 534.178C184.357 534.004 184.285 533.79 184.285 533.57C184.285 533.35 184.357 533.137 184.491 532.962C184.61 532.809 184.763 532.685 184.939 532.603C185.114 532.52 185.307 532.481 185.501 532.488C185.794 532.5 186.084 532.549 186.364 532.634C186.851 532.776 187.323 532.963 187.775 533.193C188.543 533.569 189.245 534.065 189.854 534.665C190.888 535.698 191.216 536.562 191.143 536.598C191.07 536.635 190.547 535.942 189.489 535.078C188.868 534.593 188.19 534.184 187.471 533.862C187.042 533.684 186.603 533.53 186.157 533.4C185.671 533.254 185.258 533.242 185.124 533.4C184.99 533.558 185.124 533.522 185.124 533.668C185.27 533.828 185.437 533.968 185.622 534.081C186.012 534.353 186.418 534.6 186.838 534.823C187.54 535.21 188.277 535.527 189.039 535.771C189.78 535.942 190.507 536.166 191.216 536.44Z" fill="#263238"/>
<path d="M190.912 536.756C190.508 536.074 190.325 535.284 190.389 534.494C190.394 533.639 190.533 532.789 190.803 531.977C190.977 531.501 191.193 531.042 191.447 530.603C191.584 530.302 191.795 530.042 192.061 529.846C192.327 529.65 192.639 529.525 192.967 529.484C193.175 529.498 193.374 529.57 193.542 529.693C193.71 529.816 193.84 529.984 193.916 530.178C194.021 530.45 194.087 530.737 194.11 531.029C194.19 531.544 194.19 532.069 194.11 532.585C193.948 533.444 193.576 534.25 193.028 534.932C192.079 536.148 191.131 536.33 191.107 536.258C191.082 536.185 191.836 535.735 192.578 534.604C193.004 533.959 193.282 533.228 193.393 532.464C193.454 532.02 193.454 531.57 193.393 531.126C193.332 530.64 193.162 530.226 192.979 530.275C192.797 530.323 192.347 530.615 192.14 531.004C191.903 531.393 191.696 531.8 191.52 532.22C191.239 532.955 191.059 533.724 190.985 534.506C190.827 535.868 191.034 536.756 190.912 536.756Z" fill="#263238"/>
<path d="M144.364 267.169C144.364 267.169 137.068 267.497 132.204 292.449C127.34 317.402 90.2637 519.586 90.2637 519.586L117.149 519.829L167.808 327.604L164.44 525.812L191.751 527.903C191.751 527.903 212.241 308.671 212.423 295.915C212.666 280.01 203.534 263.922 203.534 263.922L144.364 267.169Z" fill="#263238"/>
<path d="M181.318 265.041C181.488 265.041 178.691 279.329 175.08 296.876C171.468 314.423 168.404 328.626 168.233 328.589C168.063 328.553 170.848 314.301 174.459 296.754C178.071 279.207 181.184 265.005 181.318 265.041Z" fill="#455A64"/>
<path d="M185.501 268.603C185.501 268.53 186.23 268.311 187.069 269.053C187.308 269.269 187.496 269.534 187.622 269.83C187.748 270.126 187.809 270.446 187.799 270.767C187.769 271.174 187.623 271.563 187.38 271.891C187.137 272.218 186.806 272.469 186.425 272.616C186.054 272.784 185.643 272.845 185.238 272.791C184.834 272.738 184.453 272.571 184.139 272.312C183.904 272.091 183.718 271.823 183.594 271.525C183.471 271.228 183.412 270.907 183.421 270.585C183.421 269.466 184.175 269.077 184.188 269.15C183.982 269.596 183.875 270.081 183.871 270.573C183.888 270.82 183.953 271.061 184.064 271.282C184.174 271.503 184.328 271.7 184.516 271.862C184.756 272.027 185.033 272.129 185.323 272.16C185.613 272.19 185.906 272.146 186.175 272.034C186.443 271.921 186.679 271.743 186.861 271.515C187.043 271.288 187.165 271.018 187.215 270.731C187.233 270.484 187.202 270.237 187.122 270.003C187.043 269.769 186.917 269.553 186.753 269.369C186.157 268.676 185.489 268.7 185.501 268.603Z" fill="#455A64"/>
<path d="M184.346 278.478C184.346 278.405 185.1 278.478 185.562 279.488C185.679 279.776 185.732 280.086 185.718 280.397C185.703 280.708 185.621 281.012 185.476 281.287C185.267 281.615 184.973 281.88 184.625 282.053C184.277 282.226 183.888 282.301 183.5 282.269C183.113 282.238 182.741 282.102 182.425 281.875C182.109 281.649 181.861 281.34 181.707 280.983C181.61 280.69 181.578 280.379 181.614 280.073C181.649 279.766 181.752 279.471 181.914 279.208C182.485 278.296 183.263 278.32 183.239 278.393C183.215 278.466 182.655 278.636 182.303 279.415C182.124 279.851 182.124 280.34 182.303 280.777C182.43 281.018 182.616 281.223 182.843 281.373C183.071 281.523 183.333 281.614 183.604 281.636C183.876 281.657 184.149 281.61 184.398 281.498C184.646 281.386 184.863 281.213 185.027 280.995C185.256 280.58 185.312 280.091 185.185 279.634C184.832 278.807 184.285 278.563 184.346 278.478Z" fill="#455A64"/>
<path d="M158.578 268.846C158.528 269.264 158.422 269.673 158.262 270.062C157.882 271.176 157.406 272.254 156.84 273.285C154.984 276.725 152.305 279.65 149.041 281.8C145.777 283.95 142.03 285.257 138.137 285.603C136.968 285.705 135.792 285.705 134.623 285.603C134.211 285.59 133.803 285.524 133.407 285.408C133.407 285.287 135.243 285.493 138.15 285.129C141.937 284.669 145.567 283.337 148.753 281.238C151.939 279.138 154.595 276.328 156.511 273.029C157.934 270.573 158.469 268.81 158.578 268.846Z" fill="#455A64"/>
<path d="M210.891 286.588C210.891 286.588 210.575 286.442 210.076 286.102C209.379 285.6 208.728 285.039 208.131 284.423C206.131 282.399 204.57 279.984 203.547 277.328C202.524 274.673 202.06 271.835 202.184 268.992C202.212 268.137 202.322 267.286 202.513 266.451C202.646 265.855 202.731 265.539 202.78 265.551C202.829 265.563 202.634 266.877 202.634 269.005C202.636 274.59 204.712 279.977 208.459 284.119C209.882 285.688 210.952 286.491 210.891 286.588Z" fill="#455A64"/>
<path d="M305.216 287.294C305.617 286.321 305.508 286.71 299.063 282.43C299.063 282.43 308.305 288.51 307.344 285.615C306.513 284.519 305.496 283.577 304.34 282.831C306.772 284.266 308.183 284.424 308.609 283.84C309.338 282.831 304.049 278.976 301.532 277.237C303.833 278.883 306.246 280.367 308.755 281.676C310.25 282.138 309.533 280.387 308.524 279.11C307.514 277.833 299.683 270.294 297.58 268.044C297.379 267.873 297.219 267.66 297.108 267.421C296.998 267.182 296.941 266.921 296.941 266.658C296.941 266.395 296.998 266.134 297.108 265.895C297.219 265.656 297.379 265.443 297.58 265.272C301.349 262.84 303.003 258.961 302.954 257.684C302.912 257.396 302.781 257.13 302.578 256.922C302.375 256.714 302.111 256.576 301.825 256.527C301.538 256.479 301.244 256.522 300.984 256.651C300.723 256.78 300.511 256.989 300.376 257.246C299.425 258.429 298.316 259.476 297.081 260.359C296.123 261.106 295.046 261.686 293.895 262.074C292.557 262.511 285.979 262.147 284.568 261.429L280.081 276.641C280.081 276.641 296.364 284.254 299.452 285.737C303.246 287.537 304.936 288.035 305.216 287.294Z" fill="#FFBE9D"/>
<path d="M296.132 280.181C295.999 280.363 298.115 281.907 300.851 283.646C303.587 285.385 305.885 286.638 305.994 286.455C306.104 286.273 303.988 284.716 301.264 282.99C298.54 281.263 296.254 279.95 296.132 280.181Z" fill="#EB996E"/>
<path d="M297.665 277.201C297.543 277.383 299.707 279.158 302.529 281.177C305.35 283.196 307.684 284.691 307.806 284.521C307.928 284.351 305.775 282.563 302.942 280.545C300.109 278.526 297.798 277.03 297.665 277.201Z" fill="#EB996E"/>
<path d="M299.282 274.186C299.16 274.356 301.179 276.083 303.793 278.028C306.408 279.974 308.657 281.409 308.754 281.238C308.852 281.068 306.87 279.341 304.255 277.396C301.641 275.45 299.416 274.015 299.282 274.186Z" fill="#EB996E"/>
<path d="M133.675 219.089L145.616 219.745C146.462 223.079 147.593 226.334 148.996 229.473C158.615 212.79 166.02 190.428 167.917 181.441C167.65 180.558 167.321 179.561 166.932 178.45C166.641 176.771 166.691 175.051 167.078 173.391C167.407 171.397 167.966 168.698 168.124 167.457C168.647 163.663 169.255 163.055 170.556 163.493C172.356 164.077 169.814 174.157 171.286 174.376C172.088 174.486 173.049 171.032 173.341 168.199C173.632 165.366 174.897 156.659 175.833 156.039C177.208 155.188 178.399 156.538 178.059 159.359C177.718 162.18 177.268 170.728 178.764 170.838C180.26 170.947 181.476 156.501 181.476 156.501C181.476 156.501 181.245 153.364 182.971 153.437C186.096 153.571 183.665 168.807 183.397 170.254C183.202 171.251 184.832 171.47 184.978 170.351C185.124 169.233 185.878 155.893 189.051 156.003C191.483 156.088 187.167 168.552 188.541 171.446C189.915 174.34 190.863 161.633 193.198 161.803C194.061 161.876 194.706 162.046 193.113 169.233C191.558 174.947 189.695 180.573 187.531 186.086C183.883 206.029 167.601 269.82 142.162 258.147C127.935 251.617 121.284 219.235 121.284 219.235L133.675 219.089Z" fill="#FFBE9D"/>
<path d="M187.556 186.195C187.577 186.044 187.618 185.897 187.677 185.757C187.787 185.441 187.921 185.027 188.103 184.541C188.504 183.386 189.051 181.781 189.769 179.677C190.486 177.573 191.35 175.02 192.201 172.004C192.639 170.508 193.003 168.879 193.332 167.14C193.502 166.265 193.66 165.365 193.77 164.441C193.8 163.983 193.8 163.524 193.77 163.067C193.77 162.592 193.66 162.203 193.283 162.191C192.906 162.179 192.639 162.41 192.371 162.811C192.129 163.241 191.929 163.693 191.775 164.161C191.435 165.122 191.167 166.143 190.9 167.177C190.632 168.21 190.389 169.292 190.073 170.387C189.935 170.986 189.688 171.555 189.343 172.065C189.257 172.165 189.142 172.237 189.015 172.272C188.935 172.289 188.851 172.289 188.771 172.27C188.691 172.251 188.617 172.214 188.553 172.162C188.413 172.034 188.298 171.882 188.212 171.712C188.084 171.414 187.998 171.098 187.957 170.776C187.902 168.323 188.147 165.873 188.687 163.48C188.893 162.264 189.112 161.048 189.27 159.832C189.343 159.212 189.416 158.616 189.428 157.959C189.441 157.303 189.343 156.61 189.088 156.5C188.833 156.391 188.212 156.731 187.872 157.242C187.536 157.781 187.27 158.362 187.082 158.969C186.667 160.239 186.354 161.54 186.145 162.86C185.914 164.197 185.732 165.559 185.574 166.946C185.513 167.639 185.44 168.332 185.379 169.037L185.282 170.095C185.295 170.321 185.258 170.547 185.174 170.757C185.09 170.967 184.961 171.156 184.795 171.311C184.587 171.463 184.336 171.545 184.078 171.545C183.82 171.545 183.569 171.463 183.361 171.311C183.243 171.233 183.143 171.131 183.067 171.011C182.992 170.892 182.942 170.758 182.923 170.618C182.904 170.489 182.904 170.358 182.923 170.229V169.973L183.251 167.845C183.458 166.41 183.628 164.976 183.762 163.516C183.896 162.057 184.005 160.586 184.029 159.115C184.101 157.658 183.953 156.199 183.592 154.786C183.508 154.427 183.29 154.114 182.984 153.91C182.837 153.863 182.679 153.863 182.533 153.911C182.386 153.96 182.259 154.053 182.169 154.178C181.775 154.897 181.614 155.721 181.707 156.537C181.439 159.394 181.135 162.203 180.722 164.963C180.515 166.338 180.284 167.712 179.944 169.061C179.846 169.39 179.749 169.73 179.627 170.071C179.512 170.483 179.269 170.849 178.934 171.116C178.786 171.189 178.618 171.21 178.456 171.174C178.295 171.139 178.151 171.05 178.047 170.922C177.898 170.766 177.786 170.579 177.718 170.375C177.587 170.037 177.493 169.687 177.439 169.329C177.154 166.683 177.129 164.015 177.366 161.364C177.545 160.128 177.615 158.879 177.572 157.631C177.533 157.098 177.289 156.601 176.891 156.245C176.798 156.187 176.694 156.148 176.585 156.131C176.477 156.115 176.366 156.12 176.259 156.147C176.145 156.186 176.035 156.235 175.931 156.293C175.821 156.391 175.834 156.293 175.761 156.5C175.321 157.594 174.999 158.731 174.8 159.893C174.557 161.109 174.35 162.215 174.168 163.358C173.985 164.501 173.815 165.62 173.669 166.739C173.523 167.858 173.45 168.952 173.231 170.046C173.042 171.116 172.757 172.166 172.38 173.184C172.28 173.443 172.162 173.695 172.027 173.938C171.857 174.169 171.76 174.46 171.298 174.606C171.18 174.628 171.058 174.614 170.947 174.567C170.837 174.519 170.743 174.44 170.678 174.339C170.593 174.198 170.527 174.047 170.483 173.889C170.428 173.625 170.396 173.356 170.386 173.086C170.386 171.007 170.666 169.11 170.775 167.274C170.854 166.396 170.854 165.513 170.775 164.635C170.775 164.246 170.593 163.784 170.374 163.699C170.22 163.624 170.052 163.585 169.881 163.585C169.71 163.585 169.542 163.624 169.389 163.699C168.878 164.247 168.562 164.948 168.489 165.693C168.306 166.435 168.234 167.189 168.1 167.906C167.589 170.776 167.054 173.257 166.799 175.275C166.679 176.163 166.679 177.063 166.799 177.95C166.969 178.68 167.224 179.337 167.358 179.847C167.492 180.358 167.626 180.723 167.711 181.063C167.756 181.194 167.789 181.328 167.808 181.465C167.735 181.347 167.678 181.22 167.638 181.088L167.224 179.872C167.054 179.349 166.799 178.765 166.592 177.963C166.462 177.051 166.462 176.126 166.592 175.214C166.823 173.159 167.309 170.703 167.808 167.821C167.942 167.104 168.015 166.35 168.173 165.571C168.26 165.16 168.369 164.754 168.501 164.355C168.623 163.913 168.888 163.524 169.255 163.249C169.476 163.132 169.722 163.071 169.972 163.071C170.223 163.071 170.469 163.132 170.69 163.249C170.928 163.399 171.123 163.607 171.257 163.854C171.391 164.101 171.46 164.378 171.456 164.659C171.541 165.574 171.541 166.494 171.456 167.408C171.371 169.256 171.079 171.189 171.128 173.159C171.136 173.392 171.165 173.624 171.213 173.852C171.213 174.083 171.383 174.181 171.359 174.132C171.334 174.083 171.59 173.938 171.687 173.743C171.807 173.527 171.912 173.304 172.003 173.074C172.363 172.088 172.628 171.07 172.794 170.034C173 168.976 173.073 167.882 173.219 166.751C173.365 165.62 173.511 164.501 173.693 163.346C173.876 162.191 174.082 161.036 174.314 159.856C174.511 158.624 174.854 157.42 175.335 156.269C175.432 156.076 175.579 155.912 175.761 155.795C175.922 155.706 176.094 155.637 176.271 155.588C176.475 155.53 176.689 155.516 176.899 155.547C177.109 155.579 177.309 155.655 177.487 155.771C177.769 155.995 178.003 156.274 178.172 156.592C178.341 156.91 178.444 157.26 178.472 157.619C178.564 158.28 178.564 158.951 178.472 159.613C178.411 160.233 178.351 160.829 178.314 161.51C178.077 164.1 178.102 166.707 178.387 169.292C178.439 169.599 178.521 169.901 178.63 170.192C178.667 170.31 178.729 170.418 178.813 170.508C178.813 170.508 178.813 170.508 178.874 170.508C178.874 170.788 178.874 170.508 178.874 170.618C178.874 170.727 178.874 170.618 178.874 170.521C179.025 170.317 179.144 170.092 179.226 169.852C179.34 169.552 179.437 169.236 179.518 168.903C179.846 167.614 180.065 166.252 180.272 164.891C180.685 162.155 180.989 159.346 181.245 156.5V156.561C181.137 155.559 181.354 154.548 181.865 153.679C182.06 153.431 182.327 153.249 182.63 153.16C182.933 153.07 183.256 153.078 183.555 153.18C183.81 153.322 184.034 153.513 184.214 153.743C184.393 153.973 184.525 154.236 184.601 154.518C184.99 156.013 185.15 157.559 185.075 159.102C185.075 160.61 184.941 162.094 184.808 163.565C184.674 165.036 184.491 166.483 184.285 167.918C184.175 168.648 184.066 169.353 183.956 170.071C183.859 170.521 183.883 170.533 183.956 170.667C184.041 170.723 184.14 170.754 184.242 170.754C184.344 170.754 184.444 170.723 184.528 170.667C184.674 170.557 184.698 170.35 184.735 169.949L184.82 168.891L185.039 166.787C185.185 165.401 185.379 164.015 185.61 162.665C185.835 161.309 186.16 159.972 186.583 158.665C186.804 158.004 187.102 157.371 187.471 156.78C187.671 156.461 187.937 156.188 188.249 155.977C188.422 155.852 188.623 155.77 188.835 155.738C189.046 155.706 189.262 155.726 189.465 155.795C189.651 155.91 189.808 156.066 189.924 156.252C190.04 156.437 190.112 156.647 190.134 156.865C190.184 157.207 190.204 157.553 190.194 157.899C190.194 158.567 190.109 159.212 190.036 159.856C189.866 161.072 189.635 162.361 189.416 163.589C188.894 165.899 188.641 168.262 188.662 170.63C188.697 170.884 188.762 171.133 188.857 171.372C188.901 171.458 188.954 171.54 189.015 171.615C189.015 171.615 189.015 171.615 189.015 171.53C189.288 171.09 189.489 170.61 189.611 170.107C189.927 169.049 190.182 167.979 190.462 166.933C190.713 165.893 191.017 164.866 191.374 163.857C191.542 163.357 191.762 162.876 192.031 162.422C192.176 162.174 192.365 161.956 192.59 161.778C192.712 161.672 192.858 161.596 193.016 161.559C193.173 161.534 193.333 161.534 193.49 161.559C193.656 161.575 193.814 161.636 193.949 161.734C194.084 161.832 194.19 161.965 194.256 162.118C194.357 162.374 194.411 162.646 194.414 162.921C194.423 163.412 194.395 163.904 194.329 164.392C194.219 165.34 194.037 166.24 193.867 167.128C193.514 168.867 193.125 170.521 192.651 171.992C191.739 175.008 190.827 177.561 190.085 179.641C189.343 181.72 188.711 183.289 188.285 184.407C188.079 184.918 187.908 185.319 187.787 185.623C187.732 185.822 187.655 186.014 187.556 186.195Z" fill="#EB996E"/>
<path d="M121.174 220.461C123.485 228.621 128.008 241.206 132.86 254.509C133.013 254.938 133.29 255.312 133.655 255.583C134.021 255.854 134.458 256.011 134.913 256.033C135.367 256.055 135.818 255.942 136.208 255.707C136.598 255.473 136.91 255.128 137.104 254.716L148.996 229.557C148.996 229.557 146.127 208.885 146.37 209.627C146.613 210.369 121.831 212.302 121.831 212.302L121.174 220.461Z" fill="#4242FF"/>
<path d="M147.975 216.413C147.975 216.51 146.491 216.948 144.145 217.847C141.077 219.012 138.122 220.452 135.316 222.152C132.514 223.86 129.869 225.813 127.412 227.989C125.528 229.655 124.445 230.798 124.372 230.725C124.299 230.652 124.579 230.384 125.041 229.837C125.693 229.077 126.383 228.35 127.108 227.661C129.505 225.353 132.148 223.314 134.988 221.581C137.829 219.869 140.846 218.466 143.986 217.398C144.936 217.071 145.902 216.794 146.881 216.571C147.235 216.46 147.604 216.407 147.975 216.413Z" fill="#FAFAFA"/>
<path d="M152.693 222.688C151.92 221.909 151.25 221.034 150.699 220.086C149.279 217.872 148.058 215.536 147.051 213.106C146.043 210.669 145.258 208.145 144.704 205.567C144.421 204.512 144.277 203.424 144.278 202.332C144.641 203.352 144.93 204.396 145.142 205.457C145.793 207.975 146.605 210.449 147.574 212.863C148.585 215.264 149.747 217.599 151.051 219.855C151.659 220.763 152.207 221.709 152.693 222.688Z" fill="#263238"/>
<path d="M160.621 111.278C158.558 114.678 157.28 118.495 156.878 122.452C156.476 126.409 156.961 130.405 158.299 134.151C159.515 137.495 161.46 140.79 161.108 144.341C160.755 147.892 157.983 151.406 158.956 154.908C159.539 156.987 161.315 158.556 162.008 160.575C162.798 163.007 162.008 165.572 161.582 168.065C160.609 174.437 162.652 180.845 163.151 187.266C163.649 193.686 161.935 201.213 156.195 204.01C154.456 204.861 152.182 205.104 150.735 203.803C148.887 202.162 149.398 199.195 149.908 196.763C154.943 172.443 139.39 148.706 142.941 124.095C143.512 120.155 145.713 113.467 148.547 110.719C151.38 107.97 159.247 108.287 161.923 111.205" fill="#263238"/>
<path d="M136.666 181.829C136.666 181.829 137.408 180.954 138.502 179.227C140.038 176.788 141.114 174.089 141.676 171.262C142.043 169.315 142.17 167.33 142.053 165.353C141.84 163.053 141.755 160.743 141.798 158.434C141.87 157.169 142.103 155.919 142.491 154.713C142.935 153.47 143.497 152.273 144.169 151.138C145.531 148.839 147.245 146.699 148.826 144.413C150.45 142.252 151.579 139.762 152.134 137.117C152.403 134.626 152.26 132.107 151.708 129.663C151.248 127.391 151.068 125.072 151.173 122.756C151.318 120.733 151.727 118.739 152.389 116.822C153.318 114.041 154.78 111.468 156.694 109.246C157.202 108.642 157.755 108.077 158.348 107.556C158.535 107.356 158.748 107.18 158.98 107.033C158.98 107.033 158.165 107.824 156.876 109.465C153.806 113.276 152.011 117.955 151.745 122.841C151.663 125.119 151.863 127.398 152.34 129.626C152.921 132.136 153.077 134.726 152.803 137.287C152.226 140.006 151.064 142.566 149.398 144.79C147.805 147.113 146.09 149.241 144.753 151.478C144.095 152.571 143.549 153.728 143.123 154.931C142.739 156.088 142.506 157.29 142.43 158.506C142.376 160.79 142.441 163.075 142.625 165.353C142.721 167.37 142.566 169.392 142.163 171.372C141.553 174.237 140.397 176.958 138.758 179.385C138.314 180.041 137.826 180.667 137.299 181.258C137.109 181.471 136.897 181.663 136.666 181.829Z" fill="#455A64"/>
<path d="M125.138 183.641C125.236 183.358 125.363 183.085 125.515 182.827C125.819 182.255 126.209 181.501 126.731 180.553C127.753 178.571 129.273 175.689 130.769 172.041C132.598 167.78 133.613 163.214 133.76 158.58C133.761 157.244 133.659 155.911 133.456 154.591C133.249 153.229 132.933 151.855 132.726 150.42C132.473 148.936 132.506 147.417 132.824 145.945C133.235 144.434 134.08 143.077 135.256 142.042C137.542 139.963 140.302 138.601 141.737 136.157C142.98 133.733 143.713 131.08 143.889 128.362C144.146 125.87 144.71 123.42 145.567 121.066C147.495 116.013 150.929 111.675 155.405 108.639C156.118 108.158 156.861 107.724 157.63 107.337C157.889 107.182 158.167 107.06 158.457 106.973C158.457 106.973 157.362 107.556 155.551 108.845C152.997 110.668 150.786 112.928 149.021 115.521C147.796 117.299 146.8 119.223 146.054 121.249C145.234 123.608 144.703 126.058 144.473 128.545C144.108 131.135 143.816 134.029 142.26 136.594C140.703 139.16 137.858 140.619 135.681 142.674C134.572 143.637 133.772 144.906 133.383 146.322C133.087 147.715 133.058 149.151 133.298 150.554C133.492 151.952 133.796 153.339 134.003 154.713C134.213 156.064 134.311 157.431 134.295 158.799C134.13 163.518 133.061 168.162 131.145 172.479C129.902 175.396 128.489 178.238 126.914 180.991L125.625 182.9C125.489 183.163 125.326 183.412 125.138 183.641Z" fill="#455A64"/>
<path d="M527.464 527.248C527.52 527.071 527.594 526.9 527.683 526.737C527.853 526.372 528.084 525.886 528.364 525.266C529.21 523.366 529.89 521.397 530.395 519.38C531.732 514.152 532.207 506.162 530.225 496.678C529.148 491.505 527.739 486.408 526.005 481.417C524.23 476.006 522.15 470.266 520.46 464.052C518.552 457.572 517.629 450.841 517.724 444.086C517.98 437.021 520.071 429.98 522.369 422.952C524.667 415.923 527.039 409.077 527.744 402.146C528.528 395.499 527.192 388.775 523.926 382.933C520.886 377.327 517.055 372.524 514.198 367.563C511.522 362.953 509.551 357.969 508.349 352.776C506.623 345.258 506.495 337.462 507.972 329.891C508.51 327.121 509.325 324.412 510.404 321.805C510.371 321.987 510.322 322.166 510.258 322.34L509.772 323.884C509.358 325.246 508.811 327.289 508.288 329.964C506.929 337.501 507.132 345.236 508.884 352.691C510.104 357.821 512.083 362.739 514.757 367.283C517.615 372.147 521.457 377.011 524.57 382.641C527.916 388.601 529.291 395.467 528.498 402.255C527.78 409.284 525.397 416.203 523.099 423.219C520.801 430.235 518.733 437.203 518.478 444.146C518.369 450.834 519.271 457.5 521.153 463.919C522.819 470.096 524.862 475.835 526.625 481.271C528.342 486.289 529.724 491.415 530.76 496.617C532.693 506.175 532.146 514.249 530.76 519.49C530.217 521.511 529.489 523.477 528.583 525.363L527.829 526.81C527.725 526.969 527.602 527.116 527.464 527.248Z" fill="#263238"/>
<path d="M518.089 372.464C518.089 372.464 512.276 353.847 522.71 342.951C522.791 342.864 522.894 342.8 523.009 342.768C523.124 342.736 523.246 342.736 523.36 342.769C523.475 342.802 523.578 342.866 523.659 342.954C523.739 343.042 523.794 343.15 523.816 343.268C524.376 346.344 525.069 355.707 518.089 372.464Z" fill="#4242FF"/>
<path d="M521.579 349.152C521.56 350.305 521.43 351.454 521.19 352.581C520.801 354.953 520.351 357.725 519.864 360.789C519.378 363.854 518.928 366.638 518.551 368.997C518.445 370.148 518.241 371.287 517.943 372.402C517.829 371.252 517.853 370.093 518.016 368.949C518.211 366.821 518.588 363.902 519.11 360.692C519.633 357.482 520.205 354.612 520.655 352.509C520.832 351.358 521.142 350.232 521.579 349.152Z" fill="#263238"/>
<path d="M524.923 416.373C524.923 416.373 528.486 397.196 542.81 392.454C542.923 392.415 543.045 392.407 543.162 392.433C543.278 392.459 543.386 392.517 543.471 392.6C543.557 392.683 543.618 392.789 543.647 392.905C543.677 393.021 543.673 393.142 543.637 393.256C542.689 396.211 538.931 404.809 524.923 416.373Z" fill="#4242FF"/>
<path d="M538.907 397.379C538.352 398.392 537.7 399.349 536.961 400.237L531.939 406.864L526.954 413.515C526.326 414.48 525.614 415.388 524.826 416.227C525.27 415.157 525.841 414.144 526.528 413.211C527.744 411.424 529.398 409.016 531.392 406.426C533.386 403.836 535.198 401.562 536.572 399.908C537.255 398.982 538.038 398.134 538.907 397.379Z" fill="#263238"/>
<path d="M521.056 464.441C521.056 464.441 518.892 445.058 531.222 436.364C531.317 436.289 531.431 436.244 531.551 436.232C531.671 436.221 531.792 436.244 531.9 436.299C532.007 436.354 532.096 436.438 532.157 436.543C532.218 436.647 532.248 436.766 532.243 436.887C532.207 440.012 531.1 449.326 521.056 464.441Z" fill="#4242FF"/>
<path d="M528.96 442.226C528.734 443.358 528.387 444.462 527.926 445.521L525.057 453.328C523.986 456.246 523.026 458.885 522.211 461.134C521.899 462.241 521.492 463.32 520.995 464.357C521.108 463.203 521.361 462.068 521.749 460.976C522.345 458.933 523.269 456.112 524.4 453.072C525.531 450.032 526.637 447.296 527.476 445.339C527.864 444.253 528.361 443.21 528.96 442.226Z" fill="#263238"/>
<path d="M531.842 512.814C531.842 512.814 530.383 493.358 543.005 485.114C543.104 485.046 543.219 485.007 543.339 485.001C543.459 484.995 543.578 485.023 543.683 485.081C543.788 485.139 543.874 485.225 543.933 485.33C543.991 485.434 544.019 485.553 544.014 485.673C543.868 488.798 542.433 498.076 531.842 512.814Z" fill="#4242FF"/>
<path d="M540.5 490.901C540.228 492.024 539.841 493.116 539.345 494.16C538.445 496.373 537.375 499.024 536.195 501.858C535.016 504.691 533.982 507.33 533.082 509.555C532.722 510.652 532.262 511.715 531.708 512.729C531.87 511.578 532.168 510.452 532.596 509.372C533.265 507.354 534.286 504.581 535.526 501.578C536.767 498.574 537.958 495.875 538.87 493.954C539.303 492.881 539.85 491.858 540.5 490.901Z" fill="#263238"/>
<path d="M509.723 356.107C509.723 356.107 492.48 347.06 492.103 331.994C492.102 331.876 492.133 331.76 492.193 331.658C492.252 331.556 492.338 331.472 492.441 331.414C492.545 331.357 492.662 331.329 492.78 331.332C492.898 331.336 493.013 331.371 493.112 331.435C495.678 333.21 502.804 339.339 509.723 356.107Z" fill="#4242FF"/>
<path d="M495.69 337.176C496.5 338.003 497.221 338.912 497.842 339.887C499.253 341.821 500.895 344.107 502.706 346.624L507.57 353.336C508.311 354.219 508.971 355.168 509.54 356.17C508.651 355.43 507.855 354.584 507.169 353.653C505.795 352.023 503.995 349.688 502.098 347.05C500.202 344.411 498.536 341.967 497.393 340.179C496.722 339.24 496.152 338.233 495.69 337.176Z" fill="#263238"/>
<path d="M528.291 396.077C528.291 396.077 510.489 388.112 509.236 373.07C509.226 372.952 509.249 372.834 509.302 372.727C509.355 372.621 509.436 372.532 509.537 372.469C509.638 372.406 509.754 372.372 509.872 372.371C509.991 372.37 510.107 372.402 510.209 372.462C512.872 374.08 520.351 379.746 528.291 396.077Z" fill="#4242FF"/>
<path d="M513.152 378.033C514.01 378.805 514.784 379.665 515.462 380.599L520.74 387.032L526.03 393.44C526.822 394.279 527.538 395.186 528.17 396.152C527.237 395.463 526.388 394.667 525.64 393.78C524.181 392.224 522.236 390.011 520.181 387.494C518.126 384.977 516.326 382.63 515.061 380.915C514.32 380.028 513.68 379.061 513.152 378.033Z" fill="#263238"/>
<path d="M518.016 440.694C518.016 440.694 505.856 425.494 511.535 411.51C511.58 411.4 511.654 411.305 511.75 411.234C511.845 411.164 511.958 411.122 512.076 411.112C512.195 411.102 512.313 411.124 512.419 411.177C512.525 411.231 512.615 411.312 512.678 411.412C514.368 414.051 518.417 422.514 518.016 440.694Z" fill="#4242FF"/>
<path d="M512.763 417.687C513.179 418.767 513.48 419.887 513.663 421.031C514.174 423.365 514.769 426.113 515.426 429.153C516.083 432.193 516.703 434.929 517.213 437.264C517.539 438.372 517.763 439.508 517.882 440.657C517.348 439.623 516.94 438.529 516.666 437.398C516.07 435.343 515.341 432.534 514.66 429.299C513.979 426.065 513.444 423.219 513.103 421.128C512.864 419.997 512.75 418.843 512.763 417.687Z" fill="#263238"/>
<path d="M530.176 493.115C530.176 493.115 512.508 484.858 511.51 469.804C511.499 469.684 511.521 469.563 511.574 469.455C511.628 469.347 511.711 469.256 511.813 469.193C511.916 469.129 512.034 469.096 512.155 469.097C512.275 469.097 512.393 469.132 512.495 469.196C515.11 470.862 522.491 476.662 530.176 493.115Z" fill="#4242FF"/>
<path d="M515.304 474.813C516.14 475.611 516.897 476.486 517.566 477.428L522.734 483.933L527.914 490.439C528.693 491.29 529.393 492.21 530.006 493.187C529.1 492.477 528.284 491.661 527.574 490.755C526.127 489.174 524.23 486.925 522.211 484.371C520.193 481.818 518.441 479.446 517.201 477.708C516.458 476.82 515.822 475.849 515.304 474.813Z" fill="#263238"/>
<path d="M565.331 416.458C565.331 416.458 565.331 416.604 565.331 416.884C565.331 417.163 565.331 417.625 565.331 418.1C565.331 419.316 565.209 420.86 565.124 422.83C564.905 426.989 564.577 432.789 564.2 439.72C562.984 446.773 559.336 454.592 554.472 462.192C550.933 467.785 547.176 472.868 544.014 477.598C541.128 481.75 538.536 486.097 536.256 490.61C534.746 493.659 533.525 496.842 532.608 500.119C532.304 501.274 532.061 502.186 531.927 502.806C531.87 503.129 531.784 503.446 531.672 503.755C531.676 503.427 531.717 503.101 531.793 502.782C531.878 502.15 532.061 501.225 532.34 500.046C533.159 496.712 534.32 493.473 535.806 490.379C538.066 485.831 540.655 481.454 543.552 477.282C546.738 472.516 550.422 467.421 553.949 461.863C558.752 454.3 562.327 446.603 563.677 439.659C564.163 432.74 564.564 426.952 564.893 422.793C565.051 420.823 565.185 419.255 565.282 418.075C565.282 417.589 565.367 417.175 565.403 416.859C565.362 416.729 565.338 416.594 565.331 416.458Z" fill="#263238"/>
<path d="M554.812 460.794C554.812 460.794 562.29 442.797 552.891 430.989C552.818 430.895 552.72 430.822 552.608 430.78C552.497 430.738 552.375 430.727 552.258 430.75C552.141 430.773 552.032 430.828 551.944 430.909C551.856 430.989 551.792 431.093 551.76 431.208C550.921 434.224 549.377 443.478 554.812 460.794Z" fill="#4242FF"/>
<path d="M553.45 437.276C553.773 438.386 553.972 439.528 554.046 440.681C554.313 442.797 554.605 445.728 554.836 448.974C555.067 452.221 555.177 455.164 555.177 457.304C555.25 458.459 555.18 459.619 554.97 460.757C554.76 459.622 554.658 458.47 554.666 457.316C554.508 454.884 554.313 452.124 554.107 449.023C553.9 445.922 553.705 443.113 553.535 440.73C553.394 439.584 553.365 438.428 553.45 437.276Z" fill="#263238"/>
<g opacity="0.3">
<path d="M554.812 460.794C554.812 460.794 562.29 442.797 552.891 430.989C552.818 430.895 552.72 430.822 552.608 430.78C552.497 430.738 552.375 430.727 552.258 430.75C552.141 430.773 552.032 430.828 551.944 430.909C551.856 430.989 551.792 431.093 551.76 431.208C550.921 434.224 549.377 443.478 554.812 460.794Z" fill="black"/>
</g>
<path d="M531.647 504.193C531.647 504.193 537.642 485.637 527.306 474.644C527.226 474.556 527.123 474.493 527.009 474.46C526.895 474.427 526.774 474.426 526.66 474.458C526.545 474.489 526.442 474.551 526.361 474.638C526.279 474.725 526.224 474.832 526.2 474.948C525.616 478.012 524.826 487.376 531.647 504.193Z" fill="#4242FF"/>
<path d="M528.376 480.821C528.798 481.902 529.091 483.029 529.252 484.177C529.69 486.257 530.212 489.163 530.711 492.373C531.21 495.584 531.55 498.514 531.732 500.642C531.89 501.791 531.911 502.954 531.793 504.108C531.504 502.991 531.309 501.852 531.21 500.703C530.857 498.332 530.443 495.559 529.994 492.483C529.544 489.406 529.106 486.634 528.778 484.263C528.531 483.131 528.397 481.979 528.376 480.821Z" fill="#263238"/>
<g opacity="0.3">
<path d="M531.647 504.193C531.647 504.193 537.642 485.637 527.306 474.644C527.226 474.556 527.123 474.493 527.009 474.46C526.895 474.427 526.774 474.426 526.66 474.458C526.545 474.489 526.442 474.551 526.361 474.638C526.279 474.725 526.224 474.832 526.2 474.948C525.616 478.012 524.826 487.376 531.647 504.193Z" fill="black"/>
</g>
<path d="M564.346 438.795C564.346 438.795 580.312 427.608 578.707 412.602C578.694 412.485 578.65 412.372 578.577 412.278C578.505 412.184 578.409 412.111 578.298 412.069C578.187 412.026 578.067 412.015 577.95 412.036C577.834 412.057 577.725 412.11 577.637 412.189C575.314 414.281 569.088 421.236 564.346 438.795Z" fill="#4242FF"/>
<g opacity="0.3">
<path d="M564.346 438.795C564.346 438.795 580.312 427.608 578.707 412.602C578.694 412.485 578.65 412.372 578.577 412.278C578.505 412.184 578.409 412.111 578.298 412.069C578.187 412.026 578.067 412.015 577.95 412.036C577.834 412.057 577.725 412.11 577.637 412.189C575.314 414.281 569.088 421.236 564.346 438.795Z" fill="black"/>
</g>
<path d="M575.812 418.209C575.496 419.323 575.051 420.396 574.487 421.407C573.575 423.328 572.25 425.955 570.705 428.825C569.161 431.694 567.677 434.236 566.534 436.036C565.972 437.046 565.29 437.985 564.504 438.832C564.931 437.762 565.46 436.736 566.084 435.768C567.227 433.664 568.577 431.208 570.061 428.472L574.025 421.176C574.523 420.131 575.121 419.137 575.812 418.209Z" fill="#263238"/>
<path d="M538.092 485.795C538.092 485.795 557.354 482.791 562.51 468.612C562.551 468.502 562.562 468.382 562.54 468.266C562.518 468.149 562.465 468.041 562.386 467.954C562.307 467.866 562.205 467.801 562.092 467.767C561.978 467.733 561.858 467.731 561.743 467.761C558.74 468.661 550.033 472.127 538.092 485.795Z" fill="#4242FF"/>
<g opacity="0.3">
<path d="M538.092 485.795C538.092 485.795 557.354 482.791 562.51 468.612C562.551 468.502 562.562 468.382 562.54 468.266C562.518 468.149 562.465 468.041 562.386 467.954C562.307 467.866 562.205 467.801 562.092 467.767C561.978 467.733 561.858 467.731 561.743 467.761C558.74 468.661 550.033 472.127 538.092 485.795Z" fill="black"/>
</g>
<path d="M557.451 472.37C556.67 473.222 555.798 473.985 554.849 474.644C553.183 475.982 550.836 477.757 548.197 479.654C545.558 481.551 543.09 483.168 541.266 484.287C540.315 484.95 539.286 485.493 538.202 485.904C539.065 485.135 539.997 484.447 540.986 483.849L547.772 479.058L554.545 474.194C555.446 473.485 556.42 472.873 557.451 472.37Z" fill="#263238"/>
<path d="M519.706 521.253L514.088 559.071H549.109L544.574 521.253H519.706Z" fill="#455A64"/>
<path d="M545.984 532.963C545.984 533.169 539.661 533.327 531.866 533.327C524.072 533.327 517.736 533.169 517.736 532.963C522.437 532.602 527.153 532.481 531.866 532.598C536.575 532.481 541.287 532.602 545.984 532.963Z" fill="#263238"/>
<path d="M546.665 535.979C546.665 536.186 540.135 536.344 532.073 536.344C524.011 536.344 517.481 536.186 517.481 535.979C517.481 535.772 524.011 535.614 532.073 535.614C540.135 535.614 546.665 535.772 546.665 535.979Z" fill="#263238"/>
<path d="M410.485 154.372C410.485 154.372 410.157 154.372 409.524 154.372C408.601 154.317 407.675 154.317 406.752 154.372C403.18 154.581 399.672 155.404 396.379 156.804C391.161 158.991 386.619 162.53 383.222 167.055C381.128 169.88 379.57 173.066 378.626 176.454C376.498 184.525 377.647 193.11 381.824 200.337C382.962 202.337 384.352 204.184 385.958 205.833C387.579 207.58 389.467 209.057 391.552 210.211C393.691 211.415 396.114 212.023 398.568 211.974C401.099 211.943 403.525 210.962 405.366 209.226C406.255 208.293 406.953 207.195 407.418 205.993C407.883 204.791 408.107 203.51 408.077 202.221C408.059 199.545 407.209 196.94 405.645 194.767C402.496 190.329 397.389 187.35 391.953 185.745C386.317 184.162 380.365 184.078 374.686 185.501C371.787 186.256 368.993 187.367 366.369 188.809C363.718 190.304 361.312 192.195 359.231 194.415C358.732 194.986 358.161 195.509 357.711 196.141L356.337 197.99C355.501 199.292 354.754 200.649 354.099 202.051C352.798 204.898 351.91 207.916 351.46 211.013C350.578 217.201 351.419 223.513 353.892 229.253C356.256 234.862 360.373 239.555 365.627 242.629C368.174 244.085 371.017 244.945 373.944 245.146C376.814 245.307 379.668 244.622 382.152 243.176C384.618 241.814 386.567 239.677 387.697 237.096C388.764 234.553 388.837 231.702 387.904 229.107C386.943 226.603 385.371 224.38 383.332 222.638C381.354 220.929 379.073 219.605 376.607 218.735C371.799 217.219 366.654 217.13 361.796 218.479C357.251 219.711 353.076 222.036 349.636 225.253C346.503 228.254 344.117 231.948 342.669 236.038C340.136 243.135 340.252 250.909 342.997 257.926C345.138 263.166 348.583 267.77 353.005 271.302C355.79 273.536 358.892 275.344 362.21 276.665C363.353 277.091 364.241 277.407 364.849 277.577L365.748 277.869C365.748 277.869 365.432 277.808 364.824 277.638C363.926 277.397 363.041 277.109 362.173 276.774C358.812 275.511 355.67 273.731 352.859 271.497C348.362 267.967 344.849 263.34 342.657 258.06C339.863 250.976 339.721 243.122 342.255 235.941C343.706 231.789 346.119 228.039 349.296 224.997C352.784 221.717 357.021 219.337 361.638 218.066C366.598 216.682 371.853 216.767 376.765 218.309C379.303 219.194 381.651 220.552 383.684 222.31C385.804 224.108 387.435 226.413 388.427 229.01C389.427 231.721 389.383 234.707 388.305 237.388C387.106 240.07 385.071 242.293 382.505 243.724C379.929 245.225 376.971 245.943 373.993 245.791C370.995 245.582 368.084 244.692 365.481 243.189C360.107 240.071 355.888 235.297 353.455 229.581C350.928 223.736 350.062 217.307 350.95 211.001C351.414 207.841 352.323 204.762 353.649 201.857C354.317 200.425 355.081 199.039 355.935 197.71L357.346 195.825C357.796 195.181 358.379 194.609 358.89 194.05C361.02 191.788 363.48 189.861 366.186 188.335C368.872 186.865 371.732 185.737 374.698 184.979C380.485 183.528 386.551 183.616 392.294 185.234C397.839 186.888 403.031 189.916 406.302 194.512C407.946 196.775 408.839 199.497 408.856 202.294C408.915 205.047 407.878 207.711 405.974 209.7C404.028 211.526 401.467 212.555 398.799 212.582C396.246 212.64 393.725 212.005 391.503 210.746C389.369 209.568 387.439 208.053 385.788 206.259C384.16 204.573 382.751 202.69 381.593 200.653C377.342 193.292 376.187 184.545 378.383 176.333C379.356 172.905 380.951 169.686 383.089 166.836C386.548 162.276 391.167 158.728 396.465 156.561C399.784 155.187 403.32 154.413 406.91 154.275C407.841 154.213 408.776 154.213 409.707 154.275L410.485 154.372Z" fill="#263238"/>
<path d="M451.087 276.045H280.592V407.543H451.087V276.045Z" fill="#4242FF"/>
<path d="M280.592 276.045L312.086 305.423H479.688L451.087 276.045H280.592Z" fill="#4242FF"/>
<path d="M280.592 276.044L451.136 275.74H451.27L451.367 275.825L479.676 304.9L479.967 305.204L480.49 305.739H479.736L312.135 305.605H312.062L280.592 276.044L312.208 305.228H312.074L479.676 305.107L479.457 305.642L479.153 305.338L450.856 276.263L451.075 276.36L280.592 276.044Z" fill="#263238"/>
<path d="M331.81 336.688C330.886 336.721 330.013 337.116 329.377 337.787C328.742 338.458 328.395 339.351 328.412 340.275C328.428 341.199 328.807 342.08 329.467 342.728C330.126 343.375 331.013 343.738 331.938 343.738C332.862 343.738 333.749 343.375 334.408 342.728C335.068 342.08 335.447 341.199 335.463 340.275C335.48 339.351 335.133 338.458 334.498 337.787C333.862 337.116 332.989 336.721 332.065 336.688" fill="#263238"/>
<path d="M372.096 336.688C371.176 336.723 370.307 337.117 369.675 337.786C369.043 338.455 368.699 339.346 368.716 340.266C368.734 341.186 369.112 342.063 369.769 342.708C370.426 343.352 371.309 343.713 372.23 343.713C373.15 343.713 374.034 343.352 374.691 342.708C375.348 342.063 375.726 341.186 375.743 340.266C375.761 339.346 375.417 338.455 374.785 337.786C374.153 337.117 373.283 336.723 372.364 336.688" fill="#263238"/>
<path d="M372.327 368.157C371.624 365.471 370.482 362.919 368.946 360.606C367.239 358.131 365.046 356.029 362.502 354.428C359.432 352.391 355.851 351.257 352.169 351.156C348.486 351.055 344.848 351.991 341.672 353.857C339.048 355.322 336.745 357.298 334.898 359.669C333.236 361.897 331.958 364.388 331.117 367.038C331.126 366.84 331.159 366.645 331.214 366.454C331.33 365.907 331.481 365.366 331.664 364.837C332.33 362.884 333.303 361.049 334.546 359.402C336.379 356.92 338.711 354.849 341.392 353.322C344.651 351.376 348.396 350.398 352.19 350.502C355.984 350.605 359.67 351.785 362.818 353.905C365.406 355.569 367.618 357.756 369.311 360.326C370.466 362.041 371.341 363.929 371.901 365.919C372.051 366.459 372.169 367.007 372.254 367.561C372.296 367.757 372.32 367.956 372.327 368.157Z" fill="#263238"/>
<path opacity="0.5" d="M280.981 277.492L311.138 315.723H451.087V305.424H312.086L280.981 277.492Z" fill="black"/>
<path d="M417.465 407.251C417.295 407.251 417.149 384.378 417.149 356.179C417.149 327.98 417.295 305.107 417.465 305.107C417.635 305.107 417.793 327.968 417.793 356.179C417.793 384.391 417.647 407.251 417.465 407.251Z" fill="#263238"/>
<path d="M444.241 377.436H429.211V394.423H444.241V377.436Z" fill="#F5F5F5"/>
<path d="M280.592 276.045L245.595 305.423H280.592V276.045Z" fill="#4242FF"/>
<g opacity="0.4">
<path d="M280.592 276.045L245.595 305.423H280.592V276.045Z" fill="black"/>
</g>
<path d="M456.121 407.543H260.09V558.74H456.121V407.543Z" fill="#4242FF"/>
<path opacity="0.3" d="M456.121 407.543H260.09V558.74H456.121V407.543Z" fill="black"/>
<path d="M407.007 557.671C406.837 557.671 406.691 523.976 406.691 482.413C406.691 440.85 406.837 407.143 407.007 407.143C407.178 407.143 407.323 440.838 407.323 482.413C407.323 523.988 407.178 557.671 407.007 557.671Z" fill="#263238"/>
<path d="M439.499 524.328H424.469V541.316H439.499V524.328Z" fill="#F5F5F5"/>
<path d="M342.158 407.945H319.893V440.206H342.158V407.945Z" fill="#263238"/>
<path d="M342.158 526.03H319.893V558.291H342.158V526.03Z" fill="#263238"/>
<path d="M454.419 407.544H453.908H452.437L446.783 407.605L425.953 407.702L357.261 407.86L288.544 407.775L267.727 407.677L262.072 407.617L267.727 407.556L288.544 407.459L357.261 407.361L425.953 407.459L446.783 407.556L452.437 407.617H453.908L454.419 407.544Z" fill="#263238"/>
<path d="M118.463 145.776L97.1096 140.523H97.2677C91.7543 144.03 85.3787 145.945 78.8453 146.056C74.9774 146.073 71.1287 145.512 67.4271 144.39C60.9192 142.3 55.1456 138.391 50.7885 133.125C46.4315 127.858 43.6732 121.455 42.8396 114.671C42.1848 109.54 42.6668 104.328 44.2513 99.4043C45.8358 94.4806 48.484 89.9657 52.0082 86.1798C53.8608 84.1449 55.9371 82.3257 58.1976 80.7564C59.3407 80.039 60.4837 79.2973 61.6754 78.6771L63.4872 77.8016L64.3871 77.3638L65.3356 77.0233C70.2183 75.1307 75.4562 74.3296 80.6815 74.6764C87.6844 75.1311 94.3959 77.6486 99.9703 81.9117C105.545 86.1747 109.732 91.9924 112.006 98.6316C113.269 102.346 113.934 106.237 113.976 110.159C114.006 116.678 112.234 123.079 108.856 128.655V128.46C114.79 139.173 117.782 144.584 118.45 145.776C117.757 144.56 114.657 139.246 108.516 128.643V128.545V128.448C111.773 122.926 113.455 116.618 113.38 110.208C113.323 106.348 112.65 102.522 111.385 98.8748C109.137 92.3714 105.02 86.6758 99.5496 82.5012C94.0793 78.3266 87.4991 75.8586 80.6328 75.406C75.5105 75.0722 70.377 75.8607 65.5909 77.7164L64.6668 78.0448L63.7791 78.4825L62.0037 79.3337C60.7877 79.9539 59.7176 80.6713 58.5868 81.3766C56.3698 82.9037 54.3305 84.6739 52.5068 86.654C49.047 90.3707 46.4465 94.8024 44.8894 99.6354C43.3324 104.469 42.8567 109.585 43.4962 114.622C44.6236 123.851 49.3582 132.258 56.6655 138.006C59.9324 140.594 63.6399 142.572 67.6095 143.843C71.2446 144.966 75.0283 145.536 78.8332 145.533C85.2882 145.464 91.5994 143.617 97.0732 140.195H97.1461H97.2799L118.463 145.776Z" fill="#263238"/>
<path d="M75.3918 94.4963L76.4741 112.372C76.5173 113.077 76.8168 113.741 77.3163 114.241C77.8158 114.74 78.4807 115.04 79.1858 115.083C79.9276 115.125 80.6574 114.881 81.225 114.402C81.7927 113.922 82.1552 113.244 82.2379 112.505L84.22 94.5936C84.2545 94.2731 84.2205 93.949 84.1202 93.6427C84.02 93.3364 83.8557 93.0549 83.6384 92.8169C83.4211 92.5788 83.1556 92.3897 82.8597 92.2621C82.5637 92.1344 82.244 92.0712 81.9218 92.0765H77.5806C77.276 92.0856 76.9764 92.1561 76.6997 92.2839C76.423 92.4116 76.175 92.594 75.9706 92.82C75.7662 93.046 75.6095 93.311 75.5101 93.5991C75.4106 93.8871 75.3704 94.1923 75.3918 94.4963Z" fill="#4242FF"/>
<path d="M83.9039 125.067C83.6318 125.884 83.1238 126.602 82.444 127.129C81.7642 127.657 80.9431 127.972 80.0846 128.033C79.2261 128.095 78.3687 127.9 77.6206 127.475C76.8726 127.049 76.2676 126.411 75.882 125.641C75.4964 124.872 75.3475 124.005 75.4543 123.151C75.561 122.297 75.9185 121.494 76.4816 120.843C77.0447 120.192 77.7881 119.723 78.6179 119.494C79.4477 119.266 80.3266 119.288 81.1436 119.559C81.6868 119.739 82.1892 120.024 82.622 120.399C83.0548 120.773 83.4095 121.229 83.6659 121.741C83.9223 122.253 84.0753 122.81 84.1161 123.38C84.157 123.951 84.0849 124.525 83.9039 125.067Z" fill="#4242FF"/>
</svg>
