<svg width="500" height="500" viewBox="0 0 500 500" fill="none" xmlns="http://www.w3.org/2000/svg">
<path d="M500 382.4H0V382.65H500V382.4Z" fill="#EBEBEB"/>
<path d="M315.67 389.211H290.21V389.461H315.67V389.211Z" fill="#EBEBEB"/>
<path d="M455.44 394.619H395.11V394.869H455.44V394.619Z" fill="#EBEBEB"/>
<path d="M284.79 389.33H222.46V389.58H284.79V389.33Z" fill="#EBEBEB"/>
<path d="M182.04 396.811H169V397.061H182.04V396.811Z" fill="#EBEBEB"/>
<path d="M254.09 396.811H194.71V397.061H254.09V396.811Z" fill="#EBEBEB"/>
<path d="M90.91 392.59H52.46V392.84H90.91V392.59Z" fill="#EBEBEB"/>
<path d="M237 337.8H43.91C42.3973 337.797 40.9475 337.195 39.8788 336.124C38.8102 335.053 38.21 333.603 38.21 332.09V60.66C38.2231 59.156 38.8292 57.718 39.8964 56.6582C40.9637 55.5985 42.4059 55.0026 43.91 55H237C238.514 55 239.967 55.6016 241.038 56.6724C242.108 57.7433 242.71 59.1956 242.71 60.71V332.09C242.71 333.604 242.108 335.057 241.038 336.128C239.967 337.198 238.514 337.8 237 337.8ZM43.91 55.2C42.4636 55.2026 41.0774 55.7791 40.0556 56.8027C39.0338 57.8264 38.46 59.2136 38.46 60.66V332.09C38.46 333.536 39.0338 334.924 40.0556 335.947C41.0774 336.971 42.4636 337.547 43.91 337.55H237C238.447 337.547 239.834 336.971 240.858 335.948C241.881 334.924 242.457 333.537 242.46 332.09V60.66C242.457 59.2127 241.881 57.8255 240.858 56.8021C239.834 55.7787 238.447 55.2026 237 55.2H43.91Z" fill="#EBEBEB"/>
<path d="M453.31 337.8H260.21C258.696 337.797 257.246 337.195 256.175 336.125C255.105 335.054 254.503 333.604 254.5 332.09V60.66C254.516 59.1551 255.124 57.7171 256.193 56.6576C257.262 55.5981 258.705 55.0025 260.21 55H453.31C454.812 55.0052 456.252 55.6022 457.317 56.6617C458.382 57.7212 458.987 59.1578 459 60.66V332.09C459 333.601 458.401 335.05 457.335 336.121C456.268 337.191 454.821 337.795 453.31 337.8ZM260.21 55.2C258.763 55.2026 257.375 55.7787 256.352 56.8021C255.329 57.8255 254.753 59.2127 254.75 60.66V332.09C254.753 333.537 255.329 334.924 256.352 335.948C257.375 336.971 258.763 337.547 260.21 337.55H453.31C454.757 337.547 456.145 336.971 457.168 335.948C458.191 334.924 458.767 333.537 458.77 332.09V60.66C458.767 59.2127 458.191 57.8255 457.168 56.8021C456.145 55.7787 454.757 55.2026 453.31 55.2H260.21Z" fill="#EBEBEB"/>
<path d="M195.96 295.67H129.56L125.53 249.17H191.93L195.96 295.67Z" fill="#E6E6E6"/>
<path d="M199.4 295.67H133L128.97 249.17H195.37L199.4 295.67Z" fill="#F0F0F0"/>
<path d="M142.08 285.68L139.86 259.15H186.29L188.51 285.68H142.08Z" fill="white"/>
<path d="M210.89 295.67H203.1V382.4H210.89V295.67Z" fill="#E6E6E6"/>
<path d="M213.35 295.67H207.94V382.4H213.35V295.67Z" fill="#F0F0F0"/>
<path d="M137.94 305.24H213.35V295.67H137.94V305.24Z" fill="#F0F0F0"/>
<path d="M140.6 305.24H132.81V382.4H140.6V305.24Z" fill="#E6E6E6"/>
<path d="M143.06 305.24H137.65V382.4H143.06V305.24Z" fill="#F0F0F0"/>
<path d="M85.15 305.24H77.36V382.4H85.15V305.24Z" fill="#E6E6E6"/>
<path d="M87.61 305.24H82.2V382.4H87.61V305.24Z" fill="#F0F0F0"/>
<path d="M161.59 305.24H153.8V382.4H161.59V305.24Z" fill="#E6E6E6"/>
<path d="M164.04 305.24H158.63V382.4H164.04V305.24Z" fill="#F0F0F0"/>
<path d="M137.94 295.67H77.36V305.24H137.94V295.67Z" fill="#E6E6E6"/>
<path d="M363.84 79.4102H129.51V209.87H363.84V79.4102Z" fill="#E0E0E0"/>
<path d="M376.71 79.4102H130.69V209.87H376.71V79.4102Z" fill="#F5F5F5"/>
<path d="M372.69 205.85V83.4297L134.71 83.4297V205.85H372.69Z" fill="white"/>
<path d="M231.07 205.85L276 83.4297H201.85L156.92 205.85H231.07Z" fill="#F5F5F5"/>
<path d="M302.44 205.85L347.37 83.4297H291.43L246.5 205.85H302.44Z" fill="#F5F5F5"/>
<path d="M438.11 257.801H418.19V382.401H438.11V257.801Z" fill="#E6E6E6"/>
<path d="M432.87 382.401H438.11V372.811H427.38L432.87 382.401Z" fill="#FAFAFA"/>
<path d="M254.45 257.801H234.53V382.401H254.45V257.801Z" fill="#E6E6E6"/>
<path d="M438.11 257.801H249.88V379.811H438.11V257.801Z" fill="#FAFAFA"/>
<path d="M434.55 297.171H253.45V262.711H434.55V297.171ZM254.45 296.171H433.55V263.711H254.45V296.171Z" fill="#E6E6E6"/>
<path d="M402.67 279.439H288.84C283.56 279.439 278.47 275.179 274.84 267.739L274.5 267.029H417L416.66 267.739C413 275.179 408 279.439 402.67 279.439ZM276.14 267.999C279.52 274.629 284.14 278.409 288.84 278.409H402.67C407.39 278.409 411.99 274.629 415.37 267.999H276.14Z" fill="#E6E6E6"/>
<path d="M255.12 382.401H249.88V372.811H260.61L255.12 382.401Z" fill="#FAFAFA"/>
<path d="M434.55 336H253.45V301.58H434.55V336ZM254.45 335H433.55V302.58H254.45V335Z" fill="#E6E6E6"/>
<path d="M402.67 318.311H288.84C283.56 318.311 278.47 314.041 274.84 306.611L274.5 305.891H417L416.66 306.611C413 314.001 408 318.311 402.67 318.311ZM276.14 306.891C279.52 313.521 284.14 317.311 288.84 317.311H402.67C407.39 317.311 411.99 313.521 415.37 306.891H276.14Z" fill="#E6E6E6"/>
<path d="M434.55 374.899H253.45V340.439H434.55V374.899ZM254.45 373.899H433.55V341.439H254.45V373.899Z" fill="#E6E6E6"/>
<path d="M402.67 357.17H288.84C283.56 357.17 278.47 352.91 274.84 345.48L274.5 344.76H417L416.66 345.48C413 352.91 408 357.17 402.67 357.17ZM276.14 345.76C279.52 352.39 284.14 356.17 288.84 356.17H402.67C407.39 356.17 411.99 352.39 415.37 345.76H276.14Z" fill="#E6E6E6"/>
<path d="M120.98 274.279V276.699H119.44L118.16 295.669H99.32L98.05 276.699H96.5V274.279H120.98Z" fill="#E6E6E6"/>
<path d="M114.78 227.209C113.24 215.909 97.99 212.689 78.64 212.269C60.23 211.879 54.33 205.369 54.33 205.369C54.33 205.369 54.39 231.739 80.92 241.299C106.11 250.359 116.33 238.529 114.78 227.209Z" fill="#E6E6E6"/>
<path d="M105.38 252.821C105.7 248.181 113.12 239.641 130.97 243.521C143.87 246.331 148.67 239.641 148.67 239.641C148.67 239.641 147.47 258.521 128.07 264.191C109.64 269.581 104.81 261.001 105.38 252.821Z" fill="#E6E6E6"/>
<path d="M109.45 281.399C109.551 281.4 109.65 281.379 109.742 281.338C109.833 281.296 109.914 281.235 109.98 281.159C111.27 279.629 110.21 275.969 108.75 270.899C106.87 264.399 104.53 256.299 106.51 250.429C107.608 247.329 108.89 244.296 110.35 241.349C113.15 235.429 115.57 230.349 113.55 224.969C113.519 224.884 113.47 224.805 113.408 224.738C113.346 224.671 113.272 224.617 113.189 224.58C113.106 224.542 113.016 224.521 112.925 224.518C112.834 224.515 112.743 224.53 112.658 224.563C112.572 224.595 112.494 224.644 112.428 224.707C112.362 224.769 112.309 224.845 112.272 224.928C112.235 225.011 112.215 225.101 112.213 225.192C112.211 225.284 112.227 225.374 112.26 225.459C114.07 230.249 111.88 234.889 109.1 240.769C107.621 243.764 106.319 246.842 105.2 249.989C103.09 256.269 105.49 264.599 107.42 271.279C108.56 275.279 109.74 279.279 108.93 280.279C108.866 280.348 108.817 280.43 108.785 280.519C108.754 280.608 108.742 280.703 108.75 280.797C108.757 280.891 108.784 280.982 108.829 281.065C108.874 281.148 108.936 281.221 109.01 281.279C109.138 281.37 109.294 281.413 109.45 281.399Z" fill="#E6E6E6"/>
<path d="M250 427.56C357.082 427.56 443.89 422.492 443.89 416.24C443.89 409.988 357.082 404.92 250 404.92C142.917 404.92 56.11 409.988 56.11 416.24C56.11 422.492 142.917 427.56 250 427.56Z" fill="#F5F5F5"/>
<path d="M249.96 361.05H107.96L100.19 132.68H242.19L249.96 361.05Z" fill="#4242FF"/>
<path d="M257.05 353.96H115.05L107.27 125.59H249.27L257.05 353.96Z" fill="#4242FF"/>
<path opacity="0.3" d="M257.05 353.96H115.05L107.27 125.59H249.27L257.05 353.96Z" fill="white"/>
<path d="M209.473 219.563C224.677 204.097 224.03 178.806 208.028 163.075C192.026 147.345 166.728 147.131 151.524 162.597C136.32 178.064 136.966 203.354 152.969 219.085C168.971 234.815 194.268 235.029 209.473 219.563Z" fill="#4242FF"/>
<path d="M213.47 191.091C213.674 196.532 212.487 201.936 210.02 206.791C207.357 212.022 203.289 216.408 198.273 219.457C193.257 222.506 187.49 224.097 181.62 224.051C175.612 224.018 169.718 222.406 164.53 219.377C159.341 216.348 155.041 212.007 152.06 206.791C149.28 202.011 147.727 196.617 147.54 191.091C147.355 186.806 148.044 182.528 149.564 178.517C151.084 174.507 153.403 170.847 156.381 167.761C159.359 164.674 162.934 162.225 166.887 160.563C170.841 158.901 175.091 158.06 179.38 158.091C188.215 158.153 196.687 161.617 203.035 167.762C209.383 173.907 213.12 182.262 213.47 191.091Z" fill="white"/>
<path opacity="0.6" d="M210 206.79C207.337 212.022 203.27 216.408 198.253 219.457C193.237 222.506 187.47 224.096 181.6 224.05C175.592 224.018 169.698 222.406 164.51 219.377C159.322 216.347 155.021 212.007 152.04 206.79C160.497 201.024 170.504 197.96 180.74 198C191.14 198.023 201.309 201.078 210 206.79Z" fill="#4242FF"/>
<path opacity="0.6" d="M190.772 190.268C196.363 184.581 196.125 175.282 190.241 169.497C184.356 163.713 175.054 163.634 169.464 169.322C163.873 175.009 164.111 184.308 169.995 190.093C175.879 195.877 185.181 195.956 190.772 190.268Z" fill="#4242FF"/>
<path d="M228.52 271.26H137.94L137.33 253.26H227.91L228.52 271.26Z" fill="white"/>
<path d="M229.62 303.43H139.03L138.42 285.43H229.01L229.62 303.43Z" fill="white"/>
<path d="M194.66 287.91L172.83 290.91C172.622 290.934 172.421 291 172.239 291.105C172.058 291.21 171.9 291.352 171.776 291.521C171.652 291.69 171.565 291.883 171.519 292.088C171.473 292.292 171.47 292.504 171.51 292.71L174.38 307.34C174.474 307.769 174.725 308.148 175.084 308.401C175.443 308.655 175.884 308.765 176.32 308.71L198.15 305.71C198.358 305.684 198.558 305.615 198.738 305.508C198.918 305.401 199.075 305.259 199.198 305.089C199.32 304.919 199.407 304.726 199.452 304.522C199.497 304.317 199.5 304.105 199.46 303.9L196.6 289.27C196.506 288.841 196.254 288.463 195.895 288.212C195.536 287.96 195.095 287.852 194.66 287.91ZM188.39 302.73L184.39 303.26L184 298.54C183.588 298.362 183.225 298.087 182.941 297.739C182.657 297.391 182.461 296.979 182.37 296.54C182.296 296.199 182.295 295.847 182.366 295.506C182.438 295.165 182.58 294.843 182.783 294.56C182.987 294.277 183.247 294.04 183.548 293.864C183.849 293.689 184.184 293.578 184.53 293.54C185.24 293.448 185.959 293.627 186.544 294.04C187.129 294.453 187.538 295.07 187.69 295.77C187.777 296.192 187.75 296.631 187.613 297.04C187.476 297.449 187.234 297.814 186.91 298.1L188.39 302.73Z" fill="#4242FF"/>
<path d="M192.5 287.119C192.114 287.168 191.724 287.072 191.405 286.848C191.087 286.624 190.864 286.289 190.78 285.909L190.5 284.479C190.1 282.528 189.007 280.788 187.421 279.581C185.836 278.375 183.867 277.785 181.88 277.919C180.877 277.977 179.898 278.249 179.01 278.718C178.122 279.187 177.345 279.842 176.732 280.638C176.119 281.433 175.685 282.352 175.458 283.331C175.232 284.309 175.219 285.325 175.42 286.309L175.74 287.959C175.777 288.142 175.776 288.331 175.736 288.513C175.696 288.695 175.619 288.867 175.509 289.018C175.398 289.169 175.258 289.295 175.096 289.388C174.935 289.481 174.756 289.539 174.57 289.559C174.183 289.613 173.791 289.518 173.471 289.294C173.152 289.069 172.93 288.732 172.85 288.349L172.58 286.959C172.305 285.66 172.296 284.319 172.553 283.016C172.81 281.714 173.328 280.476 174.075 279.379C174.822 278.281 175.784 277.346 176.902 276.63C178.019 275.913 179.271 275.43 180.58 275.209C183.419 274.733 186.332 275.367 188.716 276.982C191.099 278.596 192.769 281.066 193.38 283.879L193.7 285.519C193.737 285.704 193.735 285.895 193.693 286.08C193.652 286.264 193.572 286.437 193.458 286.588C193.345 286.739 193.201 286.865 193.036 286.956C192.871 287.048 192.688 287.103 192.5 287.119Z" fill="#4242FF"/>
<path d="M214.67 328.64H155.7L155.31 316.92H214.27L214.67 328.64Z" fill="#4242FF"/>
<path d="M186.22 262.261C186.237 262.688 186.168 263.115 186.016 263.515C185.864 263.915 185.632 264.279 185.335 264.587C185.037 264.895 184.681 265.139 184.286 265.304C183.892 265.47 183.468 265.554 183.04 265.551C182.158 265.544 181.313 265.199 180.678 264.587C180.044 263.974 179.668 263.142 179.63 262.261C179.612 261.833 179.682 261.407 179.834 261.007C179.986 260.607 180.218 260.242 180.515 259.935C180.812 259.627 181.169 259.383 181.564 259.217C181.958 259.052 182.382 258.968 182.81 258.971C183.692 258.975 184.539 259.32 185.174 259.932C185.809 260.545 186.184 261.379 186.22 262.261Z" fill="#263238"/>
<path d="M172 262.261C172.019 262.689 171.951 263.116 171.799 263.516C171.647 263.917 171.416 264.282 171.118 264.59C170.82 264.898 170.463 265.142 170.068 265.307C169.673 265.472 169.248 265.555 168.82 265.551C167.939 265.544 167.095 265.198 166.462 264.586C165.829 263.973 165.456 263.141 165.42 262.261C165.402 261.833 165.472 261.407 165.624 261.007C165.776 260.607 166.008 260.242 166.305 259.935C166.602 259.627 166.959 259.383 167.354 259.217C167.748 259.052 168.172 258.968 168.6 258.971C169.481 258.975 170.327 259.32 170.961 259.933C171.594 260.546 171.966 261.38 172 262.261Z" fill="#263238"/>
<path d="M157.87 262.261C157.888 262.688 157.818 263.115 157.666 263.515C157.514 263.915 157.282 264.279 156.985 264.587C156.687 264.895 156.331 265.139 155.936 265.304C155.542 265.47 155.118 265.554 154.69 265.551C153.808 265.546 152.963 265.202 152.329 264.589C151.696 263.976 151.323 263.142 151.29 262.261C151.272 261.833 151.342 261.407 151.494 261.007C151.646 260.607 151.878 260.242 152.175 259.935C152.472 259.627 152.829 259.383 153.224 259.217C153.618 259.052 154.042 258.968 154.47 258.971C155.351 258.975 156.197 259.32 156.831 259.933C157.464 260.546 157.836 261.38 157.87 262.261Z" fill="#263238"/>
<path d="M200.39 262.26C200.408 262.688 200.338 263.114 200.186 263.514C200.034 263.914 199.802 264.279 199.505 264.587C199.207 264.894 198.851 265.138 198.456 265.304C198.062 265.47 197.638 265.553 197.21 265.55C196.328 265.546 195.483 265.201 194.849 264.588C194.216 263.975 193.843 263.141 193.81 262.26C193.795 261.834 193.867 261.409 194.021 261.012C194.175 260.614 194.408 260.252 194.707 259.947C195.005 259.642 195.362 259.401 195.756 259.238C196.15 259.076 196.573 258.995 197 259C197.875 259.007 198.714 259.349 199.344 259.955C199.975 260.561 200.349 261.386 200.39 262.26Z" fill="#263238"/>
<path d="M214.56 262.261C214.579 262.689 214.511 263.116 214.359 263.516C214.207 263.917 213.976 264.282 213.678 264.59C213.38 264.898 213.023 265.142 212.628 265.307C212.233 265.472 211.808 265.555 211.38 265.551C210.499 265.544 209.655 265.198 209.022 264.586C208.389 263.973 208.016 263.141 207.98 262.261C207.962 261.833 208.032 261.407 208.184 261.007C208.336 260.607 208.568 260.242 208.865 259.935C209.163 259.627 209.519 259.383 209.914 259.217C210.308 259.052 210.732 258.968 211.16 258.971C212.041 258.975 212.887 259.32 213.521 259.933C214.154 260.546 214.526 261.38 214.56 262.261Z" fill="#263238"/>
<path d="M333.91 174.281C335.24 176.421 336.35 178.461 337.49 180.591C338.63 182.721 339.66 184.861 340.67 187.051C342.731 191.486 344.436 196.077 345.77 200.781C345.95 201.371 346.08 202.001 346.23 202.611L346.45 203.541L346.56 204.001L346.69 204.761C346.916 206.485 346.81 208.237 346.38 209.921C345.69 212.537 344.64 215.044 343.26 217.371C340.792 221.6 337.809 225.507 334.38 229.001L330.17 225.821C332.283 221.937 334.163 217.929 335.8 213.821C336.529 212.011 337.043 210.121 337.33 208.191C337.422 207.602 337.395 207 337.25 206.421L336.85 205.201C336.69 204.701 336.54 204.201 336.35 203.691C334.829 199.566 333.069 195.532 331.08 191.611C329.08 187.611 326.93 183.611 324.78 179.791L333.91 174.281Z" fill="#FF8B7B"/>
<path d="M331.24 224.432L326.64 226.862L331.92 233.042C331.92 233.042 335.22 230.812 335.37 227.412L331.24 224.432Z" fill="#FF8B7B"/>
<path d="M320.47 230.671L326.12 235.161L331.92 233.041L326.64 226.861L320.47 230.671Z" fill="#FF8B7B"/>
<path d="M301.15 141.56C301.04 142.12 300.65 142.51 300.29 142.44C299.93 142.37 299.72 141.85 299.83 141.3C299.94 140.75 300.33 140.3 300.7 140.42C301.07 140.54 301.26 141 301.15 141.56Z" fill="#263238"/>
<path d="M300.7 142.521C299.693 144.088 298.475 145.508 297.08 146.741C297.409 147.083 297.809 147.349 298.251 147.522C298.692 147.694 299.166 147.769 299.64 147.741L300.7 142.521Z" fill="#FF5652"/>
<path d="M298.9 162.14V155.58L307.58 156.58C307.58 156.58 307.44 162.22 302.58 163.88L298.9 162.14Z" fill="#FF8B7B"/>
<path d="M301.4 150.861L307.51 152.621L307.62 156.631L298.94 155.581L301.4 150.861Z" fill="#FF8B7B"/>
<path opacity="0.2" d="M307.51 152.621L301.4 150.861L300.21 153.141C300.275 154.938 300.836 156.681 301.832 158.178C302.827 159.675 304.218 160.867 305.85 161.621C306.9 160.155 307.513 158.422 307.62 156.621L307.51 152.621Z" fill="black"/>
<path d="M303.81 138.89C303.874 138.888 303.936 138.868 303.99 138.833C304.043 138.797 304.085 138.747 304.111 138.689C304.137 138.63 304.147 138.565 304.137 138.502C304.128 138.438 304.101 138.379 304.06 138.33C303.709 137.933 303.268 137.626 302.774 137.435C302.279 137.244 301.747 137.173 301.22 137.23C301.134 137.245 301.057 137.293 301.006 137.364C300.956 137.435 300.936 137.524 300.95 137.61C300.965 137.697 301.013 137.774 301.083 137.827C301.154 137.879 301.243 137.902 301.33 137.89C301.747 137.849 302.168 137.908 302.558 138.063C302.948 138.218 303.295 138.464 303.57 138.78C303.601 138.813 303.638 138.84 303.679 138.859C303.72 138.878 303.765 138.889 303.81 138.89Z" fill="#263238"/>
<path d="M316.59 151.682C315.59 156.832 314.97 163.962 318.59 167.392C318.59 167.392 317.19 172.612 307.59 172.612C297.08 172.612 302.54 168.032 302.54 168.032C306.91 166.672 306.87 161.702 305.87 157.702L316.59 151.682Z" fill="#FF8B7B"/>
<path d="M320.54 170.83C321.48 169.51 321.44 165.32 320.44 164.58C318.83 163.39 311.92 163.11 302.63 165.25C303.63 169.31 301.48 171.43 301.48 171.43L320.54 170.83Z" fill="#4242FF"/>
<path d="M351.8 408.242C351.515 408.342 351.212 408.385 350.91 408.368C350.608 408.351 350.312 408.274 350.04 408.142C349.937 408.046 349.866 407.92 349.837 407.782C349.809 407.644 349.824 407.501 349.88 407.372C349.911 407.263 349.966 407.164 350.041 407.079C350.115 406.994 350.207 406.927 350.31 406.882C351.26 406.422 353.44 407.312 353.54 407.352C353.57 407.364 353.595 407.384 353.613 407.411C353.631 407.438 353.64 407.469 353.64 407.502C353.64 407.534 353.631 407.565 353.616 407.593C353.6 407.621 353.577 407.645 353.55 407.662C352.986 407.909 352.4 408.104 351.8 408.242ZM350.65 407.112C350.584 407.127 350.52 407.151 350.46 407.182C350.398 407.204 350.341 407.242 350.296 407.29C350.251 407.339 350.218 407.398 350.2 407.462C350.11 407.762 350.2 407.862 350.26 407.892C350.64 408.212 352.04 407.892 353.03 407.522C352.277 407.21 351.464 407.07 350.65 407.112Z" fill="#4242FF"/>
<path d="M353.51 407.67H353.43C352.63 407.44 350.93 406.23 350.91 405.44C350.909 405.315 350.951 405.193 351.03 405.094C351.108 404.996 351.217 404.928 351.34 404.9C351.459 404.856 351.585 404.838 351.712 404.849C351.838 404.859 351.96 404.897 352.07 404.96C353.01 405.44 353.61 407.38 353.63 407.47C353.644 407.495 353.651 407.522 353.651 407.55C353.651 407.578 353.644 407.606 353.63 407.63C353.614 407.646 353.596 407.658 353.575 407.665C353.554 407.671 353.532 407.673 353.51 407.67ZM351.51 405.18H351.43C351.23 405.25 351.23 405.35 351.23 405.4C351.23 405.87 352.37 406.82 353.23 407.2C353.02 406.64 352.56 405.53 351.95 405.2C351.814 405.139 351.66 405.131 351.52 405.18H351.51Z" fill="#4242FF"/>
<path d="M299.86 409.42C298.96 409.42 298.09 409.29 297.8 408.89C297.724 408.784 297.683 408.656 297.683 408.525C297.683 408.394 297.724 408.267 297.8 408.16C297.857 408.062 297.934 407.977 298.025 407.91C298.116 407.843 298.22 407.796 298.33 407.77C299.5 407.45 301.96 408.85 302.06 408.91C302.091 408.925 302.115 408.95 302.13 408.981C302.144 409.012 302.148 409.047 302.14 409.08C302.136 409.114 302.122 409.146 302.098 409.172C302.075 409.197 302.044 409.214 302.01 409.22C301.301 409.35 300.581 409.417 299.86 409.42ZM298.75 408.05C298.644 408.033 298.536 408.033 298.43 408.05C298.362 408.064 298.298 408.092 298.241 408.131C298.185 408.171 298.137 408.221 298.1 408.28C297.98 408.49 298.03 408.59 298.1 408.65C298.43 409.11 300.2 409.12 301.51 408.93C300.655 408.463 299.718 408.164 298.75 408.05Z" fill="#4242FF"/>
<path d="M302 409.221H301.93C301.08 408.841 299.4 407.321 299.53 406.521C299.53 406.331 299.69 406.101 300.15 406.061C300.314 406.042 300.481 406.057 300.639 406.105C300.798 406.153 300.944 406.233 301.07 406.341C301.711 407.107 302.095 408.055 302.17 409.051C302.17 409.079 302.163 409.108 302.151 409.133C302.139 409.159 302.122 409.182 302.1 409.201C302.069 409.217 302.034 409.223 302 409.221ZM300.28 406.371H300.18C299.88 406.371 299.86 406.511 299.86 406.551C299.78 407.031 300.92 408.231 301.79 408.751C301.714 407.948 301.388 407.19 300.86 406.581C300.696 406.441 300.486 406.366 300.27 406.371H300.28Z" fill="#4242FF"/>
<path d="M309.72 409.061H302.69L301.99 392.771H309.02L309.72 409.061Z" fill="#FF8B7B"/>
<path d="M361.35 405.801L354.48 407.291L347.57 392.121L354.45 390.631L361.35 405.801Z" fill="#FF8B7B"/>
<path d="M353.81 406.601L361.54 404.931C361.675 404.903 361.816 404.921 361.939 404.982C362.063 405.044 362.162 405.146 362.22 405.271L364.9 411.091C364.971 411.232 365.008 411.388 365.008 411.546C365.007 411.704 364.969 411.859 364.897 412C364.825 412.14 364.721 412.262 364.592 412.354C364.464 412.447 364.316 412.507 364.16 412.531C361.46 413.061 360.11 413.191 356.72 413.921C354.63 414.381 349.91 415.531 347.02 416.151C344.13 416.771 343.14 414.001 344.27 413.491C349.32 411.181 351.42 409.151 352.79 407.261C353.038 406.924 353.401 406.689 353.81 406.601Z" fill="#263238"/>
<path d="M302.74 408.24H310.42C310.559 408.241 310.694 408.289 310.803 408.376C310.912 408.463 310.989 408.584 311.02 408.72L312.41 414.97C312.451 415.121 312.456 415.28 312.424 415.433C312.392 415.586 312.325 415.73 312.228 415.853C312.131 415.975 312.006 416.073 311.864 416.139C311.722 416.204 311.566 416.236 311.41 416.23C308.64 416.18 304.64 416.02 301.16 416.02C297.08 416.02 293.57 416.24 288.79 416.24C285.9 416.24 285.1 413.32 286.31 413.05C291.81 411.85 296.31 411.72 301.06 408.79C301.559 408.456 302.14 408.266 302.74 408.24Z" fill="#263238"/>
<path d="M331.17 169.002C337.76 170.512 343.17 187.342 343.17 187.342L330 197.412C326.582 193.757 324.17 189.277 323 184.412C320.67 175.592 324.43 167.442 331.17 169.002Z" fill="#4242FF"/>
<path opacity="0.4" d="M331.17 169.002C337.76 170.512 343.17 187.342 343.17 187.342L330 197.412C326.582 193.757 324.17 189.277 323 184.412C320.67 175.592 324.43 167.442 331.17 169.002Z" fill="black"/>
<path d="M296.5 189.07C294.86 190.84 293.22 192.42 291.5 194.07C290.65 194.87 289.79 195.67 288.91 196.44L287.58 197.61L287.25 197.9L286.68 198.36C286.093 198.829 285.444 199.213 284.75 199.5C283.978 199.828 283.149 199.998 282.31 200C281.594 200.003 280.882 199.878 280.21 199.63C279.464 199.346 278.784 198.914 278.21 198.36C277.477 197.644 276.94 196.753 276.65 195.77C276.498 195.286 276.401 194.786 276.36 194.28C276.308 193.688 276.308 193.093 276.36 192.5C276.41 192.02 276.47 191.6 276.55 191.21C276.824 189.847 277.212 188.509 277.71 187.21C278.16 185.976 278.677 184.768 279.26 183.59C279.9 182.32 280.51 181.39 281.12 180.33C283.598 176.272 286.425 172.437 289.57 168.87C292.683 165.325 296.114 162.071 299.82 159.15L303.5 162.94C300.92 166.4 298.38 170.11 296.03 173.76C293.691 177.39 291.555 181.145 289.63 185.01C289.2 185.95 288.63 187.01 288.36 187.77C288.002 188.653 287.692 189.555 287.43 190.47C287.178 191.295 286.987 192.137 286.86 192.99C286.853 193.124 286.853 193.257 286.86 193.39C286.86 193.47 286.86 193.51 286.86 193.3C286.844 193.076 286.8 192.854 286.73 192.64C286.514 191.931 286.118 191.291 285.58 190.78C285.102 190.341 284.541 190.001 283.93 189.78C283.393 189.577 282.824 189.472 282.25 189.47C281.698 189.464 281.15 189.569 280.64 189.78C280.467 189.851 280.3 189.935 280.14 190.03L280.52 189.68L281.73 188.58L284.12 186.34C285.7 184.85 287.29 183.26 288.79 181.78L296.5 189.07Z" fill="#FF8B7B"/>
<path opacity="0.2" d="M325.52 181.361C329.1 184.901 330.27 191.361 330.52 196.961L329.94 197.411C326.522 193.756 324.11 189.277 322.94 184.411C322.81 183.891 322.69 183.411 322.6 182.841L325.52 181.361Z" fill="black"/>
<path d="M289.51 176C288.07 183.6 287.17 199.21 291.34 230.11H329C329.26 224.34 325.63 196.16 331.2 168.95C327.038 168.151 322.83 167.62 318.6 167.36C313.271 167.054 307.929 167.054 302.6 167.36C300.84 167.52 299.1 167.78 297.6 168.05C295.605 168.4 293.763 169.348 292.319 170.767C290.874 172.187 289.895 174.012 289.51 176Z" fill="#4242FF"/>
<path opacity="0.4" d="M289.51 176C288.07 183.6 287.17 199.21 291.34 230.11H329C329.26 224.34 325.63 196.16 331.2 168.95C327.038 168.151 322.83 167.62 318.6 167.36C313.271 167.054 307.929 167.054 302.6 167.36C300.84 167.52 299.1 167.78 297.6 168.05C295.605 168.4 293.763 169.348 292.319 170.767C290.874 172.187 289.895 174.012 289.51 176Z" fill="black"/>
<path opacity="0.2" d="M295.27 187.271L288.47 185.641C288.26 189.761 288.24 194.861 288.54 201.171C291.67 197.611 295.67 192.051 295.27 187.271Z" fill="black"/>
<path opacity="0.2" d="M301.99 392.771L302.35 401.172H309.39L309.03 392.771H301.99Z" fill="black"/>
<path opacity="0.2" d="M354.45 390.631L347.57 392.121L351.13 399.941L358.01 398.451L354.45 390.631Z" fill="black"/>
<path d="M319.93 144.161C318.13 150.901 317.41 154.941 313.25 157.741C307 162.001 299.2 157.121 299 150.001C298.78 143.571 301.77 133.621 309 132.261C310.589 131.963 312.227 132.074 313.761 132.584C315.295 133.095 316.674 133.987 317.767 135.178C318.861 136.368 319.633 137.818 320.012 139.389C320.39 140.961 320.362 142.603 319.93 144.161Z" fill="#FF8B7B"/>
<path d="M304.15 144.41C303.81 143.51 302.26 136.54 303.72 134.73C305.18 132.92 321.83 134.23 324.29 136.65C328.38 140.65 325.54 144.25 321.07 148.88C317.71 152.36 317.58 156.28 315.88 156.88C312.88 157.88 308.3 156.94 307.38 153.77C306.46 150.6 304.15 144.41 304.15 144.41Z" fill="#263238"/>
<path d="M322.27 128.721C316.39 126.221 305.36 128.991 299.4 127.551C299.324 129.767 300.053 131.936 301.452 133.656C302.851 135.377 304.825 136.533 307.01 136.911C311.954 137.853 316.977 138.318 322.01 138.301C328.55 138.001 327.27 130.851 322.27 128.721Z" fill="#263238"/>
<path d="M323.19 136.86C325.338 137.071 327.501 136.658 329.42 135.67C330.52 138.33 324.47 139.06 323.19 136.86Z" fill="#263238"/>
<path d="M307.35 144.69C307.215 146.425 306.512 148.066 305.35 149.36C303.81 151.05 302.21 149.99 301.94 147.94C301.7 146.08 302.2 142.94 304.08 142.04C305.96 141.14 307.48 142.6 307.35 144.69Z" fill="#FF8B7B"/>
<path d="M304.69 230.141C304.69 230.141 312.69 283.891 317.06 304.031C321.85 326.081 347.59 399.031 347.59 399.031L360.18 396.301C360.18 396.301 342.18 336.841 338.18 306.011C335.08 282.331 328.99 230.121 328.99 230.121L304.69 230.141Z" fill="#4242FF"/>
<path d="M344.57 394.84C344.52 394.84 346.92 399.4 346.92 399.4L361.08 396.33L359.89 392.07L344.57 394.84Z" fill="#263238"/>
<path opacity="0.3" d="M309.74 249.29C318.97 251.1 317.99 285.52 316.88 303.23C314.22 290.71 310.32 266.63 307.66 249.54C308.304 249.222 309.038 249.134 309.74 249.29Z" fill="black"/>
<path d="M291.34 230.142C291.34 230.142 290.34 282.732 291.14 304.142C291.94 326.452 299.73 399.502 299.73 399.502H311.65C311.65 399.502 312.08 327.752 312.65 305.842C313.23 281.962 316.11 230.102 316.11 230.102L291.34 230.142Z" fill="#4242FF"/>
<path d="M297.44 394.801C297.38 394.801 298.11 399.741 298.11 399.741H312.6L313 395.331L297.44 394.801Z" fill="#263238"/>
<path d="M304.25 178.341C307.62 187.431 287.81 198.141 287.81 198.141L279.23 187.141C279.23 187.141 285 175.721 292 170.581C300.65 164.241 301.68 171.421 304.25 178.341Z" fill="#4242FF"/>
<path opacity="0.4" d="M304.25 178.341C307.62 187.431 287.81 198.141 287.81 198.141L279.23 187.141C279.23 187.141 285 175.721 292 170.581C300.65 164.241 301.68 171.421 304.25 178.341Z" fill="black"/>
<path d="M381.87 109.33C401.802 109.33 417.96 99.0326 417.96 86.3301C417.96 73.6275 401.802 63.3301 381.87 63.3301C361.938 63.3301 345.78 73.6275 345.78 86.3301C345.78 99.0326 361.938 109.33 381.87 109.33Z" fill="#4242FF"/>
<path d="M368.85 97.9101C366.472 97.9024 364.174 97.0571 362.358 95.5227C360.542 93.9883 359.324 91.8629 358.92 89.5201C358.522 86.9823 359.095 84.3879 360.523 82.2531C361.952 80.1184 364.132 78.6 366.63 78.0001C368.68 77.5278 370.826 77.7098 372.767 78.5206C374.707 79.3314 376.345 80.7301 377.45 82.5201L400.62 77.7401C401.51 77.5451 402.442 77.6931 403.228 78.1547C404.014 78.6163 404.596 79.3575 404.86 80.2301C404.981 80.6889 405.008 81.1676 404.938 81.6369C404.868 82.1062 404.703 82.5564 404.453 82.9598C404.203 83.3632 403.873 83.7114 403.484 83.9831C403.095 84.2548 402.655 84.4443 402.19 84.5401L401.59 84.6601C401.501 84.6761 401.417 84.7123 401.344 84.7661C401.271 84.8199 401.211 84.8897 401.17 84.9701C401.133 85.0518 401.114 85.1404 401.114 85.2301C401.114 85.3198 401.133 85.4084 401.17 85.4901L401.58 86.5501C401.717 86.8937 401.731 87.2744 401.617 87.6267C401.504 87.979 401.272 88.2808 400.96 88.4801C400.714 88.632 400.506 88.8379 400.352 89.0822C400.198 89.3266 400.101 89.6029 400.07 89.8901C400.041 90.2197 399.908 90.5317 399.69 90.7813C399.473 91.0309 399.182 91.2055 398.86 91.2801L398.39 91.3801C398.064 91.4403 397.728 91.3952 397.429 91.2514C397.131 91.1075 396.886 90.8724 396.73 90.5801C396.522 90.2313 396.211 89.956 395.84 89.7925C395.468 89.629 395.055 89.5855 394.658 89.6681C394.26 89.7506 393.898 89.9551 393.623 90.253C393.347 90.551 393.171 90.9275 393.12 91.3301C393.092 91.6576 392.961 91.9678 392.745 92.2159C392.529 92.464 392.24 92.637 391.92 92.7101L391.45 92.8101C391.124 92.8687 390.788 92.8229 390.49 92.6792C390.192 92.5356 389.947 92.3014 389.79 92.0101C389.64 91.7621 389.438 91.5496 389.198 91.3873C388.958 91.225 388.686 91.1167 388.4 91.0701C388.015 91.0238 387.661 90.8388 387.403 90.5497C387.145 90.2606 387.002 89.8874 387 89.5001V88.3601C386.996 88.2709 386.973 88.1836 386.932 88.1043C386.891 88.0249 386.833 87.9553 386.763 87.9003C386.693 87.8452 386.611 87.8059 386.525 87.7852C386.438 87.7645 386.348 87.7627 386.26 87.7801L378.87 89.3001C378.568 91.3474 377.644 93.2522 376.221 94.7552C374.799 96.2582 372.948 97.2865 370.92 97.7001C370.239 97.8394 369.545 97.9097 368.85 97.9101ZM366.85 78.9101C364.582 79.4399 362.599 80.8094 361.3 82.7428C360.001 84.6762 359.483 87.03 359.85 89.3301C360.243 91.4699 361.389 93.3984 363.081 94.7666C364.773 96.1348 366.898 96.8524 369.073 96.7896C371.248 96.7268 373.328 95.8877 374.938 94.4241C376.548 92.9605 377.581 90.9691 377.85 88.8101V88.4501L386 86.8001C386.234 86.7435 386.477 86.7397 386.713 86.789C386.948 86.8383 387.17 86.9393 387.361 87.0849C387.553 87.2304 387.709 87.4168 387.82 87.6304C387.93 87.8441 387.992 88.0797 388 88.3201V89.4601C388.002 89.5958 388.051 89.7266 388.139 89.8304C388.226 89.9343 388.347 90.0048 388.48 90.0301C388.917 90.0927 389.334 90.254 389.7 90.5018C390.065 90.7495 390.37 91.0772 390.59 91.4601C390.643 91.568 390.728 91.6568 390.834 91.7141C390.94 91.7714 391.061 91.7945 391.18 91.7801L391.64 91.6801C391.757 91.6501 391.86 91.5833 391.936 91.4896C392.012 91.3959 392.055 91.2804 392.06 91.1601C392.123 90.5376 392.382 89.9512 392.8 89.4857C393.219 89.0203 393.774 88.6998 394.386 88.5707C394.998 88.4416 395.636 88.5105 396.206 88.7674C396.777 89.0244 397.251 89.456 397.56 90.0001C397.611 90.1072 397.695 90.1956 397.799 90.253C397.903 90.3103 398.022 90.3338 398.14 90.3201L398.62 90.2201C398.735 90.1883 398.836 90.1207 398.91 90.0272C398.984 89.9337 399.026 89.8191 399.03 89.7001C399.079 89.261 399.229 88.8391 399.466 88.4665C399.703 88.0938 400.023 87.7804 400.4 87.5501C400.51 87.4706 400.591 87.3566 400.629 87.2262C400.667 87.0957 400.66 86.9563 400.61 86.8301L400.2 85.7701C400.115 85.5515 400.079 85.3171 400.094 85.0832C400.11 84.8493 400.176 84.6216 400.288 84.4159C400.4 84.2102 400.556 84.0315 400.745 83.8923C400.934 83.7531 401.15 83.6568 401.38 83.6101L401.99 83.4801C402.32 83.4097 402.633 83.2734 402.909 83.0795C403.185 82.8855 403.419 82.6378 403.598 82.3512C403.776 82.0646 403.895 81.745 403.947 81.4114C403.999 81.0779 403.983 80.7373 403.9 80.4101C403.705 79.7808 403.279 79.2485 402.708 78.9202C402.136 78.5919 401.462 78.4919 400.82 78.6401L377 83.5901L376.82 83.2801C375.863 81.5763 374.377 80.2304 372.588 79.4456C370.798 78.6609 368.802 78.4799 366.9 78.9301L366.85 78.9101ZM368.85 94.1901C367.608 94.2039 366.388 93.8565 365.34 93.1901C364.1 92.376 363.181 91.157 362.739 89.7409C362.297 88.3248 362.36 86.7994 362.917 85.4245C363.474 84.0497 364.491 82.9106 365.794 82.2015C367.096 81.4924 368.605 81.2571 370.062 81.5358C371.519 81.8145 372.834 82.5898 373.783 83.7297C374.733 84.8696 375.257 86.3035 375.268 87.7868C375.278 89.2702 374.774 90.7112 373.84 91.8643C372.907 93.0174 371.603 93.8111 370.15 94.1101C369.724 94.1871 369.292 94.2206 368.86 94.2101L368.85 94.1901ZM368.85 82.3801C368.477 82.3822 368.106 82.419 367.74 82.4901C367.043 82.6385 366.383 82.9226 365.796 83.3263C365.209 83.73 364.707 84.2454 364.32 84.8429C363.932 85.4404 363.666 86.1085 363.536 86.8089C363.407 87.5093 363.417 88.2284 363.565 88.9251C363.713 89.6217 363.997 90.2824 364.401 90.8692C364.805 91.456 365.32 91.9576 365.918 92.3453C366.515 92.733 367.183 92.9992 367.884 93.1287C368.584 93.2582 369.303 93.2485 370 93.1001C371.046 92.8824 372.004 92.3599 372.753 91.5985C373.502 90.8372 374.01 89.871 374.211 88.8219C374.412 87.7727 374.298 86.6875 373.883 85.7031C373.468 84.7186 372.771 83.879 371.88 83.2901C370.995 82.7013 369.953 82.3913 368.89 82.4001L368.85 82.3801Z" fill="white"/>
<path opacity="0.6" d="M352.5 122.819C359.05 122.819 364.36 119.434 364.36 115.259C364.36 111.084 359.05 107.699 352.5 107.699C345.95 107.699 340.64 111.084 340.64 115.259C340.64 119.434 345.95 122.819 352.5 122.819Z" fill="#4242FF"/>
<path opacity="0.3" d="M333.63 125.921C336.32 125.921 338.5 124.533 338.5 122.821C338.5 121.109 336.32 119.721 333.63 119.721C330.94 119.721 328.76 121.109 328.76 122.821C328.76 124.533 330.94 125.921 333.63 125.921Z" fill="#4242FF"/>
</svg>
