<svg width="513" height="512" viewBox="0 0 513 512" fill="none" xmlns="http://www.w3.org/2000/svg">
<path d="M256.499 40.9277C137.721 40.9277 41.428 137.222 41.428 256.002C41.428 374.778 137.721 471.07 256.499 471.07C375.277 471.07 471.57 374.778 471.57 256.002C471.57 137.222 375.277 40.9277 256.499 40.9277Z" fill="#EDF3FC"/>
<path d="M256.499 1C115.891 1 1.5 115.392 1.5 256.002C1.5 396.609 115.891 511 256.499 511C397.107 511 511.5 396.609 511.5 256.002C511.5 115.392 397.107 1 256.499 1ZM256.499 502.831C120.396 502.831 9.669 392.104 9.669 256.002C9.669 119.898 120.396 9.168 256.499 9.168C392.601 9.168 503.331 119.897 503.331 256.002C503.331 392.104 392.601 502.831 256.499 502.831Z" fill="#EDF3FC"/>
<path d="M373.856 127.99C366.949 126.259 360.641 122.686 355.606 117.651C350.57 112.616 346.996 106.309 345.264 99.402L344.667 97L344.062 99.402C342.332 106.309 338.759 112.617 333.724 117.652C328.689 122.687 322.381 126.26 315.474 127.99L313.071 128.595L315.474 129.2C322.381 130.93 328.688 134.503 333.723 139.537C338.758 144.571 342.331 150.878 344.062 157.785L344.667 160.186L345.264 157.785C346.996 150.879 350.571 144.572 355.606 139.538C360.642 134.503 366.949 130.931 373.856 129.2L376.26 128.595L373.856 127.99Z" fill="#5D8EF9"/>
<path d="M419.38 160.994L420.796 161.349L419.38 161.704C415.313 162.723 411.598 164.827 408.634 167.792C405.669 170.757 403.565 174.472 402.547 178.539L402.19 179.952L401.836 178.539C400.817 174.471 398.712 170.756 395.747 167.791C392.781 164.826 389.066 162.722 384.998 161.704L383.587 161.349L384.998 160.994C389.066 159.976 392.781 157.872 395.746 154.907C398.712 151.943 400.817 148.228 401.836 144.161L402.19 142.748L402.547 144.161C403.566 148.228 405.67 151.942 408.635 154.907C411.599 157.871 415.313 159.975 419.38 160.994Z" fill="#FFBE1B"/>
<path d="M215.66 388.762L218.656 389.475L215.66 390.191C198.144 394.395 184.473 407.497 180.073 424.272L179.323 427.137L178.58 424.272C174.184 407.497 160.505 394.395 142.984 390.191L140.001 389.475L142.984 388.762C160.506 384.557 174.185 371.451 178.58 354.681L179.323 351.814L180.073 354.681C184.473 371.451 198.145 384.557 215.66 388.762ZM109.928 272.021L111.451 272.4L109.928 272.78C105.562 273.875 101.575 276.135 98.3918 279.318C95.2088 282.501 92.9493 286.488 91.854 290.854L91.474 292.372L91.095 290.854C90 286.487 87.7399 282.499 84.5559 279.316C81.3718 276.133 77.3834 273.874 73.016 272.78L71.501 272.4L73.016 272.021C77.3831 270.926 81.3711 268.666 84.555 265.483C87.7389 262.299 89.9992 258.312 91.095 253.945L91.474 252.426L91.854 253.945C92.9496 258.311 95.2093 262.298 98.3922 265.481C101.575 268.665 105.562 270.925 109.928 272.021Z" fill="#330D84"/>
<path d="M367.072 341.651H145.929C135.44 341.651 126.938 333.149 126.938 322.657V189.338C126.938 178.855 135.439 170.35 145.929 170.35H367.072C377.56 170.35 386.062 178.855 386.062 189.338V322.657C386.062 333.15 377.561 341.651 367.072 341.651Z" fill="#5932AE"/>
<path d="M267.868 270.843C264.706 273.567 260.673 275.064 256.5 275.064C252.327 275.064 248.293 273.567 245.132 270.843L231.019 258.689L133.663 337.152C137.087 340.062 141.436 341.656 145.929 341.65H367.073C371.75 341.65 376.029 339.956 379.338 337.152L281.981 258.689L267.868 270.843Z" fill="#6857E5"/>
<path d="M267.868 270.843L379.338 174.848C375.914 171.939 371.566 170.344 367.073 170.35H145.928C141.435 170.344 137.086 171.939 133.662 174.848L245.131 270.843C248.293 273.566 252.327 275.064 256.499 275.064C260.672 275.064 264.706 273.566 267.868 270.843Z" fill="#8C7BFD"/>
<path d="M270.344 246.484C270.344 254.13 264.146 260.328 256.5 260.328C248.855 260.328 242.657 254.13 242.657 246.484C242.657 238.838 248.855 232.641 256.5 232.641C264.146 232.641 270.344 238.839 270.344 246.484Z" fill="#FFBE1B"/>
</svg>
