<svg width="500" height="500" viewBox="0 0 500 500" fill="none" xmlns="http://www.w3.org/2000/svg">
<path d="M466.89 316.201H303V221.361H466.89V316.201ZM304 315.201H465.89V222.361H304V315.201Z" fill="#E0E0E0"/>
<path d="M433.08 271.932H324.95V275.102H433.08V271.932Z" fill="#F0F0F0"/>
<path d="M440.53 283.75H324.95V287.21H440.53V283.75Z" fill="#F0F0F0"/>
<path d="M440.53 295.711H324.95V299.171H440.53V295.711Z" fill="#F0F0F0"/>
<path d="M362.74 254.762H324.95V262.992H362.74V254.762Z" fill="#F0F0F0"/>
<path d="M466.39 221.861H303.53V236.961H466.39V221.861Z" fill="#E0E0E0"/>
<path d="M453.86 234.701C453.65 234.501 455.75 231.971 458.54 229.051C461.33 226.131 463.78 223.921 463.98 224.111C464.18 224.301 462.09 226.841 459.3 229.771C456.51 232.701 454.06 234.901 453.86 234.701Z" fill="white"/>
<path d="M464 234.7C463.8 234.9 461.36 232.7 458.56 229.77C455.76 226.84 453.67 224.31 453.88 224.11C454.09 223.91 456.52 226.11 459.32 229.05C462.12 231.99 464.19 234.5 464 234.7Z" fill="white"/>
<path d="M265.22 34.0508H102.36V127.901H265.22V34.0508Z" fill="#E6E6E6"/>
<path d="M231.92 84.1309H123.79V87.3009H231.92V84.1309Z" fill="#F0F0F0"/>
<path d="M239.37 95.9512H123.79V99.4112H239.37V95.9512Z" fill="#F0F0F0"/>
<path d="M239.37 107.91H123.79V111.37H239.37V107.91Z" fill="#F0F0F0"/>
<path d="M161.58 66.9609H123.79V75.1909H161.58V66.9609Z" fill="#F0F0F0"/>
<path d="M265.22 34.0508H102.36V49.1508H265.22V34.0508Z" fill="#E0E0E0"/>
<path d="M252.14 46.8211C251.93 46.6311 254.03 44.0911 256.82 41.1711C259.61 38.2511 262.06 36.0411 262.26 36.2411C262.46 36.4411 260.37 38.9711 257.58 41.8911C254.79 44.8111 252.34 47.0011 252.14 46.8211Z" fill="white"/>
<path d="M262.26 46.8211C262.06 47.0211 259.62 44.8211 256.82 41.8911C254.02 38.9611 251.93 36.4411 252.14 36.2411C252.35 36.0411 254.78 38.2411 257.58 41.1711C260.38 44.1011 262.47 46.6311 262.26 46.8211Z" fill="white"/>
<path d="M203.54 208.391H39.6799V113.541H203.54V208.391ZM40.6799 207.391H202.54V114.541H40.6799V207.391Z" fill="#E0E0E0"/>
<path d="M169.74 164.121H61.6099V167.291H169.74V164.121Z" fill="#F0F0F0"/>
<path d="M177.19 175.941H61.6099V179.401H177.19V175.941Z" fill="#F0F0F0"/>
<path d="M177.19 187.9H61.6099V191.36H177.19V187.9Z" fill="#F0F0F0"/>
<path d="M99.3999 146.951H61.6099V155.181H99.3999V146.951Z" fill="#F0F0F0"/>
<path d="M203.04 114.041H40.1799V129.141H203.04V114.041Z" fill="#E0E0E0"/>
<path d="M392.65 230.121H200.35V402.281H392.65V230.121Z" fill="#E6E6E6"/>
<path d="M210.02 175.891H59.3799V332.401H210.02V175.891Z" fill="#F0F0F0"/>
<path d="M210.02 175.891H59.3799V192.941H210.02V175.891Z" fill="#E0E0E0"/>
<path d="M71.8198 184.241C71.7924 184.86 71.584 185.456 71.2206 185.957C70.8571 186.458 70.3545 186.841 69.7752 187.059C69.196 187.277 68.5655 187.32 67.962 187.183C67.3585 187.045 66.8086 186.734 66.3806 186.287C65.9525 185.84 65.6652 185.277 65.5542 184.668C65.4432 184.059 65.5134 183.431 65.7561 182.862C65.9989 182.293 66.4034 181.807 66.9196 181.466C67.4358 181.124 68.0409 180.942 68.6598 180.941C69.5157 180.962 70.3284 181.321 70.9205 181.94C71.5126 182.558 71.8359 183.385 71.8198 184.241Z" fill="white"/>
<path d="M84.6498 184.241C84.6243 184.863 84.4167 185.463 84.0528 185.967C83.6889 186.471 83.1848 186.857 82.6032 187.077C82.0216 187.296 81.3882 187.34 80.7819 187.203C80.1755 187.066 79.6229 186.753 79.1929 186.304C78.7629 185.855 78.4745 185.289 78.3634 184.677C78.2524 184.066 78.3238 183.435 78.5686 182.863C78.8134 182.292 79.2208 181.805 79.7402 181.463C80.2597 181.121 80.8681 180.94 81.4898 180.941C82.3457 180.962 83.1584 181.321 83.7505 181.94C84.3426 182.558 84.6659 183.385 84.6498 184.241Z" fill="white"/>
<path d="M97.4799 184.241C97.4544 184.863 97.2468 185.463 96.8829 185.967C96.519 186.471 96.0149 186.857 95.4333 187.077C94.8517 187.296 94.2183 187.34 93.612 187.203C93.0056 187.066 92.453 186.753 92.023 186.304C91.593 185.855 91.3045 185.289 91.1935 184.677C91.0825 184.066 91.1538 183.435 91.3986 182.863C91.6434 182.292 92.0509 181.805 92.5703 181.463C93.0897 181.121 93.6982 180.94 94.3199 180.941C95.1758 180.962 95.9885 181.321 96.5806 181.94C97.1727 182.558 97.496 183.385 97.4799 184.241Z" fill="white"/>
<path d="M445.38 68.2812H253.08V259.941H445.38V68.2812Z" fill="#F0F0F0"/>
<path d="M445.38 68.2812H253.08V90.7313H445.38V68.2812Z" fill="#E0E0E0"/>
<path d="M269.46 79.2816C269.425 80.0978 269.15 80.8856 268.671 81.5473C268.192 82.209 267.529 82.7153 266.765 83.0035C266.001 83.2917 265.168 83.3491 264.372 83.1684C263.575 82.9877 262.849 82.5771 262.284 81.9873C261.718 81.3976 261.339 80.6548 261.192 79.8512C261.045 79.0476 261.137 78.2186 261.458 77.467C261.778 76.7155 262.312 76.0746 262.993 75.6238C263.674 75.1731 264.473 74.9324 265.29 74.9316C266.419 74.9579 267.492 75.4303 268.273 76.2456C269.055 77.0608 269.481 78.1525 269.46 79.2816Z" fill="white"/>
<path d="M285.13 76.3405C285.684 76.9426 286.049 77.6944 286.179 78.5024C286.309 79.3104 286.199 80.1389 285.861 80.8845C285.524 81.6301 284.975 82.2599 284.282 82.6955C283.589 83.1311 282.783 83.3532 281.965 83.3341C281.147 83.315 280.352 83.0556 279.681 82.5882C279.009 82.1207 278.489 81.4659 278.187 80.7054C277.885 79.9449 277.813 79.1122 277.981 78.3111C278.148 77.5101 278.548 76.7761 279.13 76.2005C279.945 75.425 281.034 75.0042 282.159 75.0305C283.284 75.0567 284.352 75.5278 285.13 76.3405Z" fill="white"/>
<path d="M303.24 79.2816C303.205 80.0978 302.93 80.8856 302.451 81.5473C301.972 82.209 301.309 82.7153 300.545 83.0035C299.781 83.2917 298.948 83.3491 298.152 83.1684C297.355 82.9877 296.629 82.5771 296.064 81.9873C295.498 81.3976 295.119 80.6548 294.972 79.8512C294.825 79.0476 294.917 78.2186 295.238 77.467C295.558 76.7155 296.092 76.0746 296.773 75.6238C297.454 75.1731 298.253 74.9324 299.07 74.9316C300.199 74.9579 301.272 75.4303 302.053 76.2456C302.835 77.0608 303.261 78.1525 303.24 79.2816Z" fill="white"/>
<path d="M403.84 453.129C403.84 453.269 334.4 453.389 248.77 453.389C163.14 453.389 93.6699 453.269 93.6699 453.129C93.6699 452.989 163.1 452.869 248.77 452.869C334.44 452.869 403.84 452.999 403.84 453.129Z" fill="#263238"/>
<path d="M336.18 330.71C320.73 319.92 317.23 299.89 317.84 281.88C317.94 278.88 317.61 275.7 319.04 273.07C320.47 270.44 323.81 268.63 326.5 269.89C328.73 270.94 329.7 273.54 330.95 275.69C332.618 278.554 335.062 280.887 338 282.42C339.91 283.42 342.28 284.02 344.17 282.98C346.77 281.55 347.07 277.98 347.05 274.98C347.05 269.4 347.017 263.827 346.95 258.26C346.77 255.271 347.074 252.272 347.85 249.38C348.78 246.54 350.85 243.91 353.68 243.11C356.51 242.31 360.04 243.96 360.68 246.88C360.79 248.117 360.82 249.359 360.77 250.6C360.85 251.85 361.43 253.22 362.6 253.6C363.77 253.98 364.99 253.11 365.89 252.23C368.97 249.23 371.07 245.32 373.02 241.46C374.97 237.6 376.88 233.63 379.68 230.34C382.48 227.05 386.35 224.44 390.68 224.19C395.01 223.94 399.52 226.6 400.6 230.8C401.68 235 399.23 239.29 396.6 242.7C392.631 247.762 387.953 252.224 382.71 255.95C381.686 256.509 380.87 257.382 380.38 258.44C379.73 260.44 381.62 262.44 383.59 263.07C385.82 263.81 388.24 263.58 390.59 263.86C392.94 264.14 395.44 265.16 396.33 267.36C397.55 270.42 394.99 273.62 392.48 275.72C387.44 279.92 381.717 283.225 375.56 285.49C373.36 286.29 371.05 287 369.27 288.54C367.49 290.08 366.43 292.77 367.5 294.88C368.57 296.99 371.32 297.66 373.63 297.23C375.94 296.8 377.99 295.56 380.19 294.73C384.3 293.18 389.6 293.46 392.19 297.01C392.992 298.233 393.5 299.625 393.674 301.077C393.847 302.53 393.682 304.003 393.19 305.38C392.189 308.121 390.649 310.634 388.66 312.77C382.11 320.595 373.6 326.541 364 330C354.47 333.3 345.64 334.2 336.17 330.73" fill="#4242FF"/>
<path d="M396.2 226.66C396.2 226.66 396.11 226.76 395.91 226.94L395.02 227.73C394.24 228.43 393.09 229.45 391.64 230.8C387.529 234.617 383.711 238.739 380.22 243.13C377.99 245.9 375.68 249.04 373.22 252.45C370.76 255.86 368.22 259.54 365.7 263.45C363.013 267.573 360.553 271.84 358.33 276.23C357.17 278.52 356.15 280.91 355.1 283.35L352 290.8C347.914 300.184 344.355 309.789 341.34 319.57C338.911 327.573 337.237 335.785 336.34 344.1C335.758 349.711 335.665 355.363 336.06 360.99C336.22 362.99 336.37 364.52 336.51 365.56C336.57 366.06 336.61 366.46 336.65 366.75V367.16C336.607 367.03 336.577 366.896 336.56 366.76C336.51 366.47 336.45 366.08 336.37 365.58C336.19 364.58 336 363 335.82 361C335.337 355.362 335.371 349.692 335.92 344.06C336.762 335.71 338.399 327.459 340.81 319.42C343.799 309.612 347.349 299.983 351.44 290.58L354.62 283.16C355.67 280.73 356.7 278.32 357.87 276.02C360.108 271.616 362.589 267.34 365.3 263.21C367.86 259.21 370.44 255.59 372.87 252.21C375.3 248.83 377.65 245.67 379.87 242.91C383.397 238.531 387.266 234.438 391.44 230.67C392.92 229.34 394.1 228.34 394.9 227.67L395.83 226.92C395.944 226.821 396.068 226.734 396.2 226.66Z" fill="#263238"/>
<path d="M358 275.999C357.859 275.587 357.762 275.162 357.71 274.729C357.55 273.899 357.37 272.729 357.16 271.209C356.73 268.209 356.29 264.099 355.82 259.549C355.35 254.999 354.82 250.879 354.38 247.909C354.15 246.429 353.95 245.239 353.81 244.409C353.701 243.985 353.644 243.548 353.64 243.109C353.812 243.51 353.936 243.93 354.01 244.359C354.23 245.179 354.48 246.359 354.76 247.849C355.33 250.849 355.89 254.929 356.36 259.489C356.83 264.049 357.23 268.049 357.54 271.159C357.69 272.559 357.82 273.749 357.92 274.699C357.998 275.128 358.024 275.564 358 275.999Z" fill="#263238"/>
<path d="M396.48 268.82C395.993 268.926 395.498 268.986 395 269C394 269.09 392.58 269.21 390.82 269.41C387.3 269.79 382.46 270.49 377.15 271.49C371.84 272.49 367.07 273.62 363.64 274.49C361.93 274.93 360.55 275.33 359.64 275.6C359.154 275.772 358.651 275.893 358.14 275.96C358.602 275.727 359.084 275.537 359.58 275.39C360.52 275.06 361.88 274.6 363.58 274.11C366.99 273.11 371.76 271.92 377.09 270.9C381.605 270.036 386.161 269.402 390.74 269C392.51 268.85 393.94 268.79 394.94 268.77C395.454 268.735 395.97 268.752 396.48 268.82Z" fill="#263238"/>
<path d="M341.3 318.719C341.193 318.574 341.106 318.416 341.04 318.249L340.38 316.859C339.81 315.649 339.04 313.859 338.12 311.669C336.26 307.269 333.89 301.109 331.37 294.269C328.85 287.429 326.53 281.269 324.77 276.819C323.91 274.659 323.2 272.889 322.67 271.569L322.11 270.139C322.032 269.974 321.978 269.799 321.95 269.619C322.057 269.764 322.144 269.922 322.21 270.089L322.87 271.479C323.43 272.689 324.21 274.479 325.13 276.669C326.99 281.069 329.36 287.229 331.88 294.069C334.4 300.909 336.72 307.069 338.48 311.519C339.34 313.679 340.05 315.449 340.57 316.769C340.8 317.339 340.99 317.769 341.14 318.199C341.218 318.364 341.271 318.539 341.3 318.719Z" fill="#263238"/>
<path d="M392.38 302.25C392.22 302.342 392.048 302.412 391.87 302.46L390.39 302.96L384.92 304.73C380.3 306.23 373.92 308.37 366.92 310.73C359.92 313.09 353.51 315.19 348.86 316.59C346.54 317.3 344.65 317.84 343.34 318.2L341.83 318.59C341.654 318.646 341.473 318.683 341.29 318.7C341.45 318.608 341.622 318.537 341.8 318.49L343.28 317.99L348.75 316.22C353.37 314.72 359.75 312.58 366.75 310.22C373.75 307.86 380.15 305.76 384.8 304.36C387.13 303.65 389.01 303.11 390.33 302.75L391.84 302.36C392.016 302.304 392.197 302.267 392.38 302.25Z" fill="#263238"/>
<path d="M371.54 59.6793L366.39 61.5193L364.18 54.7893C360.12 42.3793 347.18 35.7893 335.29 39.9793C323.4 44.1693 317.07 57.7793 321.13 70.1893L323.34 76.9193L318.17 78.7693C316.199 79.5339 314.598 81.0289 313.7 82.9434C312.802 84.8579 312.677 87.0447 313.35 89.0493L327.68 132.839C327.978 133.832 328.471 134.754 329.132 135.552C329.793 136.349 330.608 137.006 331.528 137.483C332.447 137.959 333.454 138.246 334.487 138.326C335.519 138.407 336.558 138.278 337.54 137.949L390.91 118.859C392.908 118.096 394.531 116.588 395.439 114.652C396.348 112.716 396.47 110.503 395.78 108.479L381.44 64.6893C381.135 63.6997 380.633 62.7818 379.966 61.9903C379.298 61.1987 378.478 60.5498 377.554 60.0822C376.63 59.6147 375.621 59.338 374.588 59.2688C373.555 59.1995 372.518 59.3391 371.54 59.6793ZM330.86 66.6793C329.765 63.4525 329.962 59.9273 331.408 56.8421C332.855 53.757 335.439 51.3514 338.62 50.1293C340.191 49.5919 341.853 49.3764 343.509 49.4957C345.165 49.6149 346.78 50.0665 348.257 50.8233C349.734 51.5802 351.044 52.627 352.108 53.9011C353.172 55.1752 353.969 56.6506 354.45 58.2393L356.65 64.9693L333.06 73.4093L330.86 66.6793ZM360.86 105.539L364.52 116.719C364.587 116.943 364.566 117.185 364.459 117.393C364.353 117.602 364.171 117.762 363.95 117.839L358.82 119.669C358.616 119.726 358.398 119.701 358.211 119.601C358.025 119.5 357.885 119.331 357.82 119.129L354.13 107.999C352.095 107.888 350.143 107.159 348.535 105.908C346.926 104.657 345.738 102.944 345.13 100.999C344.26 98.4282 344.419 95.6204 345.573 93.1636C346.727 90.7069 348.786 88.7918 351.32 87.8193C352.571 87.3918 353.896 87.2206 355.214 87.3158C356.533 87.4111 357.819 87.7708 358.996 88.3737C360.172 88.9765 361.216 89.81 362.064 90.8246C362.911 91.8393 363.546 93.0141 363.93 94.2793C364.573 96.2548 364.627 98.3751 364.083 100.38C363.54 102.386 362.423 104.189 360.87 105.569L360.86 105.539Z" fill="#4242FF"/>
<path d="M366.16 61.4C366.16 61.54 356.61 65.13 344.73 69.4C332.85 73.67 323.16 77.1 323.11 77C323.06 76.9 332.66 73.28 344.55 69C356.44 64.72 366.11 61.27 366.16 61.4Z" fill="#263238"/>
<path d="M377.5 63.2402C377.544 63.327 377.581 63.4173 377.61 63.5102C377.69 63.7102 377.78 63.9702 377.9 64.2902C378.16 65.0202 378.52 66.0302 378.97 67.2902L382.81 78.4702C384.41 83.2102 386.32 88.8302 388.44 95.0702C389.44 98.2002 390.62 101.46 391.72 104.89C392.309 106.658 392.563 108.52 392.47 110.38C392.385 111.348 392.11 112.289 391.66 113.15C391.179 114.008 390.538 114.765 389.77 115.38C388.225 116.508 386.51 117.382 384.69 117.97L379.54 119.82L369.79 123.31L353.28 129.19L342.13 133.11L339.13 134.11L338.33 134.37C338.245 134.408 338.153 134.432 338.06 134.44C338.06 134.44 338.14 134.44 338.31 134.32L339.09 134.01L342.09 132.88L353.18 128.8L369.66 122.8L379.39 119.28L384.54 117.42C386.309 116.856 387.974 116.008 389.47 114.91C390.184 114.34 390.782 113.637 391.23 112.84C391.654 112.044 391.909 111.169 391.98 110.27C392.072 108.477 391.828 106.683 391.26 104.98C390.18 101.58 389.04 98.2902 388.01 95.1602C385.93 88.9102 384.01 83.2702 382.49 78.5302C380.97 73.7902 379.69 69.9802 378.81 67.3002C378.39 65.9902 378.07 64.9702 377.81 64.2302L377.57 63.4302C377.54 63.3696 377.516 63.3059 377.5 63.2402Z" fill="#263238"/>
<path d="M349.34 49.4493C349.34 49.4493 348.81 49.1893 347.83 48.7893C346.433 48.2525 344.956 47.955 343.46 47.9093C341.243 47.8332 339.037 48.2499 337 49.1293C334.524 50.2242 332.406 51.9953 330.89 54.2393C329.364 56.4768 328.546 59.121 328.54 61.8293C328.561 64.049 328.898 66.2544 329.54 68.3793C330.06 70.1993 330.6 71.6493 330.96 72.6593C331.173 73.1723 331.346 73.7004 331.48 74.2393C331.196 73.7596 330.958 73.254 330.77 72.7293C330.36 71.7293 329.77 70.3093 329.19 68.4793C328.478 66.3321 328.091 64.0908 328.04 61.8293C328.014 59.0187 328.851 56.2678 330.44 53.9493C332.009 51.6234 334.213 49.7975 336.79 48.6893C338.89 47.8051 341.165 47.4151 343.44 47.5493C344.968 47.6271 346.47 47.983 347.87 48.5993C348.245 48.772 348.606 48.9726 348.95 49.1993C349.092 49.2618 349.224 49.3461 349.34 49.4493Z" fill="#263238"/>
<path d="M349.8 88.5788C349.96 88.4821 350.127 88.3985 350.3 88.3288C350.801 88.103 351.319 87.919 351.85 87.7788C352.693 87.5301 353.562 87.3824 354.44 87.3388C355.634 87.2747 356.828 87.455 357.95 87.8688C360.51 88.7688 362.86 91.3788 364.02 94.8688C364.576 96.7417 364.576 98.7359 364.02 100.609C363.403 102.642 362.298 104.492 360.8 105.999L360.86 105.729C362.19 109.379 363.64 113.339 365.14 117.469L365.23 117.719L364.98 117.809L362.69 118.569L357.69 120.239L357.44 120.319L357.36 120.069C355.99 115.929 354.49 112.069 353.36 108.279L353.58 108.449C351.625 108.286 349.761 107.553 348.22 106.339C346.826 105.265 345.683 103.9 344.87 102.339C344.137 100.954 343.772 99.4049 343.81 97.8388C343.856 96.2383 344.256 94.6678 344.98 93.2398C345.705 91.8118 346.736 90.5616 348 89.5788C348.52 89.1564 349.104 88.8189 349.73 88.5788C349.165 88.914 348.618 89.2778 348.09 89.6688C346.701 90.8437 345.638 92.3552 345 94.0588C344.453 95.3435 344.197 96.7333 344.251 98.1286C344.304 99.5238 344.666 100.89 345.31 102.129C346.109 103.631 347.225 104.941 348.58 105.969C350.05 107.123 351.827 107.818 353.69 107.969H353.86L353.91 108.119C355.01 111.839 356.52 115.729 357.91 119.889L357.58 119.729L362.58 118.059L364.86 117.289L364.7 117.629C363.21 113.499 361.77 109.529 360.45 105.879V105.729L360.57 105.609C362.024 104.165 363.108 102.391 363.73 100.439C364.26 98.6473 364.26 96.7404 363.73 94.9488C362.64 91.5888 360.39 89.0388 357.95 88.1388C356.87 87.7224 355.717 87.5285 354.56 87.5688C353.696 87.5886 352.837 87.706 352 87.9188C350.51 88.2888 349.81 88.6288 349.8 88.5788Z" fill="#263238"/>
<path d="M318.89 377.32L219 376.86C213.231 376.828 207.711 374.508 203.652 370.41C199.593 366.311 197.326 360.769 197.35 355L198.41 104.59C198.422 101.732 198.997 98.9044 200.102 96.2688C201.207 93.6332 202.821 91.2412 204.851 89.2296C206.881 87.218 209.288 85.6263 211.934 84.5453C214.579 83.4644 217.412 82.9155 220.27 82.93L320.15 83.39C325.919 83.4191 331.44 85.7365 335.501 89.8333C339.562 93.9302 341.831 99.4714 341.81 105.24L340.75 355.64C340.738 358.499 340.163 361.327 339.059 363.964C337.954 366.601 336.34 368.994 334.31 371.007C332.28 373.021 329.874 374.614 327.228 375.697C324.582 376.78 321.749 377.332 318.89 377.32Z" fill="#455A64"/>
<path d="M320 92.0004H300.64C300.008 92.0121 299.385 92.1482 298.806 92.4008C298.227 92.6534 297.703 93.0176 297.265 93.4726C296.827 93.9277 296.482 94.4646 296.251 95.0527C296.021 95.6409 295.908 96.2687 295.92 96.9004V100.41C295.932 101.042 295.819 101.669 295.588 102.257C295.357 102.844 295.013 103.38 294.574 103.835C294.136 104.289 293.612 104.652 293.033 104.904C292.454 105.155 291.831 105.29 291.2 105.3L253.46 105.13C252.183 105.096 250.972 104.557 250.093 103.631C249.213 102.705 248.738 101.467 248.77 100.19V96.6804C248.802 95.4053 248.328 94.1694 247.451 93.2435C246.573 92.3176 245.365 91.7771 244.09 91.7404H237.28L220.33 91.6604C216.298 91.6364 212.421 93.2109 209.548 96.0392C206.675 98.8674 205.04 102.719 205 106.75L204 351.17C203.991 353.17 204.376 355.153 205.132 357.004C205.889 358.855 207.003 360.539 208.411 361.96C209.819 363.381 211.493 364.51 213.337 365.284C215.181 366.058 217.16 366.461 219.16 366.47L318.84 366.93C320.841 366.94 322.825 366.555 324.677 365.797C326.53 365.04 328.215 363.925 329.637 362.516C331.058 361.108 332.189 359.433 332.963 357.587C333.737 355.742 334.141 353.762 334.15 351.76L335.15 107.34C335.174 103.298 333.591 99.4107 330.751 96.5341C327.91 93.6576 324.043 92.0269 320 92.0004Z" fill="white"/>
<path d="M306.59 334.321L232.47 334.001C231.7 334.001 231.08 333.161 231.09 332.141L231.17 312.751C231.17 311.751 231.8 310.891 232.57 310.891L306.69 311.231C307.117 311.304 307.498 311.54 307.755 311.888C308.013 312.237 308.125 312.671 308.07 313.101L308 332.471C308 333.501 307.36 334.331 306.59 334.321Z" fill="#4242FF"/>
<path d="M255.086 324.699C254.664 324.699 254.257 324.631 253.867 324.496C253.482 324.355 253.184 324.176 252.972 323.959L253.208 323.496C253.409 323.691 253.677 323.856 254.013 323.992C254.355 324.122 254.712 324.187 255.086 324.187C255.444 324.187 255.734 324.144 255.956 324.057C256.184 323.965 256.349 323.843 256.452 323.691C256.561 323.539 256.615 323.371 256.615 323.187C256.615 322.965 256.55 322.786 256.42 322.65C256.295 322.515 256.13 322.409 255.924 322.333C255.718 322.252 255.49 322.181 255.241 322.122C254.992 322.062 254.742 322 254.493 321.935C254.243 321.864 254.013 321.772 253.802 321.658C253.596 321.544 253.428 321.395 253.298 321.211C253.173 321.021 253.11 320.774 253.11 320.471C253.11 320.189 253.184 319.932 253.33 319.698C253.482 319.46 253.712 319.27 254.021 319.129C254.33 318.983 254.726 318.91 255.208 318.91C255.528 318.91 255.845 318.956 256.16 319.048C256.474 319.135 256.745 319.257 256.973 319.414L256.77 319.894C256.526 319.731 256.265 319.612 255.989 319.536C255.718 319.46 255.455 319.422 255.2 319.422C254.859 319.422 254.577 319.468 254.355 319.56C254.132 319.652 253.967 319.777 253.859 319.934C253.756 320.086 253.704 320.259 253.704 320.455C253.704 320.677 253.766 320.856 253.891 320.991C254.021 321.127 254.189 321.233 254.395 321.308C254.607 321.384 254.837 321.452 255.086 321.512C255.336 321.571 255.582 321.636 255.826 321.707C256.076 321.777 256.303 321.869 256.509 321.983C256.721 322.092 256.889 322.238 257.014 322.422C257.144 322.607 257.209 322.848 257.209 323.146C257.209 323.423 257.133 323.68 256.981 323.919C256.829 324.152 256.596 324.341 256.282 324.488C255.973 324.629 255.574 324.699 255.086 324.699ZM258.52 324.65V318.958H259.121V324.65H258.52ZM260.973 324.65V318.958H261.469L265.397 323.902H265.137V318.958H265.73V324.65H265.234L261.315 319.707H261.575V324.65H260.973ZM270.084 324.699C269.651 324.699 269.249 324.629 268.881 324.488C268.518 324.341 268.201 324.138 267.93 323.878C267.664 323.618 267.455 323.311 267.303 322.959C267.157 322.607 267.084 322.222 267.084 321.804C267.084 321.387 267.157 321.002 267.303 320.65C267.455 320.297 267.667 319.991 267.938 319.731C268.209 319.471 268.526 319.27 268.889 319.129C269.258 318.983 269.659 318.91 270.092 318.91C270.526 318.91 270.922 318.977 271.28 319.113C271.643 319.249 271.952 319.454 272.207 319.731L271.833 320.113C271.594 319.875 271.331 319.704 271.044 319.601C270.756 319.498 270.447 319.446 270.117 319.446C269.764 319.446 269.439 319.506 269.141 319.625C268.848 319.739 268.591 319.904 268.369 320.121C268.152 320.333 267.981 320.582 267.856 320.869C267.737 321.151 267.677 321.463 267.677 321.804C267.677 322.141 267.737 322.452 267.856 322.74C267.981 323.027 268.152 323.279 268.369 323.496C268.591 323.707 268.848 323.872 269.141 323.992C269.439 324.106 269.762 324.163 270.109 324.163C270.434 324.163 270.74 324.114 271.028 324.016C271.32 323.919 271.589 323.753 271.833 323.52L272.174 323.975C271.903 324.214 271.586 324.396 271.223 324.52C270.859 324.64 270.48 324.699 270.084 324.699ZM271.597 323.902V321.804H272.174V323.975L271.597 323.902ZM278.298 324.699C277.572 324.699 277 324.49 276.582 324.073C276.165 323.656 275.956 323.038 275.956 322.219V318.958H276.558V322.195C276.558 322.867 276.71 323.363 277.013 323.683C277.317 324.003 277.745 324.163 278.298 324.163C278.857 324.163 279.287 324.003 279.591 323.683C279.895 323.363 280.046 322.867 280.046 322.195V318.958H280.632V322.219C280.632 323.038 280.423 323.656 280.006 324.073C279.594 324.49 279.025 324.699 278.298 324.699ZM282.445 324.65V318.958H284.575C285.058 318.958 285.473 319.037 285.82 319.194C286.166 319.346 286.432 319.568 286.616 319.861C286.806 320.148 286.901 320.498 286.901 320.91C286.901 321.311 286.806 321.658 286.616 321.951C286.432 322.238 286.166 322.46 285.82 322.618C285.473 322.775 285.058 322.853 284.575 322.853H282.778L283.047 322.569V324.65H282.445ZM283.047 322.618L282.778 322.325H284.559C285.128 322.325 285.559 322.203 285.852 321.959C286.15 321.71 286.299 321.36 286.299 320.91C286.299 320.455 286.15 320.102 285.852 319.853C285.559 319.604 285.128 319.479 284.559 319.479H282.778L283.047 319.194V322.618Z" fill="#E8E8E3"/>
<path d="M247.254 163.851L221.534 163.734L221.513 168.454L247.233 168.571L247.254 163.851Z" fill="#4242FF"/>
<path opacity="0.1" d="M247.254 163.851L221.534 163.734L221.513 168.454L247.233 168.571L247.254 163.851Z" fill="black"/>
<path d="M322.65 192.829C322.852 192.809 323.05 192.762 323.24 192.689C323.517 192.581 323.758 192.397 323.934 192.158C324.111 191.919 324.217 191.635 324.24 191.339C324.24 189.749 324.24 187.429 324.24 184.449C324.24 182.959 324.24 181.289 324.24 179.449C324.24 178.999 324.24 178.529 324.24 178.059C324.305 177.603 324.206 177.139 323.96 176.749C323.822 176.562 323.643 176.41 323.437 176.304C323.23 176.198 323.002 176.142 322.77 176.139H321.21H306.76L223.12 175.829C222.906 175.825 222.694 175.874 222.503 175.969C222.311 176.065 222.146 176.206 222.02 176.379C221.779 176.77 221.686 177.235 221.76 177.689C221.76 178.689 221.76 179.689 221.76 180.689C221.76 182.689 221.76 184.689 221.76 186.689C221.76 187.689 221.76 188.689 221.76 189.689C221.719 190.155 221.719 190.623 221.76 191.089C221.813 191.289 221.91 191.474 222.045 191.63C222.181 191.786 222.35 191.909 222.54 191.989C222.737 192.068 222.948 192.105 223.16 192.099H228.25L250.46 192.219L288.06 192.449L313.41 192.649L320.3 192.729H322.09C322.5 192.729 322.7 192.729 322.7 192.729H322.09H320.3H313.41H288.06L250.46 192.609L228.25 192.519H223.16C222.88 192.53 222.601 192.483 222.34 192.379C222.077 192.267 221.843 192.096 221.655 191.879C221.468 191.662 221.333 191.406 221.26 191.129C221.202 190.867 221.182 190.597 221.2 190.329V189.589C221.2 188.589 221.2 187.589 221.2 186.589C221.2 184.589 221.2 182.589 221.2 180.589C221.2 179.589 221.2 178.589 221.2 177.589C221.181 177.323 221.181 177.055 221.2 176.789C221.238 176.495 221.351 176.216 221.53 175.979C221.703 175.738 221.931 175.542 222.196 175.408C222.46 175.273 222.753 175.205 223.05 175.209L306.69 175.669L321.14 175.769H322.7C322.975 175.769 323.246 175.836 323.489 175.963C323.733 176.09 323.943 176.274 324.1 176.499C324.382 176.934 324.496 177.457 324.42 177.969C324.42 178.439 324.42 178.909 324.42 179.359C324.42 181.179 324.42 182.849 324.42 184.359C324.42 187.359 324.35 189.659 324.33 191.259C324.306 191.567 324.194 191.861 324.008 192.107C323.822 192.354 323.569 192.542 323.28 192.649C323.091 192.766 322.873 192.829 322.65 192.829Z" fill="#E0E0E0"/>
<path d="M276.3 180.85H229.26V185.26H276.3V180.85Z" fill="#4242FF"/>
<path opacity="0.2" d="M276.3 180.85H229.26V185.26H276.3V180.85Z" fill="white"/>
<path d="M247.079 206.91L221.359 206.793L221.337 211.513L247.057 211.63L247.079 206.91Z" fill="#4242FF"/>
<path opacity="0.1" d="M247.079 206.91L221.359 206.793L221.337 211.513L247.057 211.63L247.079 206.91Z" fill="black"/>
<path d="M322 235.891C322.202 235.866 322.402 235.829 322.6 235.781C322.879 235.692 323.136 235.544 323.354 235.348C323.571 235.151 323.744 234.91 323.86 234.641C324.018 234.237 324.079 233.802 324.04 233.371C324.04 232.891 324.04 232.371 324.04 231.791C324.04 230.631 324.04 229.311 324.04 227.791V221.441C324.088 220.981 323.986 220.518 323.75 220.121C323.503 219.713 323.115 219.411 322.66 219.271C322.162 219.182 321.655 219.155 321.15 219.191H306.76L223.41 218.881C222.962 218.882 222.529 219.046 222.193 219.342C221.856 219.638 221.638 220.046 221.58 220.491C221.58 221.441 221.58 222.491 221.58 223.491C221.58 225.491 221.58 227.491 221.58 229.491C221.58 230.491 221.58 231.491 221.58 232.491C221.543 232.958 221.563 233.428 221.64 233.891C221.765 234.296 222.022 234.648 222.37 234.891C222.74 235.125 223.173 235.237 223.61 235.211H225H227.89L250.02 235.321L287.49 235.551L312.75 235.751L319.62 235.831H312.75H287.49L250 235.791L227.87 235.711H223.52C222.979 235.743 222.443 235.599 221.99 235.301C221.535 234.986 221.203 234.523 221.05 233.991C220.96 233.483 220.934 232.966 220.97 232.451C220.97 231.451 220.97 230.451 220.97 229.451C220.97 227.451 220.97 225.451 220.97 223.451C220.97 222.451 220.97 221.451 220.97 220.451C221.043 219.879 221.322 219.353 221.755 218.972C222.187 218.591 222.744 218.381 223.32 218.381L306.67 218.841L321.06 218.951C321.596 218.918 322.134 218.955 322.66 219.061C323.18 219.231 323.618 219.587 323.89 220.061C324.149 220.501 324.261 221.013 324.21 221.521C324.21 221.991 324.21 222.451 324.21 222.911C324.21 224.721 324.21 226.381 324.21 227.911C324.21 229.441 324.21 230.731 324.21 231.911C324.21 232.481 324.21 233.011 324.21 233.501C324.246 233.948 324.174 234.397 324 234.811C323.87 235.087 323.683 235.331 323.45 235.528C323.217 235.725 322.944 235.869 322.65 235.951C322.432 235.969 322.212 235.949 322 235.891Z" fill="#E0E0E0"/>
<path d="M246.885 251.837L221.165 251.721L221.144 256.441L246.864 256.557L246.885 251.837Z" fill="#4242FF"/>
<path opacity="0.1" d="M246.885 251.837L221.165 251.721L221.144 256.441L246.864 256.557L246.885 251.837Z" fill="black"/>
<path d="M321.8 280.8C322.002 280.776 322.203 280.74 322.4 280.69C322.678 280.602 322.934 280.455 323.151 280.261C323.369 280.066 323.542 279.827 323.66 279.56C323.817 279.156 323.878 278.722 323.84 278.29C323.84 277.8 323.84 277.29 323.84 276.7C323.84 275.55 323.84 274.22 323.84 272.7V266.35C323.888 265.89 323.786 265.428 323.55 265.03C323.297 264.63 322.911 264.332 322.46 264.19C321.962 264.098 321.455 264.067 320.95 264.1H306.56L223.21 263.79C222.762 263.791 222.329 263.955 221.992 264.251C221.656 264.547 221.438 264.956 221.38 265.4C221.38 266.4 221.38 267.4 221.38 268.4C221.38 270.4 221.38 272.4 221.38 274.4C221.38 275.4 221.38 276.4 221.38 277.4C221.343 277.864 221.363 278.331 221.44 278.79C221.56 279.198 221.818 279.552 222.17 279.79C222.537 280.03 222.973 280.142 223.41 280.11H227.76L249.89 280.23L287.36 280.46L312.62 280.66L319.49 280.74H312.62H287.36L249.89 280.63L227.76 280.54H223.41C222.869 280.577 222.331 280.432 221.88 280.13C221.425 279.815 221.093 279.352 220.94 278.82C220.85 278.312 220.824 277.795 220.86 277.28C220.86 276.28 220.86 275.28 220.86 274.28C220.86 272.28 220.86 270.28 220.86 268.28C220.86 267.28 220.86 266.28 220.86 265.23C220.931 264.659 221.208 264.134 221.638 263.753C222.069 263.371 222.625 263.161 223.2 263.16L306.55 263.62L320.94 263.73C321.476 263.697 322.014 263.734 322.54 263.84C323.06 264.01 323.498 264.366 323.77 264.84C324.029 265.281 324.141 265.792 324.09 266.3C324.09 266.77 324.09 267.24 324.09 267.69C324.09 269.5 324.09 271.16 324.09 272.69C324.09 274.22 324.09 275.51 324.09 276.69C324.09 277.26 324.09 277.79 324.09 278.28C324.128 278.727 324.056 279.177 323.88 279.59C323.75 279.866 323.562 280.111 323.329 280.307C323.096 280.504 322.824 280.648 322.53 280.73C322.296 280.81 322.045 280.834 321.8 280.8Z" fill="#E0E0E0"/>
<path d="M275.296 225.157L228.256 224.943L228.236 229.353L275.276 229.567L275.296 225.157Z" fill="#4242FF"/>
<path opacity="0.2" d="M275.296 225.157L228.256 224.943L228.236 229.353L275.276 229.567L275.296 225.157Z" fill="white"/>
<path d="M232.51 272.64C232.48 273.043 232.334 273.427 232.087 273.747C231.841 274.066 231.507 274.307 231.125 274.438C230.744 274.569 230.332 274.585 229.942 274.485C229.551 274.384 229.199 274.171 228.928 273.872C228.657 273.573 228.481 273.201 228.419 272.802C228.358 272.404 228.415 271.996 228.584 271.629C228.752 271.263 229.025 270.954 229.367 270.741C229.709 270.528 230.107 270.42 230.51 270.43C231.067 270.461 231.59 270.711 231.964 271.125C232.338 271.538 232.535 272.083 232.51 272.64Z" fill="#4242FF"/>
<path d="M238.88 272.67C238.9 272.952 238.861 273.235 238.767 273.501C238.673 273.768 238.524 274.012 238.332 274.219C238.139 274.425 237.906 274.59 237.646 274.703C237.387 274.816 237.108 274.874 236.825 274.874C236.543 274.874 236.263 274.816 236.004 274.703C235.745 274.59 235.511 274.425 235.319 274.219C235.126 274.012 234.978 273.768 234.883 273.501C234.789 273.235 234.75 272.952 234.77 272.67C234.75 272.388 234.789 272.105 234.883 271.839C234.978 271.573 235.126 271.328 235.319 271.122C235.511 270.915 235.745 270.75 236.004 270.638C236.263 270.525 236.543 270.467 236.825 270.467C237.108 270.467 237.387 270.525 237.646 270.638C237.906 270.75 238.139 270.915 238.332 271.122C238.524 271.328 238.673 271.573 238.767 271.839C238.861 272.105 238.9 272.388 238.88 272.67Z" fill="#4242FF"/>
<path d="M245.26 272.699C245.23 273.101 245.084 273.486 244.837 273.805C244.591 274.125 244.257 274.365 243.875 274.496C243.494 274.627 243.082 274.644 242.692 274.543C242.301 274.443 241.949 274.23 241.678 273.931C241.407 273.632 241.231 273.26 241.169 272.861C241.108 272.462 241.165 272.054 241.334 271.688C241.502 271.321 241.775 271.013 242.117 270.799C242.459 270.586 242.857 270.478 243.26 270.489C243.816 270.523 244.337 270.773 244.711 271.186C245.085 271.599 245.282 272.142 245.26 272.699Z" fill="#4242FF"/>
<path d="M251.63 272.73C251.601 273.133 251.454 273.517 251.208 273.837C250.961 274.156 250.627 274.396 250.245 274.528C249.864 274.659 249.452 274.675 249.062 274.574C248.671 274.474 248.319 274.261 248.048 273.962C247.778 273.663 247.601 273.291 247.539 272.892C247.478 272.494 247.535 272.086 247.704 271.719C247.872 271.353 248.145 271.044 248.487 270.831C248.829 270.618 249.227 270.51 249.63 270.52C250.186 270.554 250.707 270.804 251.081 271.217C251.455 271.63 251.652 272.174 251.63 272.73Z" fill="#4242FF"/>
<path d="M258 272.75C257.972 273.152 257.827 273.538 257.582 273.859C257.337 274.18 257.003 274.422 256.621 274.555C256.24 274.687 255.828 274.705 255.437 274.605C255.046 274.506 254.692 274.293 254.42 273.995C254.149 273.696 253.971 273.324 253.909 272.925C253.847 272.526 253.904 272.117 254.072 271.75C254.24 271.383 254.513 271.074 254.856 270.86C255.198 270.647 255.596 270.539 256 270.55C256.554 270.583 257.074 270.832 257.447 271.243C257.821 271.654 258.019 272.195 258 272.75Z" fill="#4242FF"/>
<path d="M264.38 272.78C264.353 273.181 264.209 273.565 263.966 273.885C263.723 274.205 263.392 274.447 263.014 274.581C262.635 274.716 262.226 274.737 261.836 274.641C261.445 274.546 261.092 274.338 260.818 274.044C260.544 273.751 260.362 273.383 260.294 272.987C260.227 272.591 260.276 272.184 260.437 271.816C260.598 271.448 260.863 271.135 261.199 270.915C261.535 270.696 261.928 270.579 262.33 270.58C262.893 270.601 263.425 270.844 263.81 271.257C264.194 271.669 264.399 272.217 264.38 272.78Z" fill="#4242FF"/>
<path d="M270.75 272.811C270.77 273.093 270.731 273.376 270.637 273.642C270.542 273.909 270.394 274.153 270.202 274.359C270.009 274.566 269.776 274.731 269.516 274.843C269.257 274.956 268.978 275.014 268.695 275.014C268.412 275.014 268.133 274.956 267.874 274.843C267.614 274.731 267.381 274.566 267.189 274.359C266.996 274.153 266.848 273.909 266.753 273.642C266.659 273.376 266.62 273.093 266.64 272.811C266.62 272.529 266.659 272.246 266.753 271.98C266.848 271.713 266.996 271.469 267.189 271.262C267.381 271.056 267.614 270.891 267.874 270.778C268.133 270.666 268.412 270.607 268.695 270.607C268.978 270.607 269.257 270.666 269.516 270.778C269.776 270.891 270.009 271.056 270.202 271.262C270.394 271.469 270.542 271.713 270.637 271.98C270.731 272.246 270.77 272.529 270.75 272.811Z" fill="#4242FF"/>
<path d="M277.12 272.841C277.093 273.241 276.949 273.625 276.706 273.945C276.463 274.266 276.132 274.508 275.754 274.642C275.375 274.776 274.966 274.797 274.576 274.702C274.185 274.606 273.832 274.399 273.558 274.105C273.284 273.811 273.102 273.444 273.034 273.048C272.967 272.652 273.016 272.245 273.177 271.876C273.338 271.508 273.602 271.195 273.939 270.976C274.275 270.756 274.668 270.64 275.07 270.641C275.633 270.661 276.165 270.905 276.55 271.317C276.934 271.729 277.139 272.277 277.12 272.841Z" fill="#4242FF"/>
<path d="M283.49 272.871C283.462 273.273 283.317 273.659 283.072 273.98C282.827 274.301 282.493 274.543 282.111 274.676C281.73 274.808 281.318 274.826 280.927 274.726C280.536 274.627 280.182 274.414 279.91 274.116C279.639 273.817 279.461 273.445 279.399 273.046C279.337 272.647 279.394 272.238 279.562 271.871C279.73 271.504 280.003 271.195 280.346 270.981C280.688 270.768 281.086 270.66 281.49 270.671C282.044 270.704 282.564 270.953 282.937 271.364C283.311 271.775 283.509 272.316 283.49 272.871Z" fill="#4242FF"/>
<g opacity="0.2">
<path d="M232.51 272.64C232.48 273.043 232.334 273.427 232.087 273.747C231.841 274.066 231.507 274.307 231.125 274.438C230.744 274.569 230.332 274.585 229.942 274.485C229.551 274.384 229.199 274.171 228.928 273.872C228.657 273.573 228.481 273.201 228.419 272.802C228.358 272.404 228.415 271.996 228.584 271.629C228.752 271.263 229.025 270.954 229.367 270.741C229.709 270.528 230.107 270.42 230.51 270.43C231.067 270.461 231.59 270.711 231.964 271.125C232.338 271.538 232.535 272.083 232.51 272.64Z" fill="white"/>
<path d="M238.88 272.67C238.9 272.952 238.861 273.235 238.767 273.501C238.672 273.768 238.524 274.012 238.331 274.219C238.139 274.425 237.905 274.59 237.646 274.703C237.387 274.816 237.107 274.874 236.825 274.874C236.542 274.874 236.263 274.816 236.004 274.703C235.744 274.59 235.511 274.425 235.318 274.219C235.126 274.012 234.977 273.768 234.883 273.501C234.789 273.235 234.75 272.952 234.77 272.67C234.75 272.388 234.789 272.105 234.883 271.839C234.977 271.573 235.126 271.328 235.318 271.122C235.511 270.915 235.744 270.75 236.004 270.638C236.263 270.525 236.542 270.467 236.825 270.467C237.107 270.467 237.387 270.525 237.646 270.638C237.905 270.75 238.139 270.915 238.331 271.122C238.524 271.328 238.672 271.573 238.767 271.839C238.861 272.105 238.9 272.388 238.88 272.67Z" fill="white"/>
<path d="M245.26 272.701C245.23 273.103 245.084 273.488 244.837 273.807C244.591 274.127 244.257 274.367 243.875 274.498C243.494 274.629 243.082 274.646 242.692 274.545C242.301 274.445 241.949 274.232 241.678 273.933C241.407 273.633 241.231 273.262 241.169 272.863C241.108 272.464 241.165 272.056 241.334 271.69C241.502 271.323 241.775 271.014 242.117 270.801C242.459 270.588 242.857 270.48 243.26 270.491C243.816 270.525 244.337 270.775 244.711 271.188C245.085 271.601 245.282 272.144 245.26 272.701Z" fill="white"/>
<path d="M251.63 272.73C251.601 273.133 251.454 273.517 251.208 273.837C250.961 274.156 250.627 274.396 250.245 274.528C249.864 274.659 249.452 274.675 249.062 274.574C248.671 274.474 248.319 274.261 248.048 273.962C247.778 273.663 247.601 273.291 247.539 272.892C247.478 272.494 247.535 272.086 247.704 271.719C247.872 271.353 248.145 271.044 248.487 270.831C248.829 270.618 249.227 270.51 249.63 270.52C250.186 270.554 250.707 270.804 251.081 271.217C251.455 271.63 251.652 272.174 251.63 272.73Z" fill="white"/>
<path d="M258 272.75C257.972 273.152 257.827 273.538 257.582 273.859C257.337 274.18 257.003 274.422 256.621 274.555C256.24 274.687 255.828 274.705 255.437 274.605C255.046 274.506 254.692 274.293 254.42 273.995C254.149 273.696 253.971 273.324 253.909 272.925C253.847 272.526 253.904 272.117 254.072 271.75C254.24 271.383 254.513 271.074 254.856 270.86C255.198 270.647 255.596 270.539 256 270.55C256.554 270.583 257.074 270.832 257.447 271.243C257.821 271.654 258.019 272.195 258 272.75Z" fill="white"/>
<path d="M264.38 272.78C264.353 273.181 264.209 273.565 263.966 273.885C263.723 274.205 263.392 274.447 263.014 274.581C262.635 274.716 262.226 274.737 261.835 274.641C261.445 274.546 261.091 274.338 260.818 274.044C260.544 273.751 260.362 273.383 260.294 272.987C260.226 272.591 260.276 272.184 260.437 271.816C260.597 271.448 260.862 271.135 261.199 270.915C261.535 270.696 261.928 270.579 262.33 270.58C262.893 270.601 263.425 270.844 263.809 271.257C264.194 271.669 264.399 272.217 264.38 272.78Z" fill="white"/>
<path d="M270.75 272.811C270.77 273.093 270.731 273.376 270.637 273.642C270.542 273.909 270.394 274.153 270.202 274.359C270.009 274.566 269.776 274.731 269.516 274.843C269.257 274.956 268.978 275.014 268.695 275.014C268.412 275.014 268.133 274.956 267.874 274.843C267.614 274.731 267.381 274.566 267.189 274.359C266.996 274.153 266.848 273.909 266.753 273.642C266.659 273.376 266.62 273.093 266.64 272.811C266.62 272.529 266.659 272.246 266.753 271.98C266.848 271.713 266.996 271.469 267.189 271.262C267.381 271.056 267.614 270.891 267.874 270.778C268.133 270.666 268.412 270.607 268.695 270.607C268.978 270.607 269.257 270.666 269.516 270.778C269.776 270.891 270.009 271.056 270.202 271.262C270.394 271.469 270.542 271.713 270.637 271.98C270.731 272.246 270.77 272.529 270.75 272.811Z" fill="white"/>
<path d="M277.12 272.841C277.093 273.241 276.949 273.625 276.706 273.945C276.463 274.266 276.132 274.508 275.754 274.642C275.375 274.776 274.966 274.797 274.575 274.702C274.185 274.606 273.831 274.399 273.558 274.105C273.284 273.811 273.102 273.444 273.034 273.048C272.966 272.652 273.016 272.245 273.177 271.876C273.337 271.508 273.602 271.195 273.939 270.976C274.275 270.756 274.668 270.64 275.07 270.641C275.633 270.661 276.165 270.905 276.549 271.317C276.934 271.729 277.139 272.277 277.12 272.841Z" fill="white"/>
<path d="M283.49 272.871C283.462 273.273 283.317 273.659 283.072 273.98C282.827 274.301 282.493 274.543 282.111 274.676C281.73 274.808 281.318 274.826 280.927 274.726C280.536 274.627 280.182 274.414 279.91 274.116C279.639 273.817 279.461 273.445 279.399 273.046C279.337 272.647 279.394 272.238 279.562 271.871C279.73 271.504 280.003 271.195 280.346 270.981C280.688 270.768 281.086 270.66 281.49 270.671C282.044 270.704 282.564 270.953 282.937 271.364C283.311 271.775 283.509 272.316 283.49 272.871Z" fill="white"/>
</g>
<path d="M274.44 128.511C275.135 128.205 275.724 127.701 276.135 127.063C276.545 126.425 276.759 125.68 276.75 124.921C276.776 124.427 276.701 123.934 276.53 123.47C276.359 123.007 276.095 122.583 275.755 122.224C275.415 121.866 275.006 121.581 274.552 121.385C274.098 121.19 273.609 121.09 273.115 121.09C272.621 121.09 272.132 121.19 271.678 121.385C271.224 121.581 270.815 121.866 270.474 122.224C270.134 122.583 269.871 123.007 269.7 123.47C269.529 123.934 269.454 124.427 269.48 124.921C269.465 125.687 269.677 126.441 270.09 127.087C270.503 127.733 271.098 128.242 271.8 128.551C266.2 129.391 266.45 135.471 266.45 135.471L279.69 135.531C279.69 135.531 280 129.341 274.44 128.511Z" fill="#4242FF"/>
<path opacity="0.1" d="M274.44 128.511C275.135 128.205 275.724 127.701 276.135 127.063C276.545 126.425 276.759 125.68 276.75 124.921C276.776 124.427 276.701 123.934 276.53 123.47C276.359 123.007 276.095 122.583 275.755 122.224C275.415 121.866 275.006 121.581 274.552 121.385C274.098 121.19 273.609 121.09 273.115 121.09C272.621 121.09 272.132 121.19 271.678 121.385C271.224 121.581 270.815 121.866 270.474 122.224C270.134 122.583 269.871 123.007 269.7 123.47C269.529 123.934 269.454 124.427 269.48 124.921C269.465 125.687 269.677 126.441 270.09 127.087C270.503 127.733 271.098 128.242 271.8 128.551C266.2 129.391 266.45 135.471 266.45 135.471L279.69 135.531C279.69 135.531 280 129.341 274.44 128.511Z" fill="black"/>
<path d="M295.955 139.45L248.765 139.236L248.74 144.876L295.929 145.09L295.955 139.45Z" fill="#4242FF"/>
<path opacity="0.2" d="M295.955 139.45L248.765 139.236L248.74 144.876L295.929 145.09L295.955 139.45Z" fill="white"/>
<path d="M122.47 168.68H122L120.64 168.78C119.904 168.824 119.172 168.921 118.45 169.07C117.982 169.135 117.518 169.226 117.06 169.34L115.51 169.77C112.872 170.579 110.383 171.812 108.14 173.42C105.177 175.571 102.703 178.324 100.88 181.5C99.8087 183.33 98.9562 185.28 98.34 187.31C97.6925 189.515 97.3197 191.793 97.23 194.09C97.1704 195.296 97.1904 196.506 97.29 197.71C97.29 198.32 97.46 198.93 97.54 199.55C97.6073 200.175 97.7243 200.793 97.89 201.4C98.7892 205.413 100.614 209.16 103.218 212.342C105.822 215.525 109.134 218.054 112.89 219.73C115.608 220.903 118.521 221.557 121.48 221.66C124.536 221.828 127.594 221.389 130.48 220.37L131.36 220.04H131.48L131.58 220.1L144.19 226.5L143.82 226.82C142.47 222.64 141.17 218.59 139.91 214.7V214.55L140.02 214.44C143.079 211.359 145.35 207.585 146.64 203.44C147.809 199.65 148.15 195.653 147.64 191.72C147.187 188.224 146.063 184.849 144.33 181.78C142.836 179.143 140.909 176.777 138.63 174.78C136.749 173.199 134.668 171.874 132.44 170.84C130.754 170.113 128.998 169.56 127.2 169.19L125.2 168.86L123.75 168.75L122.87 168.69H122.57C122.67 168.679 122.77 168.679 122.87 168.69H123.76L125.21 168.75L127.21 169.04C129.031 169.383 130.81 169.916 132.52 170.63C134.786 171.652 136.905 172.974 138.82 174.56C141.141 176.548 143.109 178.915 144.64 181.56C146.422 184.662 147.58 188.083 148.05 191.63C148.602 195.624 148.285 199.69 147.12 203.55C145.821 207.782 143.515 211.635 140.4 214.78L140.46 214.52C141.72 218.41 143.03 222.46 144.39 226.63L144.58 227.24L144.01 226.95L131.4 220.56H131.62L130.72 220.89C127.779 221.925 124.664 222.373 121.55 222.21C118.528 222.095 115.553 221.416 112.78 220.21C107.49 217.944 103.088 214.006 100.25 209C98.9439 206.688 97.9901 204.193 97.42 201.6C97.2639 200.978 97.147 200.346 97.07 199.71C96.99 199.08 96.86 198.46 96.83 197.84C96.5593 194.282 96.9354 190.704 97.94 187.28C98.5715 185.222 99.4478 183.248 100.55 181.4C102.416 178.195 104.942 175.424 107.96 173.27C110.24 171.658 112.771 170.435 115.45 169.65L117.02 169.25C117.482 169.143 117.949 169.059 118.42 169C119.15 168.865 119.888 168.784 120.63 168.76L122 168.71C122.156 168.689 122.313 168.679 122.47 168.68Z" fill="#4242FF"/>
<path d="M128.17 192H126.32L122.32 186.38V182.69C122.32 182.69 119.46 182.51 119.8 187.34C120.14 192.17 119.8 190.94 119.8 190.94C119.8 190.94 113.73 190.94 113.23 191.49C112.73 192.04 112.7 197.9 112.63 201.17C112.592 201.959 112.818 202.737 113.273 203.382C113.727 204.027 114.385 204.502 115.14 204.73C115.352 204.789 115.57 204.819 115.79 204.82C117.31 204.82 125.04 203.59 125.04 203.59H128.23L128.17 192Z" fill="#4242FF"/>
<path d="M133.46 191.01L132.32 203.65H129.16V191.27L133.46 191.01Z" fill="#4242FF"/>
<path d="M171.15 448.34V439.79L155.82 439.68L155.69 452.61L156.64 452.68C160.87 452.95 178.16 453.35 181 452.47C184.16 451.49 171.15 448.34 171.15 448.34Z" fill="#4242FF"/>
<path d="M181.36 451.67C181.36 451.81 175.62 451.93 168.55 451.93C161.48 451.93 155.74 451.81 155.74 451.67C155.74 451.53 161.48 451.41 168.55 451.41C175.62 451.41 181.36 451.53 181.36 451.67Z" fill="#263238"/>
<path d="M171.42 450.089C171.29 450.019 171.42 449.569 171.73 449.089C172.04 448.609 172.46 448.409 172.56 448.509C172.66 448.609 172.45 448.989 172.15 449.399C171.85 449.809 171.55 450.159 171.42 450.089Z" fill="#263238"/>
<path d="M172.4 450.65C172.26 450.65 172.33 450.09 172.63 449.56C172.93 449.03 173.33 448.71 173.44 448.79C173.55 448.87 173.37 449.32 173.09 449.79C172.81 450.26 172.53 450.7 172.4 450.65Z" fill="#263238"/>
<path d="M160.36 451.63C160.3 451.63 160.07 451.45 159.74 451.07C159.337 450.581 158.888 450.132 158.4 449.73C157.92 449.346 157.347 449.094 156.74 449C156.27 448.94 155.97 449 155.94 448.94C155.91 448.88 156.2 448.67 156.75 448.63C157.476 448.614 158.184 448.855 158.75 449.31C159.28 449.742 159.728 450.267 160.07 450.86C160.3 451.3 160.42 451.59 160.36 451.63Z" fill="#263238"/>
<path d="M171.47 448.481C171.54 448.601 171.28 448.901 170.84 449.061C170.4 449.221 170.01 449.161 169.99 449.061C169.97 448.961 170.28 448.751 170.66 448.611C171.04 448.471 171.39 448.361 171.47 448.481Z" fill="#263238"/>
<path d="M171.23 447.651C171.23 447.801 170.83 447.921 170.31 447.931C169.79 447.941 169.38 447.821 169.39 447.681C169.4 447.541 169.81 447.411 170.31 447.401C170.81 447.391 171.21 447.511 171.23 447.651Z" fill="#263238"/>
<path d="M208.9 448.34V439.79L193.57 439.68L193.44 452.48L194.39 452.55C198.62 452.82 215.92 453.35 218.75 452.47C221.91 451.49 208.9 448.34 208.9 448.34Z" fill="#4242FF"/>
<path d="M219.11 451.69C219.11 451.83 213.38 451.95 206.3 451.95C199.22 451.95 193.5 451.83 193.5 451.69C193.5 451.55 199.23 451.43 206.3 451.43C213.37 451.43 219.11 451.55 219.11 451.69Z" fill="#263238"/>
<path d="M209.17 450.089C209.05 450.019 209.17 449.569 209.48 449.089C209.79 448.609 210.21 448.409 210.31 448.509C210.41 448.609 210.2 448.989 209.9 449.399C209.6 449.809 209.3 450.159 209.17 450.089Z" fill="#263238"/>
<path d="M210.15 450.65C210.02 450.65 210.08 450.09 210.39 449.56C210.7 449.03 211.09 448.71 211.2 448.79C211.31 448.87 211.12 449.32 210.84 449.79C210.56 450.26 210.29 450.7 210.15 450.65Z" fill="#263238"/>
<path d="M198.11 451.63C198.05 451.63 197.83 451.45 197.49 451.07C197.087 450.581 196.638 450.132 196.15 449.73C195.67 449.346 195.097 449.094 194.49 449C194.03 448.94 193.72 449 193.69 448.94C193.66 448.88 193.95 448.67 194.5 448.63C195.226 448.614 195.934 448.855 196.5 449.31C197.033 449.739 197.481 450.265 197.82 450.86C198.05 451.3 198.17 451.59 198.11 451.63Z" fill="#263238"/>
<path d="M209.22 448.481C209.29 448.601 209.03 448.901 208.59 449.061C208.15 449.221 207.76 449.161 207.74 449.061C207.72 448.961 208.03 448.751 208.41 448.611C208.79 448.471 209.14 448.361 209.22 448.481Z" fill="#263238"/>
<path d="M209 447.651C209 447.801 208.6 447.921 208.08 447.931C207.56 447.941 207.16 447.821 207.17 447.681C207.18 447.541 207.58 447.411 208.08 447.401C208.58 447.391 209 447.511 209 447.651Z" fill="#263238"/>
<path d="M265.38 194.441C264.98 194.031 263.99 194.231 263.99 194.231C264.089 193.655 264.089 193.067 263.99 192.491C263.81 191.931 262.55 192.041 262.55 192.041C262.492 191.569 262.492 191.092 262.55 190.621C262.56 190.516 262.538 190.411 262.486 190.32C262.434 190.229 262.355 190.156 262.26 190.111C261.664 189.868 261.023 189.752 260.38 189.771C259.61 189.221 262.73 184.851 263.89 183.451C265.05 182.051 264.84 180.961 263.81 180.961C263.1 180.961 259.46 185.161 258.34 186.571C257.22 187.981 254.25 191.901 254.15 188.771C254.05 185.641 252.79 183.281 252 182.881C251.21 182.481 250.37 183.421 250.8 184.291C251.178 185.279 251.413 186.316 251.5 187.371C251.609 188.211 251.571 189.064 251.39 189.891C251.058 191.43 250.607 192.942 250.04 194.411H249.96C249.96 194.411 228.14 215.341 226.56 216.831C225.15 218.171 196.79 215.241 191.1 214.641C189.166 214.358 187.214 214.224 185.26 214.241C182.79 214.351 182.35 214.701 179.89 214.731C173.677 214.8 167.479 215.345 161.35 216.361C158.575 216.833 155.982 218.058 153.855 219.902C151.729 221.747 150.149 224.14 149.29 226.821C143.56 244.721 130.58 287.091 128.29 310.891C126.56 314.029 124.997 317.257 123.61 320.561C122 324.941 122.39 325.091 122.93 325.191C124.39 325.461 126.05 317.601 126.67 319.501C127.29 321.401 123.52 328.871 125.05 329.091C127.05 329.371 128.64 321.091 128.83 320.431C129.02 319.771 130.01 319.981 129.83 320.601C129.54 321.481 126.73 330.811 128.69 331.111C129.77 331.271 129.89 329.301 129.89 329.301C129.89 329.301 131.89 320.371 132.8 320.551C133.71 320.731 132.74 326.001 132.28 327.761C131.82 329.521 132.46 330.411 133.4 329.981C134.04 329.681 135.57 324.331 135.99 322.591C136.41 320.851 137.46 316.031 138.87 318.821C140.28 321.611 142.42 323.231 143.3 323.271C143.498 323.248 143.685 323.166 143.837 323.036C143.988 322.906 144.097 322.734 144.15 322.542C144.203 322.349 144.197 322.145 144.132 321.956C144.068 321.767 143.949 321.602 143.79 321.481C143.033 320.742 142.383 319.9 141.86 318.981C141.393 318.265 141.055 317.473 140.86 316.641C140.457 314.982 140.222 313.287 140.16 311.581L140 310.581C142.24 299.491 148.69 266.941 158 246.151L161.82 254.011L163.48 259.831L153.3 284.961L196.72 284.391L190.24 259.451L198.11 233.451C206.62 233.641 228.47 233.961 232.11 232.311C236.69 230.311 260.38 200.391 260.38 200.391C261.924 199.191 263.403 197.909 264.81 196.551C264.81 196.551 266.25 195.341 265.38 194.441Z" fill="#FFBE9D"/>
<path d="M151.39 266.39C152.65 262.09 159.12 240.83 159.12 240.83C159.12 240.83 162.3 258.16 161.46 260.25C160.687 262.039 159.774 263.764 158.73 265.41C151.39 276.58 152.35 282.17 152.35 282.17L196.7 280.82C196.8 274.62 193.13 260.2 192.37 257.9C191.61 255.6 194.14 248.07 194.14 248.07C194.14 248.07 199.14 242.98 198.96 240.36C198.865 238.006 198.574 235.665 198.09 233.36L225.09 234.36L224.24 216.06L185.46 212.18C184.11 215.99 171.9 214.12 171.9 214.12C158.72 214.56 157.9 216.98 152.42 221.24C146.94 225.5 137.87 262.06 137.87 262.06L151.39 266.39Z" fill="#4242FF"/>
<path d="M177.61 262.061C176.841 262.198 176.059 262.238 175.28 262.181C173.83 262.181 171.84 262.081 169.65 261.861C167.46 261.641 165.48 261.331 164.07 261.051C163.293 260.951 162.53 260.756 161.8 260.471C162.582 260.471 163.362 260.545 164.13 260.691C165.55 260.871 167.52 261.121 169.7 261.341C171.88 261.561 173.86 261.711 175.29 261.811C176.07 261.821 176.846 261.904 177.61 262.061Z" fill="#263238"/>
<path d="M180.65 258.291C179.881 258.668 179.068 258.946 178.23 259.121C174.24 260.169 170.124 260.657 166 260.571C165.147 260.599 164.293 260.518 163.46 260.331C164.302 260.225 165.151 260.181 166 260.201C167.57 260.151 169.73 260.041 172.11 259.761C174.49 259.481 176.61 259.081 178.11 258.761C178.943 258.539 179.792 258.381 180.65 258.291Z" fill="#263238"/>
<path d="M195.57 241.471C195.55 242.233 195.446 242.991 195.26 243.731C195 245.121 194.6 247.021 194.09 249.101C193.58 251.181 193.09 253.101 192.65 254.401C192.473 255.145 192.211 255.866 191.87 256.551C191.926 255.791 192.066 255.039 192.29 254.311C192.67 252.751 193.1 250.951 193.58 248.981C194.06 247.011 194.52 245.211 194.9 243.651C195.035 242.9 195.26 242.168 195.57 241.471Z" fill="#263238"/>
<path d="M151.86 263.84C149.547 263.483 147.263 262.952 145.03 262.25C142.748 261.717 140.508 261.015 138.33 260.15C140.642 260.513 142.925 261.045 145.16 261.74C147.443 262.272 149.682 262.974 151.86 263.84Z" fill="#263238"/>
<path d="M198.57 233.141C198.193 233.206 197.807 233.206 197.43 233.141C196.385 233.034 195.36 232.788 194.38 232.411C192.744 231.796 191.255 230.846 190.008 229.621C188.761 228.397 187.784 226.925 187.14 225.301C186.428 223.514 186.124 221.59 186.25 219.671C186.295 218.087 186.768 216.546 187.62 215.211C188.219 214.311 189.114 213.65 190.15 213.341C190.427 213.264 190.713 213.227 191 213.231C191.2 213.231 191.3 213.231 191.3 213.231C191.3 213.231 190.88 213.231 190.21 213.501C189.26 213.852 188.454 214.51 187.92 215.371C186.56 217.511 186.18 221.421 187.63 225.071C188.305 226.792 189.361 228.337 190.72 229.591C191.833 230.616 193.115 231.442 194.51 232.031C195.819 232.548 197.18 232.92 198.57 233.141Z" fill="#263238"/>
<path d="M221.88 234C221.63 230.934 221.55 227.856 221.64 224.78C221.562 221.707 221.655 218.633 221.92 215.57C222.17 218.634 222.25 221.708 222.16 224.78C222.244 227.856 222.15 230.935 221.88 234Z" fill="#263238"/>
<path d="M185.2 213.3C185.31 211.07 185.54 208.55 185.54 208.55C185.54 208.55 191.06 207.94 191.39 202.24C191.72 196.54 191.39 183.39 191.39 183.39L181.39 178.27L170.29 187L172 215.5L182.18 216.15C182.958 216.171 183.713 215.883 184.279 215.349C184.845 214.815 185.177 214.078 185.2 213.3Z" fill="#FFBE9D"/>
<path d="M186.19 197.73C186.19 197.73 186.19 197.84 186.1 197.97C186.026 198.064 185.929 198.139 185.82 198.188C185.71 198.237 185.59 198.258 185.47 198.25C184.83 198.25 184.21 197.51 183.99 196.65C183.885 196.233 183.885 195.797 183.99 195.38C184.011 195.198 184.076 195.024 184.181 194.874C184.286 194.724 184.426 194.602 184.59 194.52C184.725 194.465 184.876 194.465 185.01 194.52C185.11 194.57 185.191 194.65 185.24 194.75C185.31 194.92 185.24 195.03 185.24 195.02C185.24 195.01 185.24 194.92 185.14 194.82C185.088 194.749 185.011 194.699 184.924 194.68C184.837 194.662 184.747 194.676 184.67 194.72C184.547 194.794 184.445 194.898 184.374 195.022C184.302 195.147 184.263 195.287 184.26 195.43C184.176 195.802 184.176 196.188 184.26 196.56C184.46 197.34 185 197.97 185.48 198.03C185.574 198.043 185.669 198.036 185.761 198.01C185.852 197.985 185.937 197.94 186.01 197.88C186.13 197.8 186.17 197.72 186.19 197.73Z" fill="#EB996E"/>
<path d="M194.82 180.31C194.05 177.69 191.26 176.39 188.72 175.67C184.85 174.57 180.67 174.09 176.89 175.48C173.11 176.87 168.57 179.31 168.57 183.48C166.34 183.3 165.06 185.25 164.18 187.67C163.617 189.145 163.28 190.695 163.18 192.27C162.9 197.73 161.37 205.27 157.83 209.27C155.83 211.5 153.06 213.04 151.92 215.82C150.92 218.23 151.44 221.09 150.51 223.53C149.68 225.68 147.85 227.21 146.51 229.08C145.145 231.202 144.341 233.635 144.175 236.153C144.009 238.67 144.485 241.188 145.56 243.47C146.642 245.694 148.166 247.675 150.038 249.291C151.91 250.907 154.092 252.125 156.45 252.87C161.121 254.291 166.102 254.34 170.8 253.01C174.326 252.167 177.615 250.536 180.42 248.24C183.29 245.896 185.262 242.632 186 239C186.71 234.92 185.57 230.77 184.72 226.71C182.06 213.88 182.82 213.21 186.18 201.3C186.26 201.09 186.3 200.87 186.36 200.66C186.42 200.45 186.45 200.35 186.49 200.19C186.585 199.719 186.636 199.241 186.64 198.76C186.149 198.943 185.616 198.981 185.105 198.872C184.593 198.762 184.123 198.508 183.75 198.14C183.376 197.748 183.116 197.262 182.996 196.734C182.876 196.206 182.902 195.655 183.07 195.14C183.306 194.577 183.657 194.07 184.102 193.651C184.546 193.233 185.074 192.912 185.65 192.71C186.76 192.25 187.95 192.01 189.04 191.5C191.35 190.4 192.95 188.12 194.04 185.73C194.936 184.074 195.213 182.152 194.82 180.31Z" fill="#263238"/>
<path d="M186.59 198C186.801 198.312 186.976 198.648 187.11 199C187.41 199.63 187.81 200.52 188.25 201.55L188.33 201.74H188.12L187.12 201.83C186.43 201.83 185.85 201.96 185.17 201.95C185.111 201.937 185.056 201.909 185.01 201.868C184.965 201.828 184.93 201.777 184.91 201.72C184.88 201.629 184.88 201.531 184.91 201.44C184.933 201.305 184.963 201.172 185 201.04L185.18 200.33C185.27 199.856 185.411 199.394 185.6 198.95C185.581 199.433 185.511 199.912 185.39 200.38L185.25 201.09C185.2 201.33 185.11 201.7 185.25 201.67C185.75 201.67 186.46 201.56 187.12 201.52L188.12 201.43L187.99 201.65C187.56 200.65 187.2 199.71 186.99 199.06C186.806 198.728 186.671 198.371 186.59 198Z" fill="#4242FF"/>
<path d="M152.35 282.17L196.7 280.82L216 356.16L212.45 442.58H189L191.87 358L174.72 305.55L177.36 445.93L153.66 446.28L151.17 314.33C151.06 310.66 149.86 302.39 150.31 298.75L152.35 282.17Z" fill="#263238"/>
<path d="M180.62 306.62C179.894 306.666 179.165 306.622 178.45 306.49C177.11 306.33 175.28 306.05 173.27 305.65C171.26 305.25 169.46 304.79 168.16 304.42C167.465 304.268 166.793 304.026 166.16 303.7C166.16 303.55 169.42 304.33 173.42 305.14C177.42 305.95 180.64 306.47 180.62 306.62Z" fill="#455A64"/>
<path d="M212.21 437.84C212.21 437.98 206.9 438.1 200.35 438.1C193.8 438.1 188.48 437.98 188.48 437.84C188.48 437.7 193.79 437.58 200.35 437.58C206.91 437.58 212.21 437.69 212.21 437.84Z" fill="#455A64"/>
<path d="M177.15 442.28C177.15 442.43 171.99 442.54 165.63 442.54C159.27 442.54 154.12 442.43 154.12 442.28C154.12 442.13 159.28 442.02 165.63 442.02C171.98 442.02 177.15 442.14 177.15 442.28Z" fill="#455A64"/>
<path d="M174.09 441.92C173.95 441.92 173.33 411.25 172.7 373.42C172.07 335.59 171.7 304.9 171.83 304.9C171.96 304.9 172.6 335.56 173.22 373.41C173.84 411.26 174.24 441.92 174.09 441.92Z" fill="#455A64"/>
<path d="M209.06 437.84C209.049 437.703 209.049 437.566 209.06 437.43V436.23C209.06 435.15 209.14 433.6 209.2 431.63C209.34 427.63 209.54 421.82 209.79 414.7C210.33 400.38 211.09 380.64 211.92 358.85C211.92 358.64 211.92 358.44 211.92 358.26V358.33C206.67 337.33 201.92 318.27 198.47 304.48L194.47 288.17C194.01 286.26 193.66 284.77 193.41 283.73C193.29 283.24 193.21 282.86 193.14 282.57C193.101 282.44 193.078 282.306 193.07 282.17C193.122 282.296 193.162 282.426 193.19 282.56C193.27 282.84 193.37 283.22 193.51 283.7C193.78 284.7 194.17 286.22 194.67 288.12C195.67 291.98 197.08 297.54 198.84 304.39C202.32 318.17 207.12 337.18 212.44 358.21V358.28C212.44 358.46 212.44 358.67 212.44 358.87C211.55 380.66 210.74 400.39 210.15 414.71C209.84 421.84 209.58 427.61 209.4 431.63C209.3 433.63 209.22 435.15 209.17 436.23C209.17 436.74 209.11 437.14 209.1 437.43C209.102 437.568 209.088 437.705 209.06 437.84Z" fill="#455A64"/>
<path d="M201.41 356.5C199.726 357.054 197.99 357.439 196.23 357.65C194.07 358.02 192.23 358.28 191.4 358.32V358.12C191.67 358.2 191.81 358.25 191.81 358.29C191.81 358.33 191.64 358.29 191.36 358.29H190.76L191.36 358.11C192.14 357.88 193.98 357.5 196.14 357.11C197.872 356.734 199.638 356.53 201.41 356.5Z" fill="#455A64"/>
<path d="M201 359.371C199.44 359.442 197.877 359.372 196.33 359.161C194.768 359.129 193.212 358.958 191.68 358.651C194.805 358.396 197.951 358.639 201 359.371Z" fill="#455A64"/>
<path opacity="0.2" d="M152.16 283.76C152.685 284.435 153.347 284.991 154.101 285.392C154.856 285.794 155.687 286.032 156.54 286.09C158.326 286.302 160.133 286.268 161.91 285.99C173.36 284.72 185.49 283.55 196.7 280.82C182.19 281.63 166.86 281.36 152.35 282.17L152.2 283.41" fill="black"/>
<g opacity="0.2">
<path d="M167.11 304.211L175.29 335.951L174.72 305.551L167.11 304.211Z" fill="black"/>
</g>
</svg>
