<svg width="16" height="16" viewBox="0 0 16 16" fill="none" xmlns="http://www.w3.org/2000/svg">
<path d="M13.6399 6.79798C13.6399 3.77136 11.2025 1.33398 8.17591 1.33398C5.14929 1.33398 2.71191 3.77136 2.71191 6.79798C2.71191 8.83041 5.17581 12.0465 6.79452 13.94C7.52943 14.7997 8.82239 14.7997 9.55731 13.94C11.176 12.0465 13.6399 8.83041 13.6399 6.79798ZM5.6314 6.69085C5.6314 5.29806 6.78313 4.14634 8.17591 4.14634C9.5687 4.14634 10.7204 5.27128 10.7204 6.69085C10.7204 8.08363 9.59548 9.23536 8.17591 9.23536C6.78313 9.23536 5.6314 8.08363 5.6314 6.69085Z" fill="#88888E"/>
</svg>
