<svg width="16" height="16" viewBox="0 0 16 16" fill="none" xmlns="http://www.w3.org/2000/svg">
<path d="M3.33333 2.66602C2.59693 2.66602 2 3.26602 2 3.99935V13.3327C2 14.066 2.59693 14.666 3.33333 14.666H7.33333H8.66667H12.6667C13.4033 14.666 14 14.066 14 13.3327V3.99935C14 3.26602 13.4033 2.66602 12.6667 2.66602H8.66667H7.33333H3.33333Z" fill="#BDC3C7"/>
<path d="M3.33333 2C2.59693 2 2 2.59693 2 3.33333V12.6667C2 13.4033 2.59693 14 3.33333 14H7.33333H8.66667H12.6667C13.4033 14 14 13.4033 14 12.6667V3.33333C14 2.59693 13.4033 2 12.6667 2H8.66667H7.33333H3.33333Z" fill="#88888E"/>
<path d="M3.33333 2C2.59693 2 2 2.59693 2 3.33333V5.33333V6H14V5.33333V3.33333C14 2.59693 13.4033 2 12.6667 2H8.66667H7.33333H3.33333Z" fill="#8A8A8A"/>
<path d="M5 3.66602C5 3.79734 4.97413 3.92737 4.92388 4.0487C4.87362 4.17002 4.79997 4.28026 4.70711 4.37312C4.61425 4.46598 4.50401 4.53964 4.38268 4.5899C4.26136 4.64015 4.13132 4.66602 4 4.66602C3.86868 4.66602 3.73864 4.64015 3.61732 4.5899C3.49599 4.53964 3.38575 4.46598 3.29289 4.37312C3.20003 4.28026 3.12638 4.17002 3.07612 4.0487C3.02587 3.92737 3 3.79734 3 3.66602C3 3.53469 3.02587 3.40466 3.07612 3.28333C3.12638 3.16201 3.20003 3.05177 3.29289 2.95891C3.38575 2.86605 3.49599 2.79239 3.61732 2.74214C3.73864 2.69188 3.86868 2.66602 4 2.66602C4.13132 2.66602 4.26136 2.69188 4.38268 2.74214C4.50401 2.79239 4.61425 2.86605 4.70711 2.95891C4.79997 3.05177 4.87362 3.16201 4.92388 3.28333C4.97413 3.40466 5 3.53469 5 3.66602Z" fill="#8A8A8A"/>
<path d="M3.99967 0.666016C3.63147 0.666016 3.33301 0.964482 3.33301 1.33268V3.33268C3.33301 3.70088 3.63147 3.99935 3.99967 3.99935C4.36787 3.99935 4.66634 3.70088 4.66634 3.33268V1.33268C4.66634 0.964482 4.36787 0.666016 3.99967 0.666016Z" fill="#FEFEFE"/>
<path d="M13 3.66602C13 3.79734 12.9741 3.92737 12.9239 4.0487C12.8736 4.17002 12.8 4.28026 12.7071 4.37312C12.6142 4.46598 12.504 4.53964 12.3827 4.5899C12.2614 4.64015 12.1313 4.66602 12 4.66602C11.8687 4.66602 11.7386 4.64015 11.6173 4.5899C11.496 4.53964 11.3858 4.46598 11.2929 4.37312C11.2 4.28026 11.1264 4.17002 11.0761 4.0487C11.0259 3.92737 11 3.79734 11 3.66602C11 3.53469 11.0259 3.40466 11.0761 3.28333C11.1264 3.16201 11.2 3.05177 11.2929 2.95891C11.3858 2.86605 11.496 2.79239 11.6173 2.74214C11.7386 2.69188 11.8687 2.66602 12 2.66602C12.1313 2.66602 12.2614 2.69188 12.3827 2.74214C12.504 2.79239 12.6142 2.86605 12.7071 2.95891C12.8 3.05177 12.8736 3.16201 12.9239 3.28333C12.9741 3.40466 13 3.53469 13 3.66602Z" fill="#8A8A8A"/>
<path d="M11.9997 0.666016C11.6317 0.666016 11.333 0.932682 11.333 1.33268V3.33268C11.333 3.66602 11.6317 3.99935 11.9997 3.99935C12.3677 3.99935 12.6663 3.66602 12.6663 3.33268V1.33268C12.6663 0.932682 12.3677 0.666016 11.9997 0.666016Z" fill="#FEFEFE"/>
<path d="M3.33301 7.33203V8.66536H4.66634V7.33203H3.33301ZM5.33301 7.33203V8.66536H6.66634V7.33203H5.33301ZM7.33301 7.33203V8.66536H8.66634V7.33203H7.33301ZM9.33301 7.33203V8.66536H10.6663V7.33203H9.33301ZM11.333 7.33203V8.66536H12.6663V7.33203H11.333Z" fill="#FEFEFE"/>
<path d="M3.33301 9.33203V10.6654H4.66634V9.33203H3.33301ZM5.33301 9.33203V10.6654H6.66634V9.33203H5.33301ZM7.33301 9.33203V10.6654H8.66634V9.33203H7.33301ZM9.33301 9.33203V10.6654H10.6663V9.33203H9.33301ZM11.333 9.33203V10.6654H12.6663V9.33203H11.333Z" fill="#FEFEFE"/>
<path d="M3.33301 11.332V12.6654H4.66634V11.332H3.33301ZM5.33301 11.332V12.6654H6.66634V11.332H5.33301ZM7.33301 11.332V12.6654H8.66634V11.332H7.33301ZM9.33301 11.332V12.6654H10.6663V11.332H9.33301ZM11.333 11.332V12.6654H12.6663V11.332H11.333Z" fill="#FEFEFE"/>
</svg>
