<svg width="16" height="16" viewBox="0 0 16 16" fill="none" xmlns="http://www.w3.org/2000/svg">
<path d="M14.3165 14.3156C14.2078 14.4265 14.0781 14.5147 13.9349 14.5748C13.7916 14.635 13.6379 14.666 13.4825 14.666C13.3272 14.666 13.1734 14.635 13.0302 14.5748C12.887 14.5147 12.7572 14.4265 12.6485 14.3156L10.667 12.334C11.319 11.8831 11.8841 11.318 12.335 10.666L14.3165 12.6475C14.4275 12.7562 14.5156 12.886 14.5758 13.0292C14.636 13.1724 14.667 13.3262 14.667 13.4815C14.667 13.6369 14.636 13.7907 14.5758 13.9339C14.5156 14.0771 14.4275 14.2068 14.3165 14.3156Z" fill="#88888E"/>
<path d="M6.66634 1.33398C5.61151 1.33398 4.58036 1.64678 3.7033 2.23281C2.82624 2.81885 2.14265 3.6518 1.73899 4.62634C1.33532 5.60088 1.2297 6.67323 1.43549 7.7078C1.64128 8.74236 2.14923 9.69267 2.89511 10.4386C3.64099 11.1844 4.5913 11.6924 5.62586 11.8982C6.66043 12.104 7.73278 11.9983 8.70732 11.5947C9.68186 11.191 10.5148 10.5074 11.1008 9.63036C11.6869 8.7533 11.9997 7.72215 11.9997 6.66732C11.9997 5.25283 11.4378 3.89628 10.4376 2.89608C9.43738 1.89589 8.08083 1.33398 6.66634 1.33398ZM6.66634 4.29695C6.03768 4.29695 5.43477 4.54668 4.99024 4.99121C4.54571 5.43574 4.29597 6.03866 4.29597 6.66732C4.29597 6.82448 4.23354 6.97521 4.12241 7.08634C4.01127 7.19747 3.86055 7.25991 3.70338 7.25991C3.54621 7.25991 3.39549 7.19747 3.28435 7.08634C3.17322 6.97521 3.11079 6.82448 3.11079 6.66732C3.11173 5.72461 3.48663 4.82079 4.15323 4.1542C4.81982 3.48761 5.72364 3.1127 6.66634 3.11176C6.82351 3.11176 6.97424 3.1742 7.08537 3.28533C7.1965 3.39646 7.25893 3.54719 7.25893 3.70435C7.25893 3.86152 7.1965 4.01225 7.08537 4.12338C6.97424 4.23451 6.82351 4.29695 6.66634 4.29695Z" fill="#88888E"/>
</svg>
