<svg width="25" height="24" viewBox="0 0 25 24" fill="none" xmlns="http://www.w3.org/2000/svg">
<path d="M12.2614 21.75C6.61135 21.75 2.01135 17.15 2.01135 11.5C2.01135 5.85 6.61135 1.25 12.2614 1.25C17.9114 1.25 22.5114 5.85 22.5114 11.5C22.5114 17.15 17.9114 21.75 12.2614 21.75ZM12.2614 2.75C7.43135 2.75 3.51135 6.68 3.51135 11.5C3.51135 16.32 7.43135 20.25 12.2614 20.25C17.0914 20.25 21.0114 16.32 21.0114 11.5C21.0114 6.68 17.0914 2.75 12.2614 2.75Z" fill="#E6E6FC"/>
<path d="M22.7614 22.7495C22.5714 22.7495 22.3814 22.6795 22.2314 22.5295L20.2314 20.5295C19.9414 20.2395 19.9414 19.7595 20.2314 19.4695C20.5214 19.1795 21.0014 19.1795 21.2914 19.4695L23.2914 21.4695C23.5814 21.7595 23.5814 22.2395 23.2914 22.5295C23.1414 22.6795 22.9514 22.7495 22.7614 22.7495Z" fill="#E6E6FC"/>
</svg>
