<svg width="32" height="32" viewBox="0 0 32 32" fill="none" xmlns="http://www.w3.org/2000/svg">
<path d="M14.6563 19.7391C15.9965 18.8469 17.014 17.547 17.5584 16.0317C18.1027 14.5164 18.145 12.8662 17.6789 11.325C17.2128 9.78386 16.2631 8.4336 14.9703 7.47392C13.6775 6.51424 12.1101 5.99609 10.5 5.99609C8.88991 5.99609 7.32255 6.51424 6.02972 7.47392C4.73688 8.4336 3.7872 9.78386 3.32111 11.325C2.85503 12.8662 2.89728 14.5164 3.44162 16.0317C3.98597 17.547 5.0035 18.8469 6.34375 19.7391C3.91937 20.6327 1.84888 22.2862 0.441251 24.4529C0.367271 24.5628 0.315884 24.6864 0.290078 24.8164C0.264271 24.9464 0.26456 25.0802 0.290928 25.2101C0.317295 25.34 0.369215 25.4633 0.443669 25.5729C0.518124 25.6826 0.613627 25.7763 0.724629 25.8487C0.835631 25.9211 0.959916 25.9707 1.09026 25.9947C1.22061 26.0186 1.35441 26.0164 1.4839 25.9882C1.61338 25.96 1.73597 25.9063 1.84452 25.8303C1.95308 25.7542 2.04545 25.6574 2.11625 25.5454C3.02424 24.1489 4.2667 23.0013 5.7308 22.2069C7.1949 21.4124 8.83426 20.9963 10.5 20.9963C12.1657 20.9963 13.8051 21.4124 15.2692 22.2069C16.7333 23.0013 17.9758 24.1489 18.8838 25.5454C19.0304 25.7634 19.257 25.9149 19.5145 25.9672C19.772 26.0194 20.0397 25.9683 20.2597 25.8247C20.4798 25.6812 20.6345 25.4568 20.6905 25.2001C20.7464 24.9434 20.6991 24.675 20.5588 24.4529C19.1511 22.2862 17.0806 20.6327 14.6563 19.7391ZM5 13.4991C5 12.4113 5.32257 11.348 5.92692 10.4435C6.53127 9.53903 7.39025 8.83408 8.39524 8.4178C9.40024 8.00152 10.5061 7.8926 11.573 8.10482C12.6399 8.31704 13.6199 8.84086 14.3891 9.61005C15.1583 10.3792 15.6821 11.3592 15.8943 12.4261C16.1065 13.493 15.9976 14.5989 15.5813 15.6039C15.1651 16.6089 14.4601 17.4679 13.5556 18.0722C12.6512 18.6766 11.5878 18.9991 10.5 18.9991C9.04182 18.9975 7.64383 18.4175 6.61274 17.3864C5.58165 16.3553 5.00166 14.9573 5 13.4991ZM31.2675 25.8366C31.0454 25.9815 30.7748 26.0322 30.5153 25.9776C30.2558 25.9229 30.0286 25.7675 29.8838 25.5454C28.9769 24.148 27.7346 23 26.2702 22.2059C24.8058 21.4118 23.1659 20.9969 21.5 20.9991C21.2348 20.9991 20.9804 20.8938 20.7929 20.7062C20.6054 20.5187 20.5 20.2644 20.5 19.9991C20.5 19.7339 20.6054 19.4796 20.7929 19.292C20.9804 19.1045 21.2348 18.9991 21.5 18.9991C22.31 18.9984 23.1098 18.8187 23.8422 18.473C24.5747 18.1273 25.2218 17.6241 25.7373 16.9994C26.2527 16.3746 26.6239 15.6437 26.8241 14.8589C27.0243 14.074 27.0488 13.2547 26.8956 12.4593C26.7425 11.664 26.4156 10.9123 25.9383 10.2579C25.4609 9.60351 24.845 9.06265 24.1344 8.67393C23.4238 8.28521 22.6361 8.05823 21.8276 8.00922C21.0192 7.9602 20.2098 8.09036 19.4575 8.39039C19.3348 8.44341 19.2028 8.47132 19.0691 8.47245C18.9355 8.47358 18.803 8.44791 18.6795 8.39696C18.5559 8.34601 18.4438 8.27082 18.3498 8.17582C18.2559 8.08083 18.1819 7.96795 18.1322 7.84387C18.0826 7.71979 18.0583 7.58702 18.0609 7.45341C18.0634 7.3198 18.0927 7.18805 18.1471 7.06595C18.2014 6.94385 18.2796 6.83389 18.3772 6.74254C18.4747 6.6512 18.5896 6.58034 18.715 6.53414C20.4368 5.84745 22.352 5.82274 24.0909 6.46477C25.8299 7.1068 27.2695 8.37008 28.132 10.0109C28.9945 11.6517 29.2188 13.5538 28.7616 15.3503C28.3044 17.1467 27.1982 18.7102 25.6563 19.7391C28.0806 20.6327 30.1511 22.2862 31.5588 24.4529C31.7036 24.675 31.7543 24.9456 31.6997 25.2051C31.6451 25.4646 31.4896 25.6917 31.2675 25.8366Z" fill="#0000FF"/>
</svg>
