<svg width="32" height="32" viewBox="0 0 32 32" fill="none" xmlns="http://www.w3.org/2000/svg">
<path d="M26 4.99915H20.9C20.6705 3.86886 20.0573 2.85268 19.1643 2.12278C18.2712 1.39287 17.1534 0.994141 16 0.994141C14.8466 0.994141 13.7288 1.39287 12.8357 2.12278C11.9427 2.85268 11.3295 3.86886 11.1 4.99915H6C5.73478 4.99915 5.48043 5.10451 5.29289 5.29205C5.10536 5.47958 5 5.73394 5 5.99915C5 6.26437 5.10536 6.51872 5.29289 6.70626C5.48043 6.8938 5.73478 6.99915 6 6.99915H11.1C11.3168 8.05393 11.8683 9.01054 12.6725 9.72665C11.2797 10.365 10.0992 11.3895 9.27103 12.6785C8.44285 13.9675 8.00173 15.467 8 16.9992V24.9992C8 25.5296 8.21071 26.0383 8.58579 26.4134C8.96086 26.7884 9.46957 26.9992 10 26.9992H12C12 28.06 12.4214 29.0774 13.1716 29.8276C13.9217 30.5777 14.9391 30.9992 16 30.9992C17.0609 30.9992 18.0783 30.5777 18.8284 29.8276C19.5786 29.0774 20 28.06 20 26.9992H22C22.5304 26.9992 23.0391 26.7884 23.4142 26.4134C23.7893 26.0383 24 25.5296 24 24.9992V16.9992C23.9983 15.467 23.5572 13.9675 22.729 12.6785C21.9008 11.3895 20.7203 10.365 19.3275 9.72665C20.1317 9.01054 20.6832 8.05393 20.9 6.99915H26C26.2652 6.99915 26.5196 6.8938 26.7071 6.70626C26.8946 6.51872 27 6.26437 27 5.99915C27 5.73394 26.8946 5.47958 26.7071 5.29205C26.5196 5.10451 26.2652 4.99915 26 4.99915ZM18 26.9992C18 27.5296 17.7893 28.0383 17.4142 28.4134C17.0391 28.7884 16.5304 28.9992 16 28.9992C15.4696 28.9992 14.9609 28.7884 14.5858 28.4134C14.2107 28.0383 14 27.5296 14 26.9992V20.9992C14 20.4687 14.2107 19.96 14.5858 19.5849C14.9609 19.2099 15.4696 18.9992 16 18.9992C16.5304 18.9992 17.0391 19.2099 17.4142 19.5849C17.7893 19.96 18 20.4687 18 20.9992V26.9992ZM22 16.9992V24.9992H20V20.9992C20 19.9383 19.5786 18.9209 18.8284 18.1707C18.0783 17.4206 17.0609 16.9992 16 16.9992C14.9391 16.9992 13.9217 17.4206 13.1716 18.1707C12.4214 18.9209 12 19.9383 12 20.9992V24.9992H10V16.9992C10 15.4079 10.6321 13.8817 11.7574 12.7565C12.8826 11.6313 14.4087 10.9992 16 10.9992C17.5913 10.9992 19.1174 11.6313 20.2426 12.7565C21.3679 13.8817 22 15.4079 22 16.9992ZM13 5.99915C13 5.40581 13.1759 4.82579 13.5056 4.33244C13.8352 3.83909 14.3038 3.45458 14.8519 3.22751C15.4001 3.00045 16.0033 2.94104 16.5853 3.0568C17.1672 3.17255 17.7018 3.45828 18.1213 3.87783C18.5409 4.29739 18.8266 4.83194 18.9424 5.41388C19.0581 5.99583 18.9987 6.59903 18.7716 7.1472C18.5446 7.69538 18.1601 8.16392 17.6667 8.49356C17.1734 8.82321 16.5933 8.99915 16 8.99915C15.2044 8.99915 14.4413 8.68308 13.8787 8.12047C13.3161 7.55786 13 6.7948 13 5.99915Z" fill="#0000FF"/>
</svg>
