<svg width="81" height="80" viewBox="0 0 81 80" fill="none" xmlns="http://www.w3.org/2000/svg">
<path d="M0.0742188 78.0335V79.9995L1.82413 78.2574V73.9102L1.7712 73.9617C0.685687 75.0421 0.0754199 76.5064 0.0742188 78.0335Z" fill="#2FD33A"/>
<path d="M78.5622 -0.00195291C77.0281 -0.00236939 75.5563 0.601464 74.4689 1.67739L74.416 1.73001H78.7897L80.5384 -0.00195291H78.5622Z" fill="#2FD33A"/>
<path d="M78.5633 -0.00195312H54.3011L0.0742188 53.9072V78.0315C0.0760158 76.5052 0.686238 75.0418 1.7712 73.9619L1.82413 73.9104L74.4172 1.73337L74.4701 1.68075C75.5569 0.603594 77.0288 -0.00147761 78.5633 -0.00195312Z" fill="#00BF00"/>
<path style="mix-blend-mode:overlay" d="M78.5633 -0.00195312H54.3011L0.0742188 53.9072V78.0315C0.0760158 76.5052 0.686238 75.0418 1.7712 73.9619L1.82413 73.9104L74.4171 1.73337L74.4701 1.68075C75.5569 0.603594 77.0288 -0.00147761 78.5633 -0.00195312Z" fill="#00B000"/>
</svg>
