<svg width="82" height="81" viewBox="0 0 82 81" fill="none" xmlns="http://www.w3.org/2000/svg">
<path d="M0.900391 78.9222V80.8881L2.6503 79.1461V74.7988L2.59737 74.8503C1.51186 75.9307 0.901592 77.3951 0.900391 78.9222Z" fill="#007BFF"/>
<path d="M79.3884 0.886719C77.8543 0.886302 76.3825 1.49014 75.2951 2.56606L75.2422 2.61868H79.6158L81.3646 0.886719H79.3884Z" fill="#007BFF"/>
<path d="M79.3895 0.886719H55.1273L0.900391 54.7958V78.9202C0.902188 77.3938 1.51241 75.9304 2.59737 74.8506L2.6503 74.799L75.2433 2.62204L75.2963 2.56942C76.3831 1.49227 77.8549 0.887194 79.3895 0.886719Z" fill="url(#paint0_linear_393_3091)"/>
<path style="mix-blend-mode:overlay" d="M79.3895 0.886719H55.1273L0.900391 54.7958V78.9202C0.902188 77.3938 1.51241 75.9304 2.59737 74.8506L2.6503 74.799L75.2433 2.62204L75.2963 2.56942C76.3831 1.49227 77.8549 0.887194 79.3895 0.886719Z" fill="url(#paint1_linear_393_3091)"/>
<defs>
<linearGradient id="paint0_linear_393_3091" x1="40.145" y1="85.3408" x2="40.145" y2="0.845295" gradientUnits="userSpaceOnUse">
<stop stop-color="#007BFF"/>
<stop offset="0.38" stop-color="#007BFF"/>
<stop offset="0.44" stop-color="#007BFF"/>
<stop offset="0.56" stop-color="#2B70CD"/>
<stop offset="0.67" stop-color="#296ADC"/>
<stop offset="1" stop-color="#4E9EFF"/>
</linearGradient>
<linearGradient id="paint1_linear_393_3091" x1="3.27977" y1="66.4583" x2="68.9345" y2="-3.12166" gradientUnits="userSpaceOnUse">
<stop stop-color="#535353"/>
<stop offset="0.05" stop-color="#5E5E5E"/>
<stop offset="0.13" stop-color="#7A7A7A"/>
<stop offset="0.24" stop-color="#A8A8A8"/>
<stop offset="0.26" stop-color="#B5B5B5"/>
<stop offset="0.59" stop-color="#B5B5B5"/>
<stop offset="0.67" stop-color="#969696"/>
<stop offset="0.75" stop-color="#797979"/>
<stop offset="0.84" stop-color="#646464"/>
<stop offset="0.92" stop-color="#575757"/>
<stop offset="1" stop-color="#535353"/>
</linearGradient>
</defs>
</svg>
