<svg width="81" height="80" viewBox="0 0 81 80" fill="none" xmlns="http://www.w3.org/2000/svg">
<path d="M0.0546875 78.0335V79.9995L1.80459 78.2574V73.9102L1.75167 73.9617C0.666156 75.0421 0.0558886 76.5064 0.0546875 78.0335Z" fill="#212121"/>
<path d="M78.5427 -0.00195291C77.0086 -0.00236939 75.5368 0.601464 74.4494 1.67739L74.3965 1.73001H78.7701L80.5189 -0.00195291H78.5427Z" fill="#212121"/>
<path d="M78.5438 -0.00195312H54.2816L0.0546875 53.9072V78.0315C0.0564845 76.5052 0.666706 75.0418 1.75167 73.9619L1.80459 73.9104L74.3976 1.73337L74.4506 1.68075C75.5374 0.603594 77.0092 -0.00147761 78.5438 -0.00195312Z" fill="url(#paint0_linear_393_3097)"/>
<path style="mix-blend-mode:overlay" d="M78.5438 -0.00195312H54.2816L0.0546875 53.9072V78.0315C0.0564845 76.5052 0.666706 75.0418 1.75167 73.9619L1.80459 73.9104L74.3976 1.73337L74.4506 1.68075C75.5374 0.603594 77.0092 -0.00147761 78.5438 -0.00195312Z" fill="url(#paint1_linear_393_3097)"/>
<defs>
<linearGradient id="paint0_linear_393_3097" x1="39.2992" y1="84.4522" x2="39.2992" y2="-0.0433769" gradientUnits="userSpaceOnUse">
<stop stop-color="#212121"/>
<stop offset="0.38" stop-color="#271717"/>
<stop offset="0.44" stop-color="#212121"/>
<stop offset="0.56" stop-color="#1C1C1C"/>
<stop offset="0.67" stop-color="#312727"/>
<stop offset="1" stop-color="#6A6A6A"/>
</linearGradient>
<linearGradient id="paint1_linear_393_3097" x1="2.43407" y1="65.5696" x2="68.0888" y2="-4.01033" gradientUnits="userSpaceOnUse">
<stop stop-color="#535353"/>
<stop offset="0.05" stop-color="#5E5E5E"/>
<stop offset="0.13" stop-color="#7A7A7A"/>
<stop offset="0.24" stop-color="#A8A8A8"/>
<stop offset="0.26" stop-color="#B5B5B5"/>
<stop offset="0.59" stop-color="#B5B5B5"/>
<stop offset="0.67" stop-color="#969696"/>
<stop offset="0.75" stop-color="#797979"/>
<stop offset="0.84" stop-color="#646464"/>
<stop offset="0.92" stop-color="#575757"/>
<stop offset="1" stop-color="#535353"/>
</linearGradient>
</defs>
</svg>
