<svg width="82" height="81" viewBox="0 0 82 81" fill="none" xmlns="http://www.w3.org/2000/svg">
<path d="M0.685547 78.8987V80.8647L2.43545 79.1226V74.7754L2.38253 74.8269C1.29702 75.9073 0.686748 77.3716 0.685547 78.8987Z" fill="#D32F2F"/>
<path d="M79.1735 0.863281C77.6394 0.862865 76.1676 1.4667 75.0803 2.54262L75.0273 2.59524H79.401L81.1498 0.863281H79.1735Z" fill="#D32F2F"/>
<path d="M79.1747 0.863281H54.9124L0.685547 54.7724V78.8967C0.687344 77.3704 1.29757 75.907 2.38253 74.8271L2.43545 74.7756L75.0285 2.5986L75.0814 2.54599C76.1682 1.46883 77.6401 0.863757 79.1747 0.863281Z" fill="url(#paint0_linear_393_2990)"/>
<path style="mix-blend-mode:overlay" d="M79.1747 0.863281H54.9124L0.685547 54.7724V78.8967C0.687344 77.3704 1.29757 75.907 2.38253 74.8271L2.43545 74.7756L75.0285 2.5986L75.0814 2.54599C76.1682 1.46883 77.6401 0.863757 79.1747 0.863281Z" fill="url(#paint1_linear_393_2990)"/>
<defs>
<linearGradient id="paint0_linear_393_2990" x1="39.9301" y1="85.3174" x2="39.9301" y2="0.821857" gradientUnits="userSpaceOnUse">
<stop stop-color="#B3140E"/>
<stop offset="0.38" stop-color="#D9281E"/>
<stop offset="0.44" stop-color="#E03027"/>
<stop offset="0.56" stop-color="#EA3D35"/>
<stop offset="0.67" stop-color="#EE413A"/>
<stop offset="1" stop-color="#FD5B47"/>
</linearGradient>
<linearGradient id="paint1_linear_393_2990" x1="3.06493" y1="66.4349" x2="68.7197" y2="-3.1451" gradientUnits="userSpaceOnUse">
<stop stop-color="#535353"/>
<stop offset="0.05" stop-color="#5E5E5E"/>
<stop offset="0.13" stop-color="#7A7A7A"/>
<stop offset="0.24" stop-color="#A8A8A8"/>
<stop offset="0.26" stop-color="#B5B5B5"/>
<stop offset="0.59" stop-color="#B5B5B5"/>
<stop offset="0.67" stop-color="#969696"/>
<stop offset="0.75" stop-color="#797979"/>
<stop offset="0.84" stop-color="#646464"/>
<stop offset="0.92" stop-color="#575757"/>
<stop offset="1" stop-color="#535353"/>
</linearGradient>
</defs>
</svg>
