<svg width="20" height="20" viewBox="0 0 20 20" fill="none" xmlns="http://www.w3.org/2000/svg">
<path fill-rule="evenodd" clip-rule="evenodd" d="M6.5625 6.86984C6.31386 6.86984 6.0754 6.77107 5.89959 6.59526C5.72377 6.41944 5.625 6.18098 5.625 5.93234V4.99859C5.12772 4.99859 4.65081 5.19614 4.29917 5.54777C3.94754 5.8994 3.75 6.37631 3.75 6.87359V8.12359H16.25V6.87359C16.25 6.37631 16.0525 5.8994 15.7008 5.54777C15.3492 5.19614 14.8723 4.99859 14.375 4.99859V5.93609C14.375 6.18473 14.2762 6.42319 14.1004 6.59901C13.9246 6.77482 13.6861 6.87359 13.4375 6.87359C13.1889 6.87359 12.9504 6.77482 12.7746 6.59901C12.5988 6.42319 12.5 6.18473 12.5 5.93609V4.99859H7.5V5.93234C7.5 6.18098 7.40123 6.41944 7.22541 6.59526C7.0496 6.77107 6.81114 6.86984 6.5625 6.86984ZM12.5 3.12359H7.5V2.18359C7.5 1.93495 7.40123 1.6965 7.22541 1.52068C7.0496 1.34487 6.81114 1.24609 6.5625 1.24609C6.31386 1.24609 6.0754 1.34487 5.89959 1.52068C5.72377 1.6965 5.625 1.93495 5.625 2.18359V3.12359C4.63044 3.12359 3.67661 3.51868 2.97335 4.22194C2.27009 4.9252 1.875 5.87903 1.875 6.87359V14.3736C1.875 15.3682 2.27009 16.322 2.97335 17.0252C3.67661 17.7285 4.63044 18.1236 5.625 18.1236H14.375C15.3696 18.1236 16.3234 17.7285 17.0267 17.0252C17.7299 16.322 18.125 15.3682 18.125 14.3736V6.87359C18.125 5.87903 17.7299 4.9252 17.0267 4.22194C16.3234 3.51868 15.3696 3.12359 14.375 3.12359V2.18609C14.375 1.93745 14.2762 1.699 14.1004 1.52318C13.9246 1.34737 13.6861 1.24859 13.4375 1.24859C13.1889 1.24859 12.9504 1.34737 12.7746 1.52318C12.5988 1.699 12.5 1.93745 12.5 2.18609V3.12359ZM3.75 9.99859V14.3736C3.75 14.8709 3.94754 15.3478 4.29917 15.6994C4.65081 16.0511 5.12772 16.2486 5.625 16.2486H14.375C14.8723 16.2486 15.3492 16.0511 15.7008 15.6994C16.0525 15.3478 16.25 14.8709 16.25 14.3736V9.99859H3.75Z" fill="#0000FF"/>
</svg>
