<svg width="20" height="20" viewBox="0 0 20 20" fill="none" xmlns="http://www.w3.org/2000/svg">
<path d="M14.1666 1.66797V3.33464M9.99996 1.66797V3.33464M5.83329 1.66797V3.33464M6.66663 12.5013H9.99996M6.66663 8.33464H13.3333M2.91663 8.33464C2.91663 5.58464 2.91663 4.20964 3.77079 3.35547C4.62496 2.5013 5.99996 2.5013 8.74996 2.5013H11.25C14 2.5013 15.375 2.5013 16.2291 3.35547C17.0833 4.20964 17.0833 5.58464 17.0833 8.33464V12.5013C17.0833 15.2513 17.0833 16.6263 16.2291 17.4805C15.375 18.3346 14 18.3346 11.25 18.3346H8.74996C5.99996 18.3346 4.62496 18.3346 3.77079 17.4805C2.91663 16.6263 2.91663 15.2513 2.91663 12.5013V8.33464Z" stroke="#0000FF" stroke-width="1.5" stroke-linecap="round" stroke-linejoin="round"/>
</svg>
