<svg width="20" height="20" viewBox="0 0 20 20" fill="none" xmlns="http://www.w3.org/2000/svg">
<path d="M1.20007 8.99932C1.44898 8.17975 1.93972 7.45452 2.60795 6.91869C3.27618 6.38286 4.09072 6.06145 4.9448 5.99658C5.79887 5.93172 6.65261 6.12643 7.3941 6.55518C8.1356 6.98394 8.73024 7.62674 9.10007 8.39932C9.68371 8.2012 10.3164 8.2012 10.9001 8.39932C11.2699 7.62674 11.8645 6.98394 12.606 6.55518C13.3475 6.12643 14.2013 5.93172 15.0553 5.99658C15.9094 6.06145 16.724 6.38286 17.3922 6.91869C18.0604 7.45452 18.5512 8.17975 18.8001 8.99932C18.9415 8.97333 19.0869 8.97785 19.2265 9.0126C19.3661 9.04734 19.4966 9.11149 19.6094 9.20077C19.7222 9.29004 19.8146 9.40237 19.8805 9.53025C19.9463 9.65813 19.9841 9.7986 19.9913 9.94226C19.9985 10.0859 19.9749 10.2295 19.9221 10.3633C19.8694 10.4971 19.7886 10.6181 19.6853 10.7181C19.582 10.8182 19.4585 10.8951 19.3231 10.9436C19.1876 10.9921 19.0434 11.0111 18.9001 10.9993C18.7253 12.0367 18.1703 12.9717 17.3433 13.622C16.5164 14.2722 15.4768 14.5909 14.4274 14.516C13.3781 14.441 12.3944 13.9778 11.6682 13.2166C10.9421 12.4554 10.5256 11.451 10.5001 10.3993C10.348 10.3115 10.1756 10.2653 10.0001 10.2653C9.82453 10.2653 9.65209 10.3115 9.50007 10.3993C9.47456 11.451 9.05807 12.4554 8.33191 13.2166C7.60574 13.9778 6.62201 14.441 5.57269 14.516C4.52337 14.5909 3.48377 14.2722 2.65679 13.622C1.82981 12.9717 1.2748 12.0367 1.10007 10.9993C0.956709 11.0111 0.812494 10.9921 0.677075 10.9436C0.541656 10.8951 0.418156 10.8182 0.314841 10.7181C0.211526 10.6181 0.13078 10.4971 0.0780052 10.3633C0.0252306 10.2295 0.00164557 10.0859 0.00882857 9.94226C0.0160116 9.7986 0.0537969 9.65813 0.119656 9.53025C0.185515 9.40237 0.277928 9.29004 0.39071 9.20077C0.503493 9.11149 0.634043 9.04734 0.773624 9.0126C0.913205 8.97785 1.0586 8.97333 1.20007 8.99932ZM5.25007 7.99932C4.65333 7.99932 4.08103 8.23637 3.65908 8.65833C3.23712 9.08028 3.00007 9.65258 3.00007 10.2493C3.00007 10.8461 3.23712 11.4184 3.65908 11.8403C4.08103 12.2623 4.65333 12.4993 5.25007 12.4993C5.8468 12.4993 6.4191 12.2623 6.84106 11.8403C7.26301 11.4184 7.50007 10.8461 7.50007 10.2493C7.50007 9.65258 7.26301 9.08028 6.84106 8.65833C6.4191 8.23637 5.8468 7.99932 5.25007 7.99932ZM14.7501 7.99932C14.1533 7.99932 13.581 8.23637 13.1591 8.65833C12.7371 9.08028 12.5001 9.65258 12.5001 10.2493C12.5001 10.8461 12.7371 11.4184 13.1591 11.8403C13.581 12.2623 14.1533 12.4993 14.7501 12.4993C15.3468 12.4993 15.9191 12.2623 16.3411 11.8403C16.763 11.4184 17.0001 10.8461 17.0001 10.2493C17.0001 9.65258 16.763 9.08028 16.3411 8.65833C15.9191 8.23637 15.3468 7.99932 14.7501 7.99932Z" fill="#0000FF"/>
</svg>
