<svg width="20" height="20" viewBox="0 0 20 20" fill="none" xmlns="http://www.w3.org/2000/svg">
<path fill-rule="evenodd" clip-rule="evenodd" d="M13.5858 1.96206C13.493 1.80098 13.3598 1.66684 13.1994 1.57283C13.0389 1.47882 12.8568 1.42817 12.6709 1.42586C12.485 1.42356 12.3017 1.46967 12.139 1.55968C11.9763 1.64968 11.8398 1.78047 11.743 1.9392L6.1144 11.1278L4.14726 8.15634C4.04949 8.00865 3.91663 7.8875 3.76056 7.80373C3.6045 7.71996 3.4301 7.6762 3.25298 7.67634H1.08583C0.801672 7.67634 0.52915 7.78922 0.328218 7.99016C0.127287 8.19109 0.0144043 8.46361 0.0144043 8.74777C0.0144043 9.03193 0.127287 9.30445 0.328218 9.50539C0.52915 9.70632 0.801672 9.8192 1.08583 9.8192H2.67869L5.2544 13.7135C5.35382 13.8638 5.48953 13.9865 5.64897 14.0704C5.80842 14.1543 5.98645 14.1967 6.1666 14.1936C6.34675 14.1904 6.5232 14.1419 6.67963 14.0525C6.83606 13.9631 6.96741 13.8357 7.06155 13.6821L12.6315 4.59063L14.623 8.03348C14.7652 8.27957 14.9994 8.45906 15.2741 8.53246C15.5487 8.60587 15.8412 8.56718 16.0873 8.42491C16.3333 8.28264 16.5128 8.04845 16.5862 7.77384C16.6596 7.49923 16.621 7.20671 16.4787 6.96063L13.5844 1.96063L13.5858 1.96206ZM14.7544 11.9121C14.1058 11.3406 13.4158 11.0292 12.723 10.9735C12.3137 10.9422 11.9024 11.0003 11.5178 11.1439C11.1332 11.2874 10.7845 11.513 10.4958 11.8049C9.41012 12.8735 9.05012 14.8478 10.4358 16.2278L10.4601 16.2492L14.263 19.7063C14.3945 19.826 14.5659 19.8923 14.7437 19.8923C14.9215 19.8923 15.0929 19.826 15.2244 19.7063L19.0273 16.2492L19.0415 16.2349C20.4387 14.8906 20.093 12.9249 19.0187 11.8563C18.7314 11.5645 18.3848 11.3378 18.0022 11.1917C17.6197 11.0455 17.2102 10.9833 16.8015 11.0092C16.1087 11.0563 15.413 11.3535 14.7544 11.9121Z" fill="#0000FF"/>
</svg>
